<svg xmlns="http://www.w3.org/2000/svg" width="284" height="43.132" viewBox="0 0 284 43.132"><g transform="translate(17833 1237.082)"><path d="M266.044,364.91a9.393,9.393,0,0,1,.517-2.374c.909-2.374,4.821-4.455,5.075-6.825a10.625,10.625,0,0,1,.676,2.133,2.524,2.524,0,0,1-.108,1.629c-1.017,2.529-5.6,3.99-5.385,7.583-.263-.672-.551-1.422-.767-2.154m-.771-3.085c.543-4.588,4.567-6.053,4.558-8.479,1.086,1.383,1.848,2.365.47,3.878s-3.77,3.016-4.248,5.683a10.089,10.089,0,0,0-.129,1.659,13.66,13.66,0,0,1-.651-2.749m5.976,11.982a17.043,17.043,0,0,1-8.208-14.7,16.5,16.5,0,0,1,2.68-9.048,23.2,23.2,0,0,1,2.3,1.917c1.59,1.529,1.142,2.641.138,3.679a8.87,8.87,0,0,0-2.624,3.761,11.666,11.666,0,0,0-.362,1.956,32.41,32.41,0,0,1,.521-10.224,25.651,25.651,0,0,0-.926,10.34,18.6,18.6,0,0,0,4.1,9.16,18.1,18.1,0,0,1-1.9-3.318c-.345-3.5,5.489-4.8,6.032-8.406,2.051,5.558-2.542,5.644-2.908,9.392-.172,1.4,1.551,3.227,3.274,4.14a12.172,12.172,0,0,0,5.467,1.37h.564a15.355,15.355,0,0,0,12.413-7.113c3.761-5.877,1.723-13.464-3.74-14.429l-5.6,9.7-6.73-3.878L287.5,337.733l1.775,1.025,2.124-3.679a.465.465,0,0,0-.172-.638l-.1-.06.56-.961,4.123,2.383-.556.965-.1-.06a.474.474,0,0,0-.642.168l-2.124,3.679,1.84,1.064-3.7,6.411c8.712,8.281,5.872,20.965-3.878,25.794h9.983v2.727H263.459v-2.727Z" transform="translate(-18086.793 -1570.502)" fill="#46b22c" fill-rule="evenodd"/><path d="M282.156,339.6l-.483.862a25.049,25.049,0,0,1,5.747,36.074H247.783A25.071,25.071,0,0,1,277.08,338l.474-.862a26.053,26.053,0,0,0-30.245,40.4H287.92a26.045,26.045,0,0,0-5.752-37.914" transform="translate(-18074.563 -1571.494)" fill="#46b22c" fill-rule="evenodd"/><text transform="translate(-17766 -1208)" fill="#212121" font-size="14" font-family="SegoeUI-Semibold, Segoe UI" font-weight="600"><tspan x="0" y="0">Դավիդյանց Լաբորատորիաներ</tspan></text></g></svg>