<svg xmlns="http://www.w3.org/2000/svg" width="27.848" height="25.419" viewBox="0 0 27.848 25.419"><g transform="translate(0 0)"><path d="M.751,89.243H18.717l-3.859-4.449a.753.753,0,0,1,1.136-.987l4.863,5.6a.751.751,0,0,1-.035,1.187l-4.864,4.864A.751.751,0,1,1,14.895,94.4l3.655-3.653H.751a.752.752,0,0,1,0-1.5Zm0,0" transform="translate(6.717 -77.286)" fill="#6bfcbb"/><path d="M159.28.148h10.092a2.994,2.994,0,0,1,3.015,2.974V5.809a.752.752,0,0,1-1.5,0V3.129a1.489,1.489,0,0,0-1.5-1.477h-10.1A1.465,1.465,0,0,0,157.8,3.1V22.576a1.473,1.473,0,0,0,1.458,1.486h10.117a1.5,1.5,0,0,0,1.511-1.482V19.951a.752.752,0,1,1,1.5,0v2.625a3,3,0,0,1-3.014,2.991H159.28a2.979,2.979,0,0,1-2.986-2.97V3.129A2.97,2.97,0,0,1,159.252.148h.028Zm0,0" transform="translate(-156.293 -0.147)" fill="#212121"/></g></svg>