<svg xmlns="http://www.w3.org/2000/svg" width="26.66" height="26.657" viewBox="0 0 26.66 26.657"><g transform="translate(0 -0.18)"><path d="M231.558,29.9a.732.732,0,0,0-1.035,1.035l6.141,6.141a.721.721,0,0,0,.521.213.752.752,0,0,0,.521-.213.731.731,0,0,0,0-1.034Zm0,0" transform="translate(-213.412 -27.339)" fill="#8f8e9a"/><path d="M23.6,1.253a3.671,3.671,0,0,0-5.188,0L3.259,16.4c-.007.007-.007.015-.015.015-.015.022-.037.044-.051.066s-.007.007-.007.015-.022.037-.037.059-.007.015-.015.022-.015.037-.022.059-.007.007-.007.015L.039,25.876a.722.722,0,0,0,.176.748.739.739,0,0,0,.521.213A.868.868,0,0,0,.97,26.8l9.216-3.074c.007,0,.007,0,.015-.007a.262.262,0,0,0,.066-.03.024.024,0,0,0,.015-.007c.022-.015.051-.03.073-.044s.044-.037.066-.051.015-.007.015-.015.022-.015.03-.03L25.586,8.421a3.671,3.671,0,0,0,0-5.187Zm-21.7,23.7,2.23-6.7,4.461,4.461ZM24.552,7.394,9.951,22,4.844,16.9,19.453,2.287a2.2,2.2,0,0,1,3.111,0l2,2a2.208,2.208,0,0,1-.007,3.111Zm0,0" transform="translate(0)" fill="#8f8e9a"/></g></svg>