<svg xmlns="http://www.w3.org/2000/svg" width="25.589" height="29.315" viewBox="0 0 25.589 29.315"><g transform="translate(0 0)"><path d="M111.744,205.708a6.559,6.559,0,0,1-5.389-2.812.621.621,0,0,1,1.012-.72,5.322,5.322,0,0,0,8.341.516,5.29,5.29,0,0,0,0-7.321,5.274,5.274,0,0,0-3.964-1.774,5.565,5.565,0,0,0-3.724,1.5l1.984-.042a.621.621,0,0,1,.035,1.242h-.008l-3.24.069a.621.621,0,0,1-.768-.769l.069-3.239a.621.621,0,0,1,1.242.026l-.036,1.686a6.67,6.67,0,1,1,4.446,11.636Zm0,0" transform="translate(-99.415 -179.842)" fill="#8f8e9a"/><path d="M22.453,3.23H17.639V3.112A3.135,3.135,0,0,0,14.509,0h-3.43A3.135,3.135,0,0,0,7.95,3.112V3.23H3.136A3.142,3.142,0,0,0,0,6.343V9.058a.657.657,0,0,0,.652.631H2.36V26.2a3.091,3.091,0,0,0,3.078,3.112h13.47c1.493,0,4.32-1.216,4.32-3.112V9.689h1.708a.657.657,0,0,0,.652-.631V6.343A3.142,3.142,0,0,0,22.453,3.23ZM9.192,3.112a1.892,1.892,0,0,1,1.887-1.87h3.43A1.892,1.892,0,0,1,16.4,3.112V3.23h-7.2ZM21.986,26.2c0,.379-.377.838-1.03,1.225a4.482,4.482,0,0,1-2.048.644H5.438A1.848,1.848,0,0,1,3.6,26.2V9.689H21.986Zm2.36-17.757H1.242v-2.1A1.9,1.9,0,0,1,3.136,4.472H22.453a1.9,1.9,0,0,1,1.894,1.871Zm0,0" transform="translate(0)" fill="#8f8e9a"/></g></svg>