<svg xmlns="http://www.w3.org/2000/svg" width="110.703" height="94.999" viewBox="0 0 110.703 94.999">
  <g id="Group_725" data-name="Group 725" transform="translate(-1436.396 -781)">
    <g id="Group_719" data-name="Group 719" transform="translate(1469.081 781)">
      <path id="Path_3105" data-name="Path 3105" d="M38.062.389C27.508-1.416,4.256,2.7.141,20.3c-2.736,11.7,35.017,68.778,55,7.249C58.023,15.344,51.637,2.711,38.062.389Z" transform="matrix(0.602, 0.799, -0.799, 0.602, 44.422, 0)" fill="#dcdcdc" opacity="0.5"/>
      <g id="Group_718" data-name="Group 718" transform="translate(61.922 32.969)" opacity="0.4">
        <g id="Group_31" data-name="Group 31" transform="translate(1.783)">
          <path id="Path_62" data-name="Path 62" d="M435.814,308.7a.737.737,0,0,1-.737-.737v-.022a.737.737,0,0,1,1.474,0v.022A.737.737,0,0,1,435.814,308.7Z" transform="translate(-435.077 -307.201)" fill="#08a66d"/>
          <path id="Path_63" data-name="Path 63" d="M435.814,336.481a.737.737,0,0,1-.737-.737v-.022a.737.737,0,0,1,1.474,0v.022A.737.737,0,0,1,435.814,336.481Z" transform="translate(-435.077 -330.891)" fill="#08a66d"/>
        </g>
        <g id="Group_32" data-name="Group 32" transform="translate(0 1.029)">
          <path id="Path_64" data-name="Path 64" d="M423.735,315.669a.732.732,0,0,1-.368-.1l-.019-.011a.737.737,0,1,1,.738-1.275l.019.011a.737.737,0,0,1-.37,1.375Z" transform="translate(-422.98 -314.184)" fill="#08a66d"/>
          <path id="Path_65" data-name="Path 65" d="M447.8,329.561a.733.733,0,0,1-.369-.1l-.019-.011a.737.737,0,1,1,.738-1.275l.019.011a.737.737,0,0,1-.37,1.375Z" transform="translate(-443.495 -326.029)" fill="#08a66d"/>
        </g>
        <g id="Group_33" data-name="Group 33" transform="translate(0 1.029)">
          <path id="Path_66" data-name="Path 66" d="M423.718,329.561a.737.737,0,0,1-.37-1.375l.019-.011a.737.737,0,0,1,.738,1.275l-.019.011A.735.735,0,0,1,423.718,329.561Z" transform="translate(-422.98 -326.029)" fill="#08a66d"/>
          <path id="Path_67" data-name="Path 67" d="M447.78,315.668a.737.737,0,0,1-.37-1.375l.019-.011a.737.737,0,0,1,.738,1.275l-.019.011A.734.734,0,0,1,447.78,315.668Z" transform="translate(-443.496 -314.183)" fill="#08a66d"/>
        </g>
      </g>
      <path id="Path_3106" data-name="Path 3106" d="M414.818,258.173a.737.737,0,0,1-.737-.737.934.934,0,0,0-.933-.933.737.737,0,1,1,0-1.474.934.934,0,0,0,.933-.933.737.737,0,1,1,1.474,0,.934.934,0,0,0,.933.933.737.737,0,0,1,0,1.474.934.934,0,0,0-.933.933A.737.737,0,0,1,414.818,258.173Z" transform="translate(-356.056 -212.392)" fill="#08a66d" opacity="0.4"/>
    </g>
    <rect id="Rectangle_1232" data-name="Rectangle 1232" width="110.395" height="94.846" transform="translate(1436.396 781.153)" fill="none"/>
    <g id="Group_720" data-name="Group 720" transform="translate(1468.875 805.345)">
      <path id="Path_3102" data-name="Path 3102" d="M21.518,15.057s6.431-1.8,8.039-3.782S32.583,5.809,31.921,4.3s-8.64-.225-11.667-1.455S16.6.21,13.29.02,5.449.95,3.084,4.733-.235,11.087.048,19.031.616,40.877,1.184,40.782s8.512-1.607,14.281.947,10.214,10.307,11.917,9.079,3.809-3.61,5.89-5.124,7.162-5.281,6.311-6.322-3.406,0-13.052-6.714-6.83-5.3-8.249-6.15-4.447-.476-5.582-2.179S9.966,20.279,9.087,14.259s-.41-4.311.424-.215,1.934,6.1,3.571,7.983a5.141,5.141,0,0,0,2.976,1.636c1.492.4,4.277-.008,5.459-2.079C23.031,18.936,21.518,15.057,21.518,15.057Z" transform="translate(2.666 0) rotate(3)" fill="#08a66d"/>
      <path id="Path_3103" data-name="Path 3103" d="M-6154.535-8468.9s-5.7-.5-6.1.338.672,1.846-.783,4.252-14.6,11.131-12.643,12.082,8.446-.057,10.013-.56,4.252.953,5.314,2.966,12.017-8.658,13.874-13.426-.168-10.182-1.4-12.418,2.349-4.477,1.119-6.1-4.644.336-4.7.28.392-3.634-.335-3.411a5.085,5.085,0,0,0-2.741,2.07c-.447,1.006-2.8.436-4.251,1.061-2.094,1.242-2.262,2.054-4.1,2.535.073.006-.046.007-.147-.016a2.047,2.047,0,0,0-1.9.3,10.05,10.05,0,0,0,.11,4.955,5.334,5.334,0,0,0,3.971,3.694C-6156.771-8469.564-6154.535-8468.9-6154.535-8468.9Z" transform="translate(6197.398 8501.541)" fill="#08a66d"/>
    </g>
    <path id="Union_3" data-name="Union 3" d="M23.974,75.423A39.265,39.265,0,0,1,52.162,2.172,36.207,36.207,0,0,0,9.492,50.987c3.068-.245,16.706-1.033,21.68,3.861,5.62,5.529,5.8,4.985,9.336,6.617s9.97,0,9.97,0,1.541-.271,1.45,1.813a15.241,15.241,0,0,1-.544,3.535A19.093,19.093,0,0,0,61.9,62.824c4.895-3.9,7.886-7.524,9.971-7.977a5.6,5.6,0,0,1,3.376.164,14.813,14.813,0,0,1-1.924,3.759A39.3,39.3,0,0,1,23.974,75.423Z" transform="translate(1453.309 788.063)" fill="#b3edd8" stroke="#08a66d" stroke-width="1"/>
  </g>
</svg>
