<svg xmlns="http://www.w3.org/2000/svg" width="82.312" height="82.168" viewBox="0 0 82.312 82.168">
  <g id="Group_597" data-name="Group 597" transform="translate(-347.647 -800.902)">
    <path id="Path_27" data-name="Path 27" d="M67.252.777C58.3-.754,38.588,2.735,35.1,17.66c-2.32,9.923-2.252,18.018-8.107,18.17-3.484.09-5.3-7.124-10.11-7.717C10.6,27.338,6.247,32.565,3.528,37.3-2.453,47.712-.583,65.419,7.283,74.055,26.332,94.968,48.953,73.1,58.624,56c6.2-10.966,20.2-19.831,23.113-32.193C84.177,13.457,78.763,2.746,67.252.777Z" transform="translate(347.646 800.455)" fill="#dcdcdc" opacity="0.5"/>
    <g id="Group_8" data-name="Group 8" transform="translate(366.204 814.515)" opacity="0.1">
      <path id="Path_28" data-name="Path 28" d="M132.776,85.127H117.7a2.227,2.227,0,0,0,0,4.454h.5v50.681a7.041,7.041,0,0,0,14.081,0V89.58h.5a2.227,2.227,0,0,0,0-4.454Z" transform="translate(-115.471 -85.127)" fill="#6bfcbb"/>
      <path id="Path_29" data-name="Path 29" d="M300.078,85.127H285a2.227,2.227,0,0,0,0,4.454h.5v50.681a7.041,7.041,0,1,0,14.081,0V89.58h.5a2.227,2.227,0,0,0,0-4.454Z" transform="translate(-255.877 -85.127)" fill="#6bfcbb"/>
    </g>
    <g id="Group_10" data-name="Group 10" transform="translate(366.328 810.496)">
      <path id="Path_30" data-name="Path 30" d="M139.463,136.534a7.041,7.041,0,0,1-7.041-7.041V77.086H146.5v52.408a7.041,7.041,0,0,1-7.041,7.041Z" transform="translate(-129.697 -74.36)" fill="#fff"/>
      <path id="Path_31" data-name="Path 31" d="M146.505,215.463v30.161a7.041,7.041,0,1,1-14.081,0V215.463Z" transform="translate(-129.699 -190.49)" fill="#04c27e" opacity="0.4"/>
      <path id="Path_32" data-name="Path 32" d="M155.057,271.659v21.121a7,7,0,0,1-.661,2.979,12.055,12.055,0,0,1,.273-24.107c.13,0,.259,0,.387.006Z" transform="translate(-138.25 -237.647)" fill="#fff"/>
      <path id="Path_33" data-name="Path 33" d="M197.074,332.079a4.846,4.846,0,0,0,0,9.649Z" transform="translate(-180.267 -288.358)" fill="#04c27e" opacity="0.4"/>
      <g id="Group_9" data-name="Group 9">
        <path id="Path_34" data-name="Path 34" d="M138.564,292.769a3.982,3.982,0,0,1-6.14,3.347v-6.7a3.982,3.982,0,0,1,6.14,3.349Z" transform="translate(-129.699 -252.025)" fill="#fff"/>
        <path id="Path_35" data-name="Path 35" d="M132.422,267.308a3.673,3.673,0,0,0,0-7.315Z" transform="translate(-129.697 -227.862)" fill="#fff"/>
        <path id="Path_36" data-name="Path 36" d="M132.776,64.581H117.7a2.227,2.227,0,0,1,0-4.454h15.078a2.227,2.227,0,1,1,0,4.454Z" transform="translate(-115.471 -60.127)" fill="#fff"/>
      </g>
    </g>
    <g id="Group_11" data-name="Group 11" transform="translate(376.924 825.144)">
      <path id="Path_37" data-name="Path 37" d="M184.049,152.854h-1.861a.8.8,0,1,1,0-1.608h1.861a.8.8,0,0,1,0,1.608Z" transform="translate(-181.385 -151.246)" fill="#08a66d"/>
    </g>
    <g id="Group_12" data-name="Group 12" transform="translate(376.924 831.266)">
      <path id="Path_38" data-name="Path 38" d="M184.049,190.932h-1.861a.8.8,0,1,1,0-1.608h1.861a.8.8,0,1,1,0,1.608Z" transform="translate(-181.385 -189.324)" fill="#08a66d"/>
    </g>
    <g id="Group_13" data-name="Group 13" transform="translate(376.924 837.388)">
      <path id="Path_39" data-name="Path 39" d="M184.049,229.011h-1.861a.8.8,0,1,1,0-1.608h1.861a.8.8,0,1,1,0,1.608Z" transform="translate(-181.385 -227.403)" fill="#08a66d"/>
    </g>
    <g id="Group_14" data-name="Group 14" transform="translate(376.924 843.51)">
      <path id="Path_40" data-name="Path 40" d="M184.049,267.089h-1.861a.8.8,0,1,1,0-1.608h1.861a.8.8,0,0,1,0,1.608Z" transform="translate(-181.385 -265.481)" fill="#08a66d"/>
    </g>
    <g id="Group_15" data-name="Group 15" transform="translate(376.924 849.631)">
      <path id="Path_41" data-name="Path 41" d="M184.049,305.168h-1.861a.8.8,0,1,1,0-1.608h1.861a.8.8,0,1,1,0,1.608Z" transform="translate(-181.385 -303.56)" fill="#08a66d"/>
    </g>
    <g id="Group_16" data-name="Group 16" transform="translate(376.924 855.753)">
      <path id="Path_42" data-name="Path 42" d="M184.049,343.246h-1.861a.8.8,0,1,1,0-1.608h1.861a.8.8,0,0,1,0,1.608Z" transform="translate(-181.385 -341.638)" fill="#08a66d"/>
    </g>
    <g id="Group_17" data-name="Group 17" transform="translate(376.924 861.875)">
      <path id="Path_43" data-name="Path 43" d="M184.049,381.325h-1.861a.8.8,0,1,1,0-1.608h1.861a.8.8,0,0,1,0,1.608Z" transform="translate(-181.385 -379.717)" fill="#08a66d"/>
    </g>
    <g id="Group_21" data-name="Group 21" transform="translate(365.399 809.693)">
      <path id="Path_44" data-name="Path 44" d="M306.766,136.534a7.041,7.041,0,0,1-7.041-7.041V77.086h14.081v52.408a7.041,7.041,0,0,1-7.041,7.041Z" transform="translate(-269.299 -73.556)" fill="#fff"/>
      <path id="Path_45" data-name="Path 45" d="M313.811,215.46v30.161a7.041,7.041,0,1,1-14.081,0V215.46Z" transform="translate(-269.303 -189.684)" fill="#04c27e" opacity="0.4"/>
      <path id="Path_46" data-name="Path 46" d="M333.676,183.386v5.151H323.4a12.043,12.043,0,0,1,9.889-5.157C333.419,183.38,333.547,183.382,333.676,183.386Z" transform="translate(-289.168 -162.761)" fill="#04c27e" opacity="0.4"/>
      <path id="Path_47" data-name="Path 47" d="M322.363,215.46v15.97a7,7,0,0,1-.661,2.979,12.056,12.056,0,0,1-9.615-18.949Z" transform="translate(-277.855 -189.684)" fill="#fff"/>
      <path id="Path_48" data-name="Path 48" d="M368,200.98v2.328h-3.7A4.838,4.838,0,0,1,368,200.98Z" transform="translate(-323.493 -177.532)" fill="#fff"/>
      <path id="Path_49" data-name="Path 49" d="M364.375,215.46v7.321a4.847,4.847,0,0,1-4.4-4.825,4.8,4.8,0,0,1,.694-2.5Z" transform="translate(-319.867 -189.684)" fill="#04c27e" opacity="0.4"/>
      <g id="Group_19" data-name="Group 19" transform="translate(27.701 0.804)">
        <path id="Path_50" data-name="Path 50" d="M305.866,350.461a3.982,3.982,0,0,1-6.14,3.347v-6.7a3.982,3.982,0,0,1,6.14,3.349Z" transform="translate(-297.001 -300.442)" fill="#fff"/>
        <path id="Path_51" data-name="Path 51" d="M299.724,325a3.673,3.673,0,0,0,0-7.314Z" transform="translate(-296.999 -276.28)" fill="#fff"/>
        <path id="Path_52" data-name="Path 52" d="M300.078,64.581H285a2.227,2.227,0,0,1,0-4.454h15.078a2.227,2.227,0,0,1,0,4.454Z" transform="translate(-282.774 -60.127)" fill="#fff"/>
      </g>
      <g id="Group_20" data-name="Group 20" transform="translate(0)">
        <path id="Path_53" data-name="Path 53" d="M128.579,55.127H120.6a.8.8,0,1,0,0,1.608h7.977a1.423,1.423,0,1,1,0,2.846H113.5a1.423,1.423,0,1,1,0-2.846h2.423a.8.8,0,0,0,0-1.608H113.5a3.031,3.031,0,0,0-.306,6.046v49.892a7.844,7.844,0,0,0,15.689,0V61.173a3.031,3.031,0,0,0-.305-6.046ZM121.04,117.3a6.244,6.244,0,0,1-6.237-6.237V61.188h12.473v49.877A6.244,6.244,0,0,1,121.04,117.3Z" transform="translate(-110.47 -55.127)" fill="#08a66d"/>
        <path id="Path_54" data-name="Path 54" d="M298.912,58.158a3.034,3.034,0,0,0-3.031-3.031H280.8a3.031,3.031,0,1,0,0,6.061h13.776v49.877a6.237,6.237,0,1,1-12.473,0v-46a.8.8,0,1,0-1.608,0v46a7.844,7.844,0,0,0,15.689,0V61.173a3.035,3.035,0,0,0,2.725-3.015Zm-3.031,1.423H280.8a1.423,1.423,0,1,1,0-2.846h15.078a1.423,1.423,0,1,1,0,2.846Z" transform="translate(-250.876 -55.127)" fill="#08a66d"/>
      </g>
    </g>
    <g id="Group_22" data-name="Group 22" transform="translate(403.567 825.145)">
      <path id="Path_55" data-name="Path 55" d="M351.353,152.854h-1.861a.8.8,0,1,1,0-1.608h1.861a.8.8,0,0,1,0,1.608Z" transform="translate(-348.688 -151.246)" fill="#08a66d"/>
    </g>
    <g id="Group_23" data-name="Group 23" transform="translate(403.567 831.266)">
      <path id="Path_56" data-name="Path 56" d="M351.353,190.932h-1.861a.8.8,0,1,1,0-1.608h1.861a.8.8,0,0,1,0,1.608Z" transform="translate(-348.688 -189.324)" fill="#08a66d"/>
    </g>
    <g id="Group_24" data-name="Group 24" transform="translate(403.567 837.388)">
      <path id="Path_57" data-name="Path 57" d="M351.353,229.011h-1.861a.8.8,0,1,1,0-1.608h1.861a.8.8,0,0,1,0,1.608Z" transform="translate(-348.688 -227.403)" fill="#08a66d"/>
    </g>
    <g id="Group_25" data-name="Group 25" transform="translate(403.567 843.51)">
      <path id="Path_58" data-name="Path 58" d="M351.353,267.089h-1.861a.8.8,0,0,1,0-1.608h1.861a.8.8,0,0,1,0,1.608Z" transform="translate(-348.688 -265.481)" fill="#08a66d"/>
    </g>
    <g id="Group_26" data-name="Group 26" transform="translate(403.567 849.632)">
      <path id="Path_59" data-name="Path 59" d="M351.353,305.168h-1.861a.8.8,0,1,1,0-1.608h1.861a.8.8,0,0,1,0,1.608Z" transform="translate(-348.688 -303.56)" fill="#08a66d"/>
    </g>
    <g id="Group_27" data-name="Group 27" transform="translate(403.567 855.753)">
      <path id="Path_60" data-name="Path 60" d="M351.353,343.246h-1.861a.8.8,0,0,1,0-1.608h1.861a.8.8,0,0,1,0,1.608Z" transform="translate(-348.688 -341.638)" fill="#08a66d"/>
    </g>
    <g id="Group_28" data-name="Group 28" transform="translate(403.567 861.875)">
      <path id="Path_61" data-name="Path 61" d="M351.353,381.325h-1.861a.8.8,0,0,1,0-1.608h1.861a.8.8,0,0,1,0,1.608Z" transform="translate(-348.688 -379.717)" fill="#08a66d"/>
    </g>
    <g id="Group_34" data-name="Group 34" transform="translate(415.401 850.217)" opacity="0.4">
      <g id="Group_31" data-name="Group 31" transform="translate(1.945)">
        <path id="Path_62" data-name="Path 62" d="M435.881,308.833a.8.8,0,0,1-.8-.8V308a.8.8,0,1,1,1.608,0v.024A.8.8,0,0,1,435.881,308.833Z" transform="translate(-435.077 -307.201)" fill="#08a66d"/>
        <path id="Path_63" data-name="Path 63" d="M435.881,336.617a.8.8,0,0,1-.8-.8v-.024a.8.8,0,0,1,1.608,0v.024A.8.8,0,0,1,435.881,336.617Z" transform="translate(-435.077 -330.518)" fill="#08a66d"/>
      </g>
      <g id="Group_32" data-name="Group 32" transform="translate(0 1.123)">
        <path id="Path_64" data-name="Path 64" d="M423.8,315.8a.8.8,0,0,1-.4-.108l-.021-.012a.8.8,0,1,1,.806-1.391l.021.012a.8.8,0,0,1-.4,1.5Z" transform="translate(-422.98 -314.184)" fill="#08a66d"/>
        <path id="Path_65" data-name="Path 65" d="M447.865,329.7a.8.8,0,0,1-.4-.108l-.021-.012a.8.8,0,0,1,.806-1.391l.021.012a.8.8,0,0,1-.4,1.5Z" transform="translate(-443.173 -325.842)" fill="#08a66d"/>
      </g>
      <g id="Group_33" data-name="Group 33" transform="translate(0 1.123)">
        <path id="Path_66" data-name="Path 66" d="M423.785,329.7a.8.8,0,0,1-.4-1.5l.021-.012a.8.8,0,0,1,.805,1.391l-.021.012A.8.8,0,0,1,423.785,329.7Z" transform="translate(-422.98 -325.843)" fill="#08a66d"/>
        <path id="Path_67" data-name="Path 67" d="M447.847,315.8a.8.8,0,0,1-.4-1.5l.021-.012a.8.8,0,0,1,.806,1.391l-.021.012A.8.8,0,0,1,447.847,315.8Z" transform="translate(-443.174 -314.183)" fill="#08a66d"/>
      </g>
    </g>
    <path id="Path_68" data-name="Path 68" d="M415.037,258.611a.8.8,0,0,1-.8-.8,1.019,1.019,0,0,0-1.018-1.018.8.8,0,1,1,0-1.608,1.019,1.019,0,0,0,1.018-1.018.8.8,0,1,1,1.608,0,1.019,1.019,0,0,0,1.018,1.018.8.8,0,0,1,0,1.608,1.019,1.019,0,0,0-1.018,1.018A.8.8,0,0,1,415.037,258.611Z" transform="translate(1.307 588.202)" fill="#08a66d" opacity="0.4"/>
    <path id="Path_69" data-name="Path 69" d="M81.645,121.471a.8.8,0,0,1-.8-.8,1.019,1.019,0,0,0-1.018-1.018.8.8,0,1,1,0-1.608,1.019,1.019,0,0,0,1.018-1.018.8.8,0,0,1,1.608,0,1.019,1.019,0,0,0,1.018,1.018.8.8,0,1,1,0,1.608,1.019,1.019,0,0,0-1.018,1.018A.8.8,0,0,1,81.645,121.471Z" transform="translate(281.547 703.295)" fill="#08a66d" opacity="0.4"/>
    <path id="Path_70" data-name="Path 70" d="M252.844,395.142a.8.8,0,0,1-.8-.8,1.019,1.019,0,0,0-1.018-1.018.8.8,0,1,1,0-1.608,1.019,1.019,0,0,0,1.018-1.018.8.8,0,0,1,1.608,0,1.019,1.019,0,0,0,1.018,1.018.8.8,0,1,1,0,1.608,1.019,1.019,0,0,0-1.018,1.018A.8.8,0,0,1,252.844,395.142Z" transform="translate(137.642 473.621)" fill="#08a66d" opacity="0.4"/>
    <g id="Group_38" data-name="Group 38" transform="translate(356.707 825.497)" opacity="0.4">
      <g id="Group_35" data-name="Group 35" transform="translate(1.945)">
        <path id="Path_71" data-name="Path 71" d="M67.727,155.067a.8.8,0,0,1-.8-.8v-.024a.8.8,0,1,1,1.608,0v.024A.8.8,0,0,1,67.727,155.067Z" transform="translate(-66.923 -153.435)" fill="#08a66d"/>
        <path id="Path_72" data-name="Path 72" d="M67.727,182.852a.8.8,0,0,1-.8-.8v-.024a.8.8,0,1,1,1.608,0v.024A.8.8,0,0,1,67.727,182.852Z" transform="translate(-66.923 -176.753)" fill="#08a66d"/>
      </g>
      <g id="Group_36" data-name="Group 36" transform="translate(0 1.122)">
        <path id="Path_73" data-name="Path 73" d="M55.65,162.037a.8.8,0,0,1-.4-.108l-.021-.012a.8.8,0,0,1,.805-1.391l.021.012a.8.8,0,0,1-.4,1.5Z" transform="translate(-54.826 -160.417)" fill="#08a66d"/>
        <path id="Path_74" data-name="Path 74" d="M79.712,175.93a.8.8,0,0,1-.4-.108l-.021-.012a.8.8,0,0,1,.806-1.391l.021.012a.8.8,0,0,1-.4,1.5Z" transform="translate(-75.02 -172.076)" fill="#08a66d"/>
      </g>
      <g id="Group_37" data-name="Group 37" transform="translate(0 1.122)">
        <path id="Path_75" data-name="Path 75" d="M55.631,175.929a.8.8,0,0,1-.4-1.5l.021-.012a.8.8,0,0,1,.805,1.391l-.021.012A.8.8,0,0,1,55.631,175.929Z" transform="translate(-54.826 -172.076)" fill="#08a66d"/>
        <path id="Path_76" data-name="Path 76" d="M79.693,162.037a.8.8,0,0,1-.4-1.5l.021-.012a.8.8,0,0,1,.805,1.391l-.021.012A.8.8,0,0,1,79.693,162.037Z" transform="translate(-75.02 -160.417)" fill="#08a66d"/>
      </g>
    </g>
  </g>
</svg>
