<svg xmlns="http://www.w3.org/2000/svg" width="110.518" height="81.895" viewBox="0 0 110.518 81.895">
  <g id="Group_600" data-name="Group 600" transform="translate(-1154.609 -799.267)">
    <path id="Path_115" data-name="Path 115" d="M10.087,4.7C7.716,12.181,1.543,16.27.4,19.875S-.713,31.608,18.733,36.091s25.529-5.042,26.785-9.007C51.405,8.521,14.287-8.545,10.087,4.7Z" transform="translate(1221.802 854.691) rotate(-82)" fill="#dcdcdc" opacity="0.5"/>
    <g id="Group_509" data-name="Group 509" transform="translate(1203.573 832.425) rotate(-31)">
      <path id="Path_2969" data-name="Path 2969" d="M28.5,17.413c0,9.617-5.639,17.413-13.223,17.413S0,22.586,0,12.969,7.69,0,15.274,0,28.5,7.8,28.5,17.413Z" transform="translate(0 0)" fill="none" stroke="#08a66d" stroke-width="1.5"/>
    </g>
    <g id="Group_513" data-name="Group 513" transform="translate(1171.476 847.889) rotate(-31)" opacity="0.38">
      <path id="Path_2973" data-name="Path 2973" d="M32.328,29.365C26.194,38.235,12.8,39.6,5.156,34.314s-6.078-14.833.056-23.7S19.727-3.091,27.37,2.194,38.462,20.5,32.328,29.365Z" transform="translate(0 0)" fill="#04c27e"/>
    </g>
    <g id="Group_517" data-name="Group 517" transform="translate(1193.059 851.485) rotate(-31)">
      <path id="Path_2977" data-name="Path 2977" d="M7.685,6.98A4.888,4.888,0,0,1,1.226,8.157C-.591,6.9-.219,4.631,1.239,2.522s3.451-3.257,5.267-2A4.888,4.888,0,0,1,7.685,6.98Z" transform="translate(0 0)" fill="#fff"/>
    </g>
    <g id="Group_519" data-name="Group 519" transform="translate(1218.613 836.724) rotate(-31)">
      <path id="Path_2979" data-name="Path 2979" d="M7.718,4.716c0,2.6-1.527,4.716-3.581,4.716S0,6.117,0,3.513,2.083,0,4.137,0,7.718,2.112,7.718,4.716Z" transform="translate(0 0)" fill="#fff" stroke="#08a66d" stroke-width="1"/>
    </g>
    <g id="Group_543" data-name="Group 543" transform="translate(1155.652 829.265) rotate(-31)">
      <g id="Group_515" data-name="Group 515" transform="translate(0 0)">
        <path id="Path_2975" data-name="Path 2975" d="M28.248,6.126c8.3,6.88,12.013,16.107,5.86,23.534s-18.812,9-27.117,2.125S-2.117,12.172,4.035,4.745s15.908-5.5,24.213,1.381Z" fill="none" stroke="#08a66d" stroke-width="1.5"/>
      </g>
      <g id="Group_522" data-name="Group 522" transform="translate(11.843 12.739)">
        <path id="Path_2982" data-name="Path 2982" d="M8.149,1.767c2.4,1.985,3.465,4.647,1.69,6.789a5.708,5.708,0,0,1-7.822.613,5.708,5.708,0,0,1-.853-7.8c1.775-2.142,4.589-1.587,6.985.4Z" transform="translate(0 0)" fill="#fff" stroke="#08a66d" stroke-width="1"/>
      </g>
    </g>
    <g id="Group_524" data-name="Group 524" transform="translate(1217.08 854.903) rotate(-31)">
      <path id="Path_2984" data-name="Path 2984" d="M5.651,4.432C11.146-.577,17.316-2.754,24.946,5.616s4.892,14.313-.6,19.322-16.36,6.509-21.521.846S.157,9.441,5.651,4.432Z" transform="translate(0 0)" fill="rgba(4,194,126,0.23)" stroke="#08a66d" stroke-width="1.5"/>
    </g>
    <g id="Group_527" data-name="Group 527" transform="translate(1230.261 859.062) rotate(-31)">
      <path id="Path_2987" data-name="Path 2987" d="M1.924,1.509C3.8-.2,5.9-.938,8.495,1.912s1.666,4.874-.2,6.58S2.719,10.708.961,8.78.054,3.215,1.924,1.509Z" transform="translate(0 0)" fill="#fff" stroke="#08a66d" stroke-width="1"/>
    </g>
    <g id="Group_541" data-name="Group 541" transform="translate(1209.238 802.202) rotate(68)">
      <path id="Path_2975-2" data-name="Path 2975" d="M21.966,4.763c6.458,5.35,9.341,12.525,4.557,18.3s-14.629,7-21.086,1.652S-1.646,9.465,3.138,3.69,15.508-.586,21.966,4.763Z" transform="translate(0 0)" fill="rgba(4,194,126,0.23)" stroke="#08a66d" stroke-width="1.5"/>
    </g>
    <g id="Group_542" data-name="Group 542" transform="translate(1203.504 814.451) rotate(68)">
      <path id="Path_2982-2" data-name="Path 2982" d="M6.336,1.374C8.2,2.917,9.031,4.987,7.651,6.653a4.438,4.438,0,0,1-6.083.477A4.438,4.438,0,0,1,.905,1.065C2.285-.6,4.474-.169,6.336,1.374Z" transform="translate(0 0)" fill="#fff" stroke="#08a66d" stroke-width="1"/>
    </g>
    <g id="Group_544" data-name="Group 544" transform="translate(1198.703 862.015) rotate(-31)">
      <g id="Group_515-2" data-name="Group 515" transform="translate(0 0)">
        <path id="Path_2975-3" data-name="Path 2975" d="M16.2,3.513c4.762,3.945,6.889,9.237,3.361,13.5a11.346,11.346,0,0,1-15.55,1.218,11.346,11.346,0,0,1-1.7-15.506C5.842-1.537,11.437-.432,16.2,3.513Z" fill="none" stroke="#08a66d" stroke-width="1.5"/>
      </g>
      <g id="Group_522-2" data-name="Group 522" transform="translate(6.791 7.305)">
        <path id="Path_2982-3" data-name="Path 2982" d="M4.673,1.013c1.374,1.138,1.987,2.665.969,3.893a3.273,3.273,0,0,1-4.486.352A3.273,3.273,0,0,1,.668.785C1.685-.444,3.3-.125,4.673,1.013Z" transform="translate(0 0)" fill="#fff" stroke="#08a66d" stroke-width="1"/>
      </g>
    </g>
    <g id="Group_546" data-name="Group 546" transform="translate(1237.403 822.349) rotate(174)">
      <path id="Path_2975-4" data-name="Path 2975" d="M17.469,3.788c5.136,4.255,7.429,9.961,3.624,14.554S9.459,23.911,4.324,19.656-1.309,7.527,2.5,2.935s9.838-3.4,14.974.854Z" transform="translate(0 0)" fill="rgba(4,194,126,0.23)" stroke="#08a66d" stroke-width="1.5"/>
    </g>
    <g id="Group_547" data-name="Group 547" transform="translate(1229.296 815.28) rotate(174)">
      <path id="Path_2982-4" data-name="Path 2982" d="M5.039,1.093c1.481,1.227,2.143,2.873,1.045,4.2a3.53,3.53,0,0,1-4.838.379A3.53,3.53,0,0,1,.72.847C1.817-.478,3.558-.135,5.039,1.093Z" transform="translate(0 0)" fill="#fff" stroke="#08a66d" stroke-width="1"/>
    </g>
    <g id="Group_583" data-name="Group 583" transform="translate(1247.178 825.222)" opacity="0.4">
      <g id="Group_31" data-name="Group 31" transform="translate(1.943)">
        <path id="Path_62" data-name="Path 62" d="M435.88,308.831a.8.8,0,0,1-.8-.8V308a.8.8,0,0,1,1.606,0v.024A.8.8,0,0,1,435.88,308.831Z" transform="translate(-435.077 -307.201)" fill="#08a66d"/>
        <path id="Path_63" data-name="Path 63" d="M435.88,336.615a.8.8,0,0,1-.8-.8v-.024a.8.8,0,1,1,1.606,0v.024A.8.8,0,0,1,435.88,336.615Z" transform="translate(-435.077 -330.523)" fill="#08a66d"/>
      </g>
      <g id="Group_32" data-name="Group 32" transform="translate(0 1.122)">
        <path id="Path_64" data-name="Path 64" d="M423.8,315.8a.8.8,0,0,1-.4-.108l-.021-.012a.8.8,0,0,1,.8-1.39l.021.012a.8.8,0,0,1-.4,1.5Z" transform="translate(-422.98 -314.184)" fill="#08a66d"/>
        <path id="Path_65" data-name="Path 65" d="M447.864,329.694a.8.8,0,0,1-.4-.108l-.021-.012a.8.8,0,0,1,.8-1.39l.021.012a.8.8,0,0,1-.4,1.5Z" transform="translate(-443.177 -325.845)" fill="#08a66d"/>
      </g>
      <g id="Group_33" data-name="Group 33" transform="translate(0 1.121)">
        <path id="Path_66" data-name="Path 66" d="M423.784,329.695a.8.8,0,0,1-.4-1.5l.021-.012a.8.8,0,0,1,.8,1.39l-.021.012A.8.8,0,0,1,423.784,329.695Z" transform="translate(-422.98 -325.845)" fill="#08a66d"/>
        <path id="Path_67" data-name="Path 67" d="M447.846,315.8a.8.8,0,0,1-.4-1.5l.021-.012a.8.8,0,0,1,.8,1.39l-.021.012A.8.8,0,0,1,447.846,315.8Z" transform="translate(-443.178 -314.183)" fill="#08a66d"/>
      </g>
    </g>
  </g>
</svg>
