<svg xmlns="http://www.w3.org/2000/svg" width="89.501" height="89.657" viewBox="0 0 89.501 89.657">
  <g id="Group_599" data-name="Group 599" transform="translate(-898.104 -795.265)">
    <path id="Path_109" data-name="Path 109" d="M10.576,5.242C8.09,13.579,1.617,18.137.419,22.156S-.748,35.236,19.641,40.233s26.767-5.62,28.083-10.041C53.9,9.5,14.98-9.525,10.576,5.242Z" transform="translate(958.876 846.946) rotate(157)" fill="#dcdcdc" opacity="0.5"/>
    <path id="Path_79" data-name="Path 79" d="M22.8,276.68c-13.451-.136-17.44.378-21.812,4.75a3.383,3.383,0,0,0,4.785,4.785c2.515-2.515,5.126-2.888,17.12-2.766C22.873,281.087,22.839,278.964,22.8,276.68Z" transform="translate(898.917 577.841)" fill="none" stroke="#08a66d" stroke-width="1"/>
    <path id="Path_81" data-name="Path 81" d="M95.125,276.693c-1.181-.01-2.365-.021-3.41-.02l.005.3c.038,2.208.067,4.115.086,5.818,1.039,0,2.191.008,3.411.019C95.192,280.594,95.16,278.806,95.125,276.693Z" transform="translate(826.597 578.136)" fill="#04c27e" opacity="0.62"/>
    <path id="Path_82" data-name="Path 82" d="M54.193,297.939,45.454,289.2a3.383,3.383,0,1,0-4.785,4.785L53.325,306.64C53.917,304.864,54.146,302.3,54.193,297.939Z" transform="translate(867.631 568.736)" fill="#08a66d"/>
    <path id="Path_83" data-name="Path 83" d="M88.738,332.485l-.058-.058c-.8-.8-2.526-.384-3.848.937s-1.741,3.044-.937,3.848l3.975,3.975C88.463,339.41,88.691,336.844,88.738,332.485Z" transform="translate(833.086 534.19)" fill="#e6e6e6" opacity="0.5"/>
    <path id="Path_84" data-name="Path 84" d="M308.83,101.038c11.832.11,17.486-.421,21.817-4.752a3.383,3.383,0,0,0-4.785-4.785c-2.469,2.469-6.3,2.867-17.125,2.767Q308.764,97.267,308.83,101.038Z" transform="translate(655.467 724.63)" fill="none" stroke="#08a66d" stroke-width="1"/>
    <path id="Path_85" data-name="Path 85" d="M105.911,119.283c5.777-5.778,16.178-5.108,24.065-4.985-.044-2.462-.08-4.714-.1-6.768-8.379-.132-20.852-.932-28.751,6.967-13.672,13.672-1.951,44.962-9.627,52.639a3.383,3.383,0,0,0,4.785,4.785C107.134,161.071,94.7,130.491,105.911,119.283Z" transform="translate(827.549 711.276)" fill="rgba(4,194,126,0.32)" stroke="#08a66d" stroke-width="1"/>
    <path id="Path_86" data-name="Path 86" d="M308.783,50.059l8.692,8.692a3.383,3.383,0,0,0,4.785-4.785l-12.51-12.51C309.117,43.357,308.856,46.01,308.783,50.059Z" transform="translate(655.43 763.311)" fill="#08a66d"/>
    <path id="Path_87" data-name="Path 87" d="M201.363,149.068a27.228,27.228,0,0,0,1.971-7.994L188.1,126.01a3.661,3.661,0,0,0-5.138,0,3.562,3.562,0,0,0,0,5.08l17.751,17.551A3.474,3.474,0,0,0,201.363,149.068Z" transform="translate(754.013 696.066)" fill="#08a66d"/>
    <path id="Path_88" data-name="Path 88" d="M314.023,45.729l-4.273-4.273c-.632,1.9-.894,4.554-.967,8.6l.455.455c-.8-.8-.384-2.526.938-3.847S313.219,44.925,314.023,45.729Z" transform="translate(655.43 763.311)" fill="#e6e6e6" opacity="0.5"/>
    <path id="Path_91" data-name="Path 91" d="M175.74,35.047c-.325-20.555-.651-26.03,2.59-29.271A3.383,3.383,0,1,0,173.545.991c-5.536,5.536-4.9,13.1-4.571,34.149.125,9.038-1.486,14.92-5.072,18.506-5.75,5.75-16.119,5.089-24.057,4.97.035,2.322.07,4.324.094,6.768,8.415.128,20.871.924,28.749-6.954C173.652,53.466,175.892,46.035,175.74,35.047Z" transform="translate(788.644 796)" fill="#fff" stroke="#08a66d" stroke-width="1"/>
    <path id="Path_92" data-name="Path 92" d="M140.815,191.728l15.6,15.686a3.6,3.6,0,0,0,5.119,0,3.652,3.652,0,0,0,0-5.147l-18.657-18.758A27.337,27.337,0,0,0,140.815,191.728Z" transform="translate(787.88 651.296)" fill="#04c27e"/>
    <path id="Path_93" data-name="Path 93" d="M139.851,277.195s.027,4.021.036,6.121l3.6.055c-.008-1.851-.021-3.878-.036-6.114C143.005,277.241,140.27,277.21,139.851,277.195Z" transform="translate(788.844 577.724)" fill="#04c27e" opacity="0.62"/>
    <path id="Path_94" data-name="Path 94" d="M252.491,200.392l2.815,2.815a25.586,25.586,0,0,0,1.9-7.637c-.827-.726-2.485-.315-3.774.974C252.107,197.865,251.688,199.588,252.491,200.392Z" transform="translate(700.14 642.067)" fill="#e6e6e6" opacity="0.5"/>
    <path id="Path_95" data-name="Path 95" d="M142.439,187.987c1.321-1.321,3.044-1.741,3.847-.938l-3.543-3.543a25.292,25.292,0,0,0-1.929,7.641l.687.687C140.7,191.031,141.118,189.309,142.439,187.987Z" transform="translate(787.88 651.298)" fill="#e6e6e6" opacity="0.5"/>
    <g id="Group_582" data-name="Group 582" transform="translate(968.272 829.843)" opacity="0.4">
      <g id="Group_31" data-name="Group 31" transform="translate(2.069)">
        <path id="Path_62" data-name="Path 62" d="M435.932,308.937a.855.855,0,0,1-.855-.855v-.026a.855.855,0,0,1,1.71,0v.026A.855.855,0,0,1,435.932,308.937Z" transform="translate(-435.077 -307.201)" fill="#08a66d"/>
        <path id="Path_63" data-name="Path 63" d="M435.932,336.721a.855.855,0,0,1-.855-.855v-.026a.855.855,0,0,1,1.71,0v.026A.855.855,0,0,1,435.932,336.721Z" transform="translate(-435.077 -330.233)" fill="#08a66d"/>
      </g>
      <g id="Group_32" data-name="Group 32" transform="translate(0 1.194)">
        <path id="Path_64" data-name="Path 64" d="M423.857,315.908a.851.851,0,0,1-.428-.115l-.022-.013a.855.855,0,0,1,.857-1.48l.022.013a.855.855,0,0,1-.43,1.6Z" transform="translate(-422.98 -314.184)" fill="#08a66d"/>
        <path id="Path_65" data-name="Path 65" d="M447.918,329.8a.851.851,0,0,1-.428-.115l-.022-.013a.855.855,0,0,1,.857-1.48l.022.013a.855.855,0,0,1-.429,1.6Z" transform="translate(-442.925 -325.7)" fill="#08a66d"/>
      </g>
      <g id="Group_33" data-name="Group 33" transform="translate(0 1.194)">
        <path id="Path_66" data-name="Path 66" d="M423.836,329.8a.855.855,0,0,1-.429-1.6l.022-.013a.855.855,0,0,1,.857,1.48l-.022.013A.853.853,0,0,1,423.836,329.8Z" transform="translate(-422.98 -325.7)" fill="#08a66d"/>
        <path id="Path_67" data-name="Path 67" d="M447.9,315.907a.855.855,0,0,1-.429-1.6l.022-.013a.855.855,0,0,1,.857,1.48l-.022.013A.852.852,0,0,1,447.9,315.907Z" transform="translate(-442.926 -314.183)" fill="#08a66d"/>
      </g>
    </g>
    <path id="Path_3055" data-name="Path 3055" d="M415.2,258.946a.855.855,0,0,1-.855-.855,1.084,1.084,0,0,0-1.083-1.083.855.855,0,1,1,0-1.71,1.084,1.084,0,0,0,1.083-1.083.855.855,0,0,1,1.71,0,1.084,1.084,0,0,0,1.083,1.083.855.855,0,0,1,0,1.71,1.084,1.084,0,0,0-1.083,1.083A.855.855,0,0,1,415.2,258.946Z" transform="translate(493.534 591.914)" fill="#08a66d" opacity="0.4"/>
  </g>
</svg>
