<svg xmlns="http://www.w3.org/2000/svg" width="112.991" height="93.504" viewBox="0 0 112.991 93.504">
  <g id="Group_601" data-name="Group 601" transform="translate(-1428.849 -794.345)">
    <line id="Line_207" data-name="Line 207" y1="34.425" x2="42.482" transform="translate(1434.475 799.971)" fill="none" stroke="#08a66d" stroke-linecap="round" stroke-width="8"/>
    <line id="Line_208" data-name="Line 208" x1="42.482" y1="34.425" transform="translate(1476.865 799.971)" fill="none" stroke="#08a66d" stroke-linecap="round" stroke-width="8"/>
    <path id="Union_2" data-name="Union 2" d="M7,79.538a7,7,0,0,1-7-7V29.374a7,7,0,0,1,7-7H3.872L32.692,0l31.2,22.374H60.8a7,7,0,0,1,7,7V72.538a7,7,0,0,1-7,7Z" transform="translate(1443.563 800.216)" fill="rgba(8,166,109,0.32)"/>
    <path id="Path_3031" data-name="Path 3031" d="M11.006,5.455C8.418,14.131,1.683,18.873.436,23.055s-1.214,13.611,20,18.811,27.853-5.849,29.223-10.448C56.085,9.884,15.588-9.912,11.006,5.455Z" transform="matrix(-0.616, 0.788, -0.788, -0.616, 1515.977, 848.172)" fill="#fff" opacity="0.92"/>
    <g id="Group_585" data-name="Group 585" transform="translate(1471.507 815.614)">
      <g id="Group_31" data-name="Group 31" transform="translate(1.896)">
        <path id="Path_62" data-name="Path 62" d="M435.861,308.792a.784.784,0,0,1-.784-.784v-.023a.784.784,0,0,1,1.567,0v.023A.784.784,0,0,1,435.861,308.792Z" transform="translate(-435.077 -307.201)" fill="#fff"/>
        <path id="Path_63" data-name="Path 63" d="M435.861,336.576a.784.784,0,0,1-.784-.784v-.023a.784.784,0,0,1,1.567,0v.023A.784.784,0,0,1,435.861,336.576Z" transform="translate(-435.077 -330.631)" fill="#fff"/>
      </g>
      <g id="Group_32" data-name="Group 32" transform="translate(0 1.094)">
        <path id="Path_64" data-name="Path 64" d="M423.783,315.763a.779.779,0,0,1-.392-.106l-.02-.012a.784.784,0,1,1,.785-1.356l.02.012a.784.784,0,0,1-.394,1.462Z" transform="translate(-422.98 -314.184)" fill="#fff"/>
        <path id="Path_65" data-name="Path 65" d="M447.844,329.655a.78.78,0,0,1-.392-.106l-.02-.012a.784.784,0,0,1,.785-1.356l.02.012a.784.784,0,0,1-.393,1.462Z" transform="translate(-443.271 -325.899)" fill="#fff"/>
      </g>
      <g id="Group_33" data-name="Group 33" transform="translate(0 1.094)">
        <path id="Path_66" data-name="Path 66" d="M423.765,329.656a.784.784,0,0,1-.393-1.462l.02-.012a.784.784,0,0,1,.785,1.356l-.02.012A.781.781,0,0,1,423.765,329.656Z" transform="translate(-422.98 -325.899)" fill="#fff"/>
        <path id="Path_67" data-name="Path 67" d="M447.827,315.762a.784.784,0,0,1-.393-1.462l.02-.012a.784.784,0,0,1,.785,1.356l-.02.012A.781.781,0,0,1,447.827,315.762Z" transform="translate(-443.271 -314.183)" fill="#fff"/>
      </g>
    </g>
    <path id="Path_3059" data-name="Path 3059" d="M414.97,258.478a.784.784,0,0,1-.784-.784.994.994,0,0,0-.992-.992.784.784,0,1,1,0-1.567.994.994,0,0,0,.992-.992.784.784,0,0,1,1.567,0,.993.993,0,0,0,.992.992.784.784,0,0,1,0,1.567.993.993,0,0,0-.992.992A.784.784,0,0,1,414.97,258.478Z" transform="translate(1071.035 568.199)" fill="#08a66d" opacity="0.4"/>
    <path id="Path_3060" data-name="Path 3060" d="M414.97,258.478a.784.784,0,0,1-.784-.784.994.994,0,0,0-.992-.992.784.784,0,1,1,0-1.567.994.994,0,0,0,.992-.992.784.784,0,0,1,1.567,0,.993.993,0,0,0,.992.992.784.784,0,0,1,0,1.567.993.993,0,0,0-.992.992A.784.784,0,0,1,414.97,258.478Z" transform="translate(1036.827 616.092)" fill="#fff"/>
    <g id="Component_53_3" data-name="Component 53 – 3" transform="translate(1486.006 838.596)">
      <path id="Path_3043" data-name="Path 3043" d="M4.078,19.179a.917.917,0,0,1,.3-.192L8.573,12.7a5.594,5.594,0,0,1,4.664-2.52h5.749a5.585,5.585,0,0,1,5.593-5.538H35.61L36.175.779A.906.906,0,0,1,37.07,0h3.843a.906.906,0,0,1,.894.775l.565,3.859H54.967a.867.867,0,0,1,.865.9V34.347a.886.886,0,0,1-.865.92H50.815a6.763,6.763,0,0,1-13.415,0H19.911a6.764,6.764,0,0,1-13.415,0H.863A.885.885,0,0,1,0,34.347V25.528A5.6,5.6,0,0,1,1.689,21.5Zm9.158-7.195a3.769,3.769,0,0,0-3.158,1.69L6.6,18.879H18.986V11.984ZM40.131,1.812h-2.28l-.414,2.826h3.107Zm3.977,37.525a4.957,4.957,0,1,0-4.957-4.957A4.957,4.957,0,0,0,44.108,39.338Zm-30.9,0A4.957,4.957,0,1,0,8.246,34.38,4.957,4.957,0,0,0,13.2,39.338Zm-11.4-5.879H6.5a6.764,6.764,0,0,1,13.4,0H37.409a6.764,6.764,0,0,1,13.4,0h3.217V6.446H24.579a3.783,3.783,0,0,0-3.784,3.78v9.6a.867.867,0,0,1-.906.857H5.071L2.945,22.78a3.839,3.839,0,0,0-1.138,2.748Zm0,0" transform="translate(0.002 -0.004)" fill="#04c27e"/>
      <path id="Path_3044" data-name="Path 3044" d="M39.944,85.43a7.022,7.022,0,0,1,4.385,1.561h4a.638.638,0,1,1,0,1.276H45.541a6.992,6.992,0,0,1,1.243,2.951h6.4a.638.638,0,0,1,0,1.276h-6.3a7.151,7.151,0,0,1-.908,3.35H49.8a.638.638,0,1,1,0,1.276H45.039A6.951,6.951,0,1,1,39.944,85.43Zm0,12.608a5.664,5.664,0,1,0-5.664-5.664A5.664,5.664,0,0,0,39.944,98.038Zm0,0" transform="translate(-3.977 -72.987)" fill="#04c27e"/>
      <path id="Path_3062" data-name="Path 3062" d="M176.848,140.227h-1.509v-1.588a.635.635,0,0,0-1.271,0v1.588h-1.429a.635.635,0,1,0,0,1.271h1.429v1.35a.635.635,0,0,0,1.271,0V141.5h1.509a.635.635,0,1,0,0-1.271Zm0,0" transform="translate(-138.712 -121.349)" fill="#04c27e"/>
    </g>
  </g>
</svg>
