<svg xmlns="http://www.w3.org/2000/svg" width="113.971" height="98.724" viewBox="0 0 113.971 98.724">
  <g id="Group_598" data-name="Group 598" transform="translate(-617 -788.359)">
    <path id="Path_78" data-name="Path 78" d="M45.822.469C33.116-1.7,5.124,3.25.17,24.439c-3.294,14.089,42.156,82.8,66.219,8.727C69.853,18.472,62.165,3.264,45.822.469Z" transform="matrix(0.602, 0.799, -0.799, 0.602, 690.525, 788.359)" fill="#dcdcdc" opacity="0.5"/>
    <path id="Path_6" data-name="Path 6" d="M12.08,186.347a6.874,6.874,0,0,1,0-9.721l21.11-21.11a1.547,1.547,0,0,1,2.188,0l7.533,7.533a1.547,1.547,0,0,1,0,2.188L21.8,186.347A6.874,6.874,0,0,1,12.08,186.347Z" transform="translate(607.662 697.99)" fill="#04c27e" opacity="0.3"/>
    <circle id="Ellipse_2" data-name="Ellipse 2" cx="30.228" cy="30.228" r="30.228" transform="translate(643.703 799.921)" fill="#04c27e" opacity="0.3"/>
    <ellipse id="Ellipse_3" data-name="Ellipse 3" cx="22.668" cy="22.668" rx="22.668" ry="22.668" transform="translate(646.654 813.283) rotate(-13.3)" fill="#fff"/>
    <path id="Path_7" data-name="Path 7" d="M115.6,58.425l-3.333,12.438a3.98,3.98,0,0,0,2.814,4.874l.224.06a3.98,3.98,0,0,0,4.874-2.814l3.333-12.438a3.98,3.98,0,0,0-2.814-4.874l-.224-.06A3.98,3.98,0,0,0,115.6,58.425Z" transform="translate(542.997 761.084)" fill="#dcdcdc"/>
    <path id="Path_8" data-name="Path 8" d="M163.874,71.126a.917.917,0,0,0,.737-1.065l-.74-4.068h1.175a5.655,5.655,0,0,0,3.05-.892l2.056,2.056a.916.916,0,1,0,1.3-1.3l-1.981-1.981a5.662,5.662,0,0,0,1.268-3.577v-1.1H174.2a.916.916,0,1,0,0-1.832h-3.469V56.108a5.536,5.536,0,0,0-1.214-3.457l1.927-1.927a.916.916,0,0,0-1.3-1.3l-2,2a5.52,5.52,0,0,0-1.117-.544l-1.533-.542,1.93-4.047a.916.916,0,1,0-1.654-.789L164,49.25a2.927,2.927,0,0,1-.486-1.068,2.928,2.928,0,0,0-3.289-2.25l-.417-2.29a.916.916,0,0,0-1.818.163.9.9,0,0,0,.015.165l.414,2.275-.184.032A2.929,2.929,0,0,0,156,48.137l-.619,1.653-2.916-2.916a.916.916,0,0,0-1.3,1.3l3.507,3.507a12.718,12.718,0,0,0-.735,5.7h-2.974a.916.916,0,0,0,0,1.832h3.292c.044.176.081.353.133.528a8.707,8.707,0,0,0,1.985,3.471l-2.654,2.654a.916.916,0,0,0,1.3,1.3l2.745-2.745A8.708,8.708,0,0,0,162,65.959l.806,4.43A.916.916,0,0,0,163.874,71.126Z" transform="translate(518.977 769.056)" fill="#08a66d" opacity="0.5"/>
    <circle id="Ellipse_4" data-name="Ellipse 4" cx="4.54" cy="4.54" r="4.54" transform="translate(671.909 839.904)" fill="#04c27e" opacity="0.5"/>
    <circle id="Ellipse_5" data-name="Ellipse 5" cx="2.679" cy="2.679" r="2.679" transform="translate(664.582 837.678)" fill="#04c27e" opacity="0.5"/>
    <path id="Path_9" data-name="Path 9" d="M169.973,67.919a8.821,8.821,0,0,1,.559-3.089l.947-2.531a1.213,1.213,0,0,1,.928-.77,1.228,1.228,0,0,1,1.336.746,5.238,5.238,0,0,0,3.085,2.882l1.482.524a2.351,2.351,0,0,1,1.568,2.217v3.777a2.481,2.481,0,0,1-2.481,2.481h-2.058a5.188,5.188,0,0,1-4.964-3.608A8.8,8.8,0,0,1,169.973,67.919Z" transform="translate(506.353 757.26)" fill="#fff"/>
    <circle id="Ellipse_6" data-name="Ellipse 6" cx="2.954" cy="2.954" r="2.954" transform="translate(679.493 824.169)" fill="#dcdcdc"/>
    <circle id="Ellipse_7" data-name="Ellipse 7" cx="1.931" cy="1.931" r="1.931" transform="translate(660.494 819.133)" fill="#fff"/>
    <g id="Group_6" data-name="Group 6" transform="translate(617 799.188)">
      <path id="Path_10" data-name="Path 10" d="M86.9,17.14A30.959,30.959,0,0,0,39.911,57.157l-4.994,4.994-.28-.28a2.279,2.279,0,0,0-3.224,0L10.3,82.982A7.607,7.607,0,1,0,21.061,93.739l21.11-21.11a2.283,2.283,0,0,0,0-3.224l-.28-.28,4.992-4.992A30.96,30.96,0,0,0,86.9,17.14ZM41.134,71.593,20.023,92.7a6.141,6.141,0,0,1-8.685-8.684l21.11-21.11a.814.814,0,0,1,1.152,0l7.533,7.533A.816.816,0,0,1,41.134,71.593Zm-.279-3.5-4.9-4.9,4.853-4.854.007.008a32.893,32.893,0,0,0,2.3,2.583,32.548,32.548,0,0,0,2.59,2.31Zm45.011-8.2A29.5,29.5,0,1,1,94.5,39.033,29.3,29.3,0,0,1,85.865,59.888Z" transform="translate(-8.078 -8.072)" fill="#08a66d"/>
      <path id="Path_11" data-name="Path 11" d="M139.544,35.573a23.426,23.426,0,1,0,6.843,16.547,23.241,23.241,0,0,0-6.843-16.547Zm-1.036,32.058a21.961,21.961,0,1,1,6.414-15.51A21.786,21.786,0,0,1,138.508,67.631Z" transform="translate(-66.067 -21.16)" fill="#08a66d"/>
    </g>
    <g id="Group_581" data-name="Group 581" transform="translate(711.593 828.051)" opacity="0.4">
      <g id="Group_31" data-name="Group 31" transform="translate(2.146)">
        <path id="Path_62" data-name="Path 62" d="M435.964,309a.887.887,0,0,1-.887-.887v-.027a.887.887,0,0,1,1.774,0v.027A.887.887,0,0,1,435.964,309Z" transform="translate(-435.077 -307.201)" fill="#08a66d"/>
        <path id="Path_63" data-name="Path 63" d="M435.964,336.786a.887.887,0,0,1-.887-.887v-.027a.887.887,0,1,1,1.774,0v.027A.887.887,0,0,1,435.964,336.786Z" transform="translate(-435.077 -330.056)" fill="#08a66d"/>
      </g>
      <g id="Group_32" data-name="Group 32" transform="translate(0 1.239)">
        <path id="Path_64" data-name="Path 64" d="M423.889,315.972a.882.882,0,0,1-.444-.12l-.023-.013a.887.887,0,1,1,.889-1.535l.023.013a.887.887,0,0,1-.445,1.655Z" transform="translate(-422.98 -314.184)" fill="#08a66d"/>
        <path id="Path_65" data-name="Path 65" d="M447.951,329.863a.883.883,0,0,1-.444-.12l-.023-.013a.887.887,0,1,1,.889-1.535l.023.013a.887.887,0,0,1-.445,1.655Z" transform="translate(-442.772 -325.611)" fill="#08a66d"/>
      </g>
      <g id="Group_33" data-name="Group 33" transform="translate(0 1.239)">
        <path id="Path_66" data-name="Path 66" d="M423.868,329.864a.887.887,0,0,1-.445-1.655l.023-.013a.887.887,0,0,1,.889,1.535l-.023.013A.885.885,0,0,1,423.868,329.864Z" transform="translate(-422.98 -325.612)" fill="#08a66d"/>
        <path id="Path_67" data-name="Path 67" d="M447.93,315.971a.887.887,0,0,1-.445-1.655l.023-.013a.887.887,0,1,1,.889,1.535l-.023.013A.884.884,0,0,1,447.93,315.971Z" transform="translate(-442.773 -314.183)" fill="#08a66d"/>
      </g>
    </g>
    <path id="Path_3054" data-name="Path 3054" d="M415.309,259.154a.887.887,0,0,1-.887-.887,1.125,1.125,0,0,0-1.124-1.124.887.887,0,0,1,0-1.774,1.125,1.125,0,0,0,1.124-1.124.887.887,0,1,1,1.774,0,1.125,1.125,0,0,0,1.124,1.124.887.887,0,0,1,0,1.774,1.125,1.125,0,0,0-1.124,1.124A.887.887,0,0,1,415.309,259.154Z" transform="translate(292.481 584.32)" fill="#08a66d" opacity="0.4"/>
  </g>
</svg>
