<svg xmlns="http://www.w3.org/2000/svg" width="67.345" height="67.345" viewBox="0 0 67.345 67.345"><g transform="translate(-1743.057 -1100.969)"><path d="M239.505,51.1a1.161,1.161,0,0,1-1.161-1.161V45.3a1.161,1.161,0,0,1,2.322,0v4.645A1.161,1.161,0,0,1,239.505,51.1Zm0,0" transform="translate(1536.063 1062.638)" fill="#fff"/><path d="M93.893,103.882a1.164,1.164,0,0,1-.821-.341l-4.106-4.105a1.161,1.161,0,0,1,1.642-1.642l4.106,4.106a1.162,1.162,0,0,1-.821,1.982Zm0,0" transform="translate(1666.076 1016.321)" fill="#fff"/><path d="M41.115,249.494H36.47a1.161,1.161,0,1,1,0-2.322h4.645a1.161,1.161,0,1,1,0,2.322Zm0,0" transform="translate(1712.393 886.308)" fill="#fff"/><path d="M89.695,372.293a1.161,1.161,0,0,1-.821-1.982l4.106-4.105a1.161,1.161,0,0,1,1.642,1.642l-4.106,4.106A1.161,1.161,0,0,1,89.695,372.293Zm0,0" transform="translate(1666.168 783.214)" fill="#fff"/><path d="M239.505,421.865a1.161,1.161,0,0,1-1.161-1.161v-4.645a1.161,1.161,0,0,1,2.322,0V420.7A1.161,1.161,0,0,1,239.505,421.865Zm0,0" transform="translate(1536.063 740.643)" fill="#fff"/><path d="M362.3,372.293a1.159,1.159,0,0,1-.821-.34l-4.106-4.106a1.161,1.161,0,0,1,1.642-1.642l4.106,4.105a1.161,1.161,0,0,1-.821,1.982Zm0,0" transform="translate(1432.97 783.214)" fill="#fff"/><path d="M413.037,249.494h-5.805a1.161,1.161,0,1,1,0-2.322h5.805a1.161,1.161,0,1,1,0,2.322Zm0,0" transform="translate(1390.398 886.308)" fill="#fff"/><path d="M358.106,103.693a1.161,1.161,0,0,1-.821-1.982l4.106-4.106a1.161,1.161,0,1,1,1.642,1.642l-4.106,4.105A1.163,1.163,0,0,1,358.106,103.693Zm0,0" transform="translate(1433.061 1016.51)" fill="#fff"/><path d="M22.062,44.122A22.054,22.054,0,0,1,6.462,6.461,22.061,22.061,0,1,1,30.649,42.388,21.925,21.925,0,0,1,22.062,44.122ZM39.479,20.9a1.162,1.162,0,0,0-1.161,1.16A16.273,16.273,0,0,1,22.062,38.316a1.161,1.161,0,1,0,0,2.323A18.632,18.632,0,0,0,40.64,22.06,1.162,1.162,0,0,0,39.479,20.9ZM22.062,24.383a3.483,3.483,0,1,0,3.484,3.483A3.487,3.487,0,0,0,22.062,24.383ZM11.611,13.933a3.483,3.483,0,1,0,3.484,3.484A3.487,3.487,0,0,0,11.611,13.933ZM26.706,9.289a4.644,4.644,0,1,0,4.644,4.644A4.65,4.65,0,0,0,26.706,9.289Z" transform="translate(1753.506 1112.581)" fill="#fff"/><g transform="translate(1743.057 1100.969)"><path d="M142.4,293.674a1.154,1.154,0,0,1-.441-.093,1.338,1.338,0,0,1-.383-.244,1.2,1.2,0,0,1-.244-.383,1.154,1.154,0,0,1-.093-.441,1.223,1.223,0,0,1,.337-.824,1.341,1.341,0,0,1,.383-.244,1.185,1.185,0,0,1,1.266.244,1.221,1.221,0,0,1,.337.824,1.163,1.163,0,0,1-.093.441,1.2,1.2,0,0,1-.244.383A1.223,1.223,0,0,1,142.4,293.674Zm0,0" transform="translate(-122.664 -253.035)" fill="#fff"/><path d="M186.54,346.639a1.163,1.163,0,0,1-.441-.093,1.351,1.351,0,0,1-.383-.244,1.2,1.2,0,0,1-.244-.383,1.161,1.161,0,0,1-.093-.441,1.222,1.222,0,0,1,.337-.824,1.35,1.35,0,0,1,.383-.244,1.185,1.185,0,0,1,1.265.244,1.22,1.22,0,0,1,.337.824,1.161,1.161,0,0,1-.093.441,1.188,1.188,0,0,1-.244.383A1.217,1.217,0,0,1,186.54,346.639Zm0,0" transform="translate(-160.995 -299.033)" fill="#fff"/><path d="M227.658,3.484A3.483,3.483,0,1,1,224.174,0,3.483,3.483,0,0,1,227.658,3.484Zm0,0" transform="translate(-191.663 0)" fill="#fff"/><path d="M46.375,50.558a4.644,4.644,0,1,1-4.645-4.644A4.645,4.645,0,0,1,46.375,50.558Zm0,0" transform="translate(-32.208 -39.875)" fill="#fff"/><path d="M5.805,236.833a2.9,2.9,0,1,1-2.9-2.9A2.9,2.9,0,0,1,5.805,236.833Zm0,0" transform="translate(0 -203.16)" fill="#fff"/><path d="M46.375,400.113a4.644,4.644,0,1,1-4.645-4.644A4.645,4.645,0,0,1,46.375,400.113Zm0,0" transform="translate(-32.208 -343.451)" fill="#fff"/><path d="M227.658,462.518a3.483,3.483,0,1,1-3.484-3.483A3.484,3.484,0,0,1,227.658,462.518Zm0,0" transform="translate(-191.663 -398.657)" fill="#fff"/><path d="M395.93,400.113a4.645,4.645,0,1,1-4.645-4.644A4.645,4.645,0,0,1,395.93,400.113Zm0,0" transform="translate(-335.785 -343.451)" fill="#fff"/><path d="M466,233a3.483,3.483,0,1,1-3.484-3.484A3.484,3.484,0,0,1,466,233Zm0,0" transform="translate(-398.657 -199.327)" fill="#fff"/><path d="M395.93,50.558a4.645,4.645,0,1,1-4.645-4.644A4.645,4.645,0,0,1,395.93,50.558Zm0,0" transform="translate(-335.785 -39.875)" fill="#fff"/></g></g></svg>