<svg xmlns="http://www.w3.org/2000/svg" width="51.826" height="51.838" viewBox="0 0 51.826 51.838"><g transform="translate(-0.128 0.001)" opacity="0.6"><path d="M240.071,260.547a.864.864,0,1,0,0,1.727,13.833,13.833,0,0,0,13.816-13.816.864.864,0,1,0-1.727,0,12.1,12.1,0,0,1-12.089,12.089Zm0,0" transform="translate(-214.885 -222.539)" fill="#fff"/><path d="M243.525,162.363a4.318,4.318,0,1,0-4.318-4.318A4.318,4.318,0,0,0,243.525,162.363Zm0-6.909a2.591,2.591,0,1,1-2.591,2.591A2.591,2.591,0,0,1,243.525,155.454Zm0,0" transform="translate(-214.885 -138.171)" fill="#fff"/><path d="M140.262,187.859a3.454,3.454,0,1,0,3.454,3.454A3.454,3.454,0,0,0,140.262,187.859Zm0,5.182a1.727,1.727,0,1,1,1.727-1.727A1.727,1.727,0,0,1,140.262,193.041Zm0,0" transform="translate(-122.849 -168.849)" fill="#fff"/><path d="M220.514,268.114a3.454,3.454,0,1,0-3.454,3.454A3.454,3.454,0,0,0,220.514,268.114Zm-5.182,0a1.727,1.727,0,1,1,1.727,1.727,1.727,1.727,0,0,1-1.727-1.727Zm0,0" transform="translate(-191.874 -237.878)" fill="#fff"/><path d="M145.876,290.373a.992.992,0,0,0-.285.181.91.91,0,0,0-.251.613.869.869,0,0,0,.069.329.881.881,0,0,0,.181.285.994.994,0,0,0,.285.181.865.865,0,0,0,.328.069.909.909,0,0,0,.613-.251A.886.886,0,0,0,147,291.5a.862.862,0,0,0,.069-.329.907.907,0,0,0-.25-.613A.882.882,0,0,0,145.876,290.373Zm0,0" transform="translate(-130.517 -260.931)" fill="#fff"/><path d="M188.543,341.573a1,1,0,0,0-.285.181.908.908,0,0,0-.25.613.861.861,0,0,0,.069.328.892.892,0,0,0,.181.285,1,1,0,0,0,.285.181.86.86,0,0,0,.328.069.908.908,0,0,0,.613-.25.885.885,0,0,0,.181-.285.868.868,0,0,0,.069-.328.908.908,0,0,0-.251-.613A.881.881,0,0,0,188.543,341.573Zm0,0" transform="translate(-168.867 -306.95)" fill="#fff"/><path d="M48.5,22.464a3.454,3.454,0,0,0-3.332,2.59H42.412a17.176,17.176,0,0,0-4.439-10.7L39.9,12.423A4.318,4.318,0,1,0,38.681,11.2L36.757,13.13A17.174,17.174,0,0,0,26.049,8.692V6.8a3.454,3.454,0,1,0-1.727,0V8.692a17.177,17.177,0,0,0-10.7,4.439L11.69,11.2a4.312,4.312,0,1,0-1.221,1.221L12.4,14.351a17.178,17.178,0,0,0-4.439,10.7H6.047a3.022,3.022,0,1,0,0,1.727H7.958A17.175,17.175,0,0,0,12.4,37.49l-1.928,1.929a4.317,4.317,0,1,0,1.221,1.221l1.928-1.928a17.173,17.173,0,0,0,10.7,4.434v1.894a3.454,3.454,0,1,0,1.727,0V43.145a17.175,17.175,0,0,0,10.708-4.439l1.928,1.929a4.318,4.318,0,1,0,1.221-1.221L37.973,37.49a17.174,17.174,0,0,0,4.439-10.708h2.757A3.448,3.448,0,1,0,48.5,22.464ZM40.451,6.99a2.582,2.582,0,1,1-.762,1.831,2.59,2.59,0,0,1,.762-1.831ZM23.458,3.467a1.727,1.727,0,1,1,1.727,1.727,1.727,1.727,0,0,1-1.727-1.727Zm-17.2,7.186a2.591,2.591,0,1,1,3.663,0,2.591,2.591,0,0,1-3.663,0ZM3.165,27.214a1.3,1.3,0,1,1,1.3-1.3A1.3,1.3,0,0,1,3.165,27.214ZM9.92,44.847a2.591,2.591,0,1,1,0-3.663,2.591,2.591,0,0,1,0,3.663ZM26.913,48.37a1.727,1.727,0,1,1-1.727-1.727A1.727,1.727,0,0,1,26.913,48.37Zm15.371-7.945a2.591,2.591,0,1,1-1.831.757,2.591,2.591,0,0,1,1.831-.757Zm-17.1,1.036A15.544,15.544,0,1,1,40.729,25.918,15.544,15.544,0,0,1,25.186,41.462ZM48.5,27.646a1.727,1.727,0,1,1,1.727-1.727A1.727,1.727,0,0,1,48.5,27.646Zm0,0" transform="translate(0)" fill="#fff"/></g></svg>