<svg xmlns="http://www.w3.org/2000/svg" width="70.104" height="70.12" viewBox="0 0 70.104 70.12"><g transform="translate(-0.128 0.001)" opacity="0.9"><path d="M240.375,265.115a1.168,1.168,0,1,0,0,2.336,18.711,18.711,0,0,0,18.689-18.689,1.168,1.168,0,1,0-2.336,0,16.37,16.37,0,0,1-16.353,16.353Zm0,0" transform="translate(-206.353 -213.703)" fill="#fff"/><path d="M245.048,165.408a5.841,5.841,0,1,0-5.841-5.841A5.841,5.841,0,0,0,245.048,165.408Zm0-9.345a3.5,3.5,0,1,1-3.5,3.5A3.5,3.5,0,0,1,245.048,156.063Zm0,0" transform="translate(-206.353 -132.685)" fill="#fff"/><path d="M141.48,187.859a4.673,4.673,0,1,0,4.672,4.673,4.673,4.673,0,0,0-4.672-4.673Zm0,7.009a2.336,2.336,0,1,1,2.336-2.336A2.336,2.336,0,0,1,141.48,194.868Zm0,0" transform="translate(-117.971 -162.145)" fill="#fff"/><path d="M222.951,269.332a4.673,4.673,0,1,0-4.672,4.673A4.673,4.673,0,0,0,222.951,269.332Zm-7.009,0a2.336,2.336,0,1,1,2.337,2.336,2.337,2.337,0,0,1-2.337-2.336Zm0,0" transform="translate(-184.256 -228.433)" fill="#fff"/><path d="M146.065,290.4a1.343,1.343,0,0,0-.386.245,1.23,1.23,0,0,0-.339.829,1.175,1.175,0,0,0,.094.444,1.192,1.192,0,0,0,.245.385,1.344,1.344,0,0,0,.386.245,1.17,1.17,0,0,0,.444.094,1.23,1.23,0,0,0,.829-.339,1.2,1.2,0,0,0,.245-.385,1.166,1.166,0,0,0,.094-.444,1.227,1.227,0,0,0-.338-.829A1.193,1.193,0,0,0,146.065,290.4Zm0,0" transform="translate(-125.335 -250.57)" fill="#fff"/><path d="M188.732,341.6a1.359,1.359,0,0,0-.386.245,1.228,1.228,0,0,0-.338.829,1.164,1.164,0,0,0,.094.444,1.206,1.206,0,0,0,.245.385,1.357,1.357,0,0,0,.386.245,1.163,1.163,0,0,0,.444.094,1.228,1.228,0,0,0,.829-.339,1.2,1.2,0,0,0,.245-.385,1.174,1.174,0,0,0,.094-.444,1.228,1.228,0,0,0-.339-.829A1.192,1.192,0,0,0,188.732,341.6Zm0,0" transform="translate(-162.162 -294.762)" fill="#fff"/><path d="M65.561,30.387a4.672,4.672,0,0,0-4.506,3.5h-3.73a23.233,23.233,0,0,0-6-14.478L53.929,16.8a5.84,5.84,0,1,0-1.652-1.652l-2.6,2.608a23.231,23.231,0,0,0-14.484-6V9.2a4.672,4.672,0,1,0-2.336,0v2.561a23.235,23.235,0,0,0-14.478,6l-2.608-2.608A5.832,5.832,0,1,0,14.116,16.8l2.608,2.608a23.236,23.236,0,0,0-6,14.478H8.134a4.088,4.088,0,1,0,0,2.336H10.72a23.232,23.232,0,0,0,6,14.484L14.116,53.32a5.839,5.839,0,1,0,1.652,1.651l2.608-2.608a23.229,23.229,0,0,0,14.478,6v2.562a4.672,4.672,0,1,0,2.336,0V58.361a23.232,23.232,0,0,0,14.484-6l2.608,2.609a5.841,5.841,0,1,0,1.652-1.652l-2.614-2.6a23.231,23.231,0,0,0,6-14.484h3.73a4.664,4.664,0,1,0,4.506-5.84ZM54.672,9.455a3.493,3.493,0,1,1-1.031,2.477,3.5,3.5,0,0,1,1.031-2.477ZM31.686,4.689a2.336,2.336,0,1,1,2.337,2.336,2.337,2.337,0,0,1-2.337-2.336ZM8.418,14.41a3.5,3.5,0,1,1,4.955,0,3.505,3.505,0,0,1-4.955,0Zm-4.182,22.4a1.752,1.752,0,1,1,1.752-1.752A1.752,1.752,0,0,1,4.236,36.812Zm9.136,23.852a3.5,3.5,0,1,1,0-4.955,3.5,3.5,0,0,1,0,4.955ZM36.359,65.43a2.336,2.336,0,1,1-2.336-2.336A2.336,2.336,0,0,1,36.359,65.43ZM57.15,54.683a3.5,3.5,0,1,1-2.477,1.024,3.5,3.5,0,0,1,2.477-1.024Zm-23.128,1.4A21.025,21.025,0,1,1,55.048,35.059,21.026,21.026,0,0,1,34.023,56.085ZM65.561,37.4A2.336,2.336,0,1,1,67.9,35.059,2.336,2.336,0,0,1,65.561,37.4Zm0,0" transform="translate(0)" fill="#fff"/></g></svg>