<svg xmlns="http://www.w3.org/2000/svg" width="70.382" height="70.382" viewBox="0 0 70.382 70.382"><g transform="translate(-1743.057 -1100.969)"><path d="M239.557,51.418a1.213,1.213,0,0,1-1.214-1.213V45.35a1.214,1.214,0,0,1,2.427,0V50.2A1.213,1.213,0,0,1,239.557,51.418Zm0,0" transform="translate(1537.477 1062.9)" fill="#fff"/><path d="M94.13,104.171a1.216,1.216,0,0,1-.858-.356l-4.291-4.29A1.214,1.214,0,0,1,90.7,97.808l4.291,4.291a1.214,1.214,0,0,1-.858,2.072Zm0,0" transform="translate(1666.602 1016.9)" fill="#fff"/><path d="M41.376,249.6H36.522a1.214,1.214,0,1,1,0-2.427h4.854a1.214,1.214,0,0,1,0,2.427Zm0,0" transform="translate(1712.602 887.775)" fill="#fff"/><path d="M89.747,372.582a1.214,1.214,0,0,1-.858-2.072l4.291-4.29a1.214,1.214,0,0,1,1.716,1.716l-4.291,4.291A1.214,1.214,0,0,1,89.747,372.582Zm0,0" transform="translate(1666.693 785.385)" fill="#fff"/><path d="M239.557,422.179a1.214,1.214,0,0,1-1.214-1.214v-4.854a1.214,1.214,0,0,1,2.427,0v4.854A1.214,1.214,0,0,1,239.557,422.179Zm0,0" transform="translate(1537.477 743.105)" fill="#fff"/><path d="M362.54,372.582a1.211,1.211,0,0,1-.858-.355l-4.291-4.291a1.213,1.213,0,0,1,1.716-1.716l4.291,4.29a1.213,1.213,0,0,1-.858,2.072Zm0,0" transform="translate(1435.088 785.385)" fill="#fff"/><path d="M413.351,249.6h-6.067a1.214,1.214,0,0,1,0-2.427h6.067a1.214,1.214,0,1,1,0,2.427Zm0,0" transform="translate(1392.807 887.775)" fill="#fff"/><path d="M358.159,103.983a1.214,1.214,0,0,1-.858-2.072l4.291-4.291a1.214,1.214,0,1,1,1.716,1.716l-4.291,4.29A1.216,1.216,0,0,1,358.159,103.983Zm0,0" transform="translate(1435.179 1017.087)" fill="#fff"/><path d="M23.056,46.111A23.056,23.056,0,0,1,6.753,6.753,23.056,23.056,0,1,1,39.36,39.359,22.905,22.905,0,0,1,23.056,46.111Zm3-11.629a3.64,3.64,0,1,0,3.64,3.64A3.645,3.645,0,0,0,26.057,34.483ZM23.394,29.62A19.285,19.285,0,0,0,9.425,35.538a1.214,1.214,0,0,0,1.746,1.687,17.006,17.006,0,0,1,24.022-.419,1.213,1.213,0,1,0,1.686-1.746A19.343,19.343,0,0,0,23.394,29.62ZM12.135,14.561A3.641,3.641,0,1,0,15.775,18.2,3.645,3.645,0,0,0,12.135,14.561ZM27.911,9.707a4.854,4.854,0,1,0,4.854,4.854A4.86,4.86,0,0,0,27.911,9.707Z" transform="translate(1753.977 1113.105)" fill="#fff"/><g transform="translate(1743.057 1100.969)"><path d="M142.455,293.778a1.206,1.206,0,0,1-.461-.1,1.4,1.4,0,0,1-.4-.255,1.25,1.25,0,0,1-.255-.4,1.206,1.206,0,0,1-.1-.461,1.278,1.278,0,0,1,.352-.861,1.4,1.4,0,0,1,.4-.255,1.239,1.239,0,0,1,1.323.255,1.276,1.276,0,0,1,.352.861,1.216,1.216,0,0,1-.1.461,1.251,1.251,0,0,1-.255.4A1.278,1.278,0,0,1,142.455,293.778Zm0,0" transform="translate(-121.826 -251.306)" fill="#fff"/><path d="M186.592,346.743a1.215,1.215,0,0,1-.461-.1,1.412,1.412,0,0,1-.4-.255,1.25,1.25,0,0,1-.255-.4,1.214,1.214,0,0,1-.1-.461,1.277,1.277,0,0,1,.352-.861,1.41,1.41,0,0,1,.4-.255,1.238,1.238,0,0,1,1.323.255,1.275,1.275,0,0,1,.352.861,1.214,1.214,0,0,1-.1.461,1.242,1.242,0,0,1-.255.4A1.272,1.272,0,0,1,186.592,346.743Zm0,0" transform="translate(-159.896 -296.99)" fill="#fff"/><path d="M227.972,3.641A3.64,3.64,0,1,1,224.331,0,3.641,3.641,0,0,1,227.972,3.641Zm0,0" transform="translate(-190.354 0)" fill="#fff"/><path d="M46.794,50.768a4.854,4.854,0,1,1-4.854-4.854A4.854,4.854,0,0,1,46.794,50.768Zm0,0" transform="translate(-31.988 -39.603)" fill="#fff"/><path d="M6.067,236.964a3.034,3.034,0,1,1-3.033-3.034A3.034,3.034,0,0,1,6.067,236.964Zm0,0" transform="translate(0 -201.772)" fill="#fff"/><path d="M46.794,400.322a4.854,4.854,0,1,1-4.854-4.854A4.854,4.854,0,0,1,46.794,400.322Zm0,0" transform="translate(-31.988 -341.105)" fill="#fff"/><path d="M227.972,462.676a3.64,3.64,0,1,1-3.641-3.64A3.641,3.641,0,0,1,227.972,462.676Zm0,0" transform="translate(-190.354 -395.934)" fill="#fff"/><path d="M396.349,400.322a4.854,4.854,0,1,1-4.854-4.854A4.854,4.854,0,0,1,396.349,400.322Zm0,0" transform="translate(-333.491 -341.105)" fill="#fff"/><path d="M466.316,233.156a3.64,3.64,0,1,1-3.641-3.641A3.641,3.641,0,0,1,466.316,233.156Zm0,0" transform="translate(-395.934 -197.965)" fill="#fff"/><path d="M396.349,50.768a4.854,4.854,0,1,1-4.854-4.854A4.854,4.854,0,0,1,396.349,50.768Zm0,0" transform="translate(-333.491 -39.603)" fill="#fff"/></g></g></svg>