<svg xmlns="http://www.w3.org/2000/svg" width="238.48" height="235.778" viewBox="0 0 238.48 235.778"><g transform="translate(-1409.99 -248.329)"><g transform="translate(1438.988 248.329) rotate(8)"><g transform="translate(0 0)"><g transform="translate(0 0)"><path d="M336.9,110.1c-24.3,2.8-40.6,18.1-36.1,50.4,4,28.7-1.9,35-13.9,55.3-15.4,26-6.4,50.4,6.8,62.8s38.9,13,61.1,8.6c23.8-4.6,33.7-2.7,46.9,16.6,12.4,18.1,36.6,21.2,50.5-3.2s-14.6-42.4,1.1-64.2,48.9-62.1,32.7-87.3-44.4-13.5-60.6-1.9c-16.2,11.7-32.7,10.5-43.7-5.6C368.1,121.7,359.5,107.4,336.9,110.1Z" transform="translate(-278.803 -109.772)" fill="#dae1e2" opacity="0.89"/></g></g></g><path d="M523.723,30.948c-2.645-3.9-1.392.278-2.645.974-.974.7-4.176,2.923-5.428,3.758a12.559,12.559,0,0,0-3.758-3.9,15.249,15.249,0,0,0,1.67-2.227c.7-.974,3.48.278.835-1.809s-.835.418-1.531,1.253c-.278.418-1.114,1.392-1.809,2.366a16,16,0,0,0-3.9-1.253h-.278V27.19c0-.7,1.809-1.253-.278-1.253s-.278.557-.278,1.253v2.923a12.009,12.009,0,0,0-3.9.557c-.278-1.253-.835-3.48-.974-4.454-.278-1.253,2.505-2.784-.835-1.949-3.48.835-.278,1.114,0,2.088.139.835.835,3.48,1.113,4.593a5.4,5.4,0,0,0-1.531.835c-.418-.557-1.113-1.531-1.392-1.949-.418-.557.7-1.809-.835-.7s.139.557.418.974.974,1.392,1.392,1.949a12.435,12.435,0,0,0-4.036,4.454c-1.531-.557-3.9-1.531-5.011-1.949-1.531-.557-1.114-4.732-2.784-.418s.974.974,2.227,1.531c.835.278,3.341,1.253,5.011,1.949a16.277,16.277,0,0,0-.7,2.784,11.375,11.375,0,0,0,.139,3.758c-1.253.418-3.48,1.114-4.454,1.392-1.253.418-2.923-2.366-1.949,1.114,1.113,3.48,1.113.139,2.088-.139.835-.278,3.2-.974,4.454-1.392a11.079,11.079,0,0,0,3.758,5.568c-.7.557-1.531,1.253-1.809,1.531-.7.557-2.366-.7-.835,1.114s.7-.139,1.253-.557c.418-.278,1.253-1.114,1.949-1.67a5.891,5.891,0,0,0,.974.7c-.557,1.253-1.253,3.062-1.67,3.9-.557,1.253-3.9.835-.418,2.227s.835-.7,1.253-1.809c.278-.7,1.114-2.645,1.67-3.9a15.623,15.623,0,0,0,3.619,1.114,3.065,3.065,0,0,1,1.114.139v3.619c0,1.253-3.062,2.088.418,2.088,3.619,0,.418-.974.418-2.088V53.358c.557,0,1.114-.139,1.67-.139.139.7.278,1.531.418,1.949.139.7-1.392,1.392.418.974s.139-.557,0-1.114c-.139-.418-.278-1.253-.418-1.949a10.366,10.366,0,0,0,4.454-2.227,10.158,10.158,0,0,1,1.253,1.392c1.253,1.392-1.253,5.568,2.645,1.949s-.418-1.531-1.531-2.784c-.278-.278-.7-.835-1.253-1.392a11.661,11.661,0,0,0,3.2-6.542c.974.278,2.227.557,2.784.7,1.113.278,1.113,3.062,1.949.139.835-3.062-.7-.557-1.67-.835-.557-.139-1.949-.557-3.062-.835a9.58,9.58,0,0,0-.278-3.48,17.026,17.026,0,0,1,2.366-.418c.7-.139,1.392,1.392.974-.418s-.557-.139-1.113,0c-.418.139-1.67.278-2.366.418-.139-.557-.418-1.114-.557-1.531,1.113-.835,4.315-2.923,5.568-3.9C523.166,32.2,526.507,34.845,523.723,30.948Z" transform="translate(975.287 261.7)" fill="#fff" opacity="0.4"/></g></svg>