<svg xmlns="http://www.w3.org/2000/svg" width="59.725" height="55.86" viewBox="0 0 59.725 55.86"><path d="M33.6,136.8c-4.4-6.3-2.3.4-4.2,1.7-1.6,1.1-6.8,4.7-8.8,6.1a19.013,19.013,0,0,0-6.1-6.2c1-1.3,2.1-2.8,2.7-3.5,1.1-1.5,5.6.4,1.4-2.9s-1.5.7-2.4,2c-.5.7-1.8,2.3-2.9,3.7a16.6,16.6,0,0,0-6.2-1.9H6.6V131c0-1.2,3-2.1-.4-2-3.5,0-.5.9-.4,2v4.8a18.556,18.556,0,0,0-6.2.8c-.4-2-1.3-5.7-1.6-7.2-.4-1.9,4.1-4.4-1.4-3.1-5.6,1.3-.4,1.7,0,3.4.3,1.4,1.2,5.5,1.7,7.5a19.235,19.235,0,0,0-2.5,1.2c-.6-.9-1.7-2.4-2.2-3.1-.6-.8,1.1-2.9-1.3-1.2s.2.9.7,1.6c.4.6,1.5,2.2,2.2,3.1a18.288,18.288,0,0,0-6.4,7.1c-2.6-1-6.3-2.4-8-3-2.4-.9-1.8-7.6-4.4-.7s1.5,1.6,3.7,2.4c1.4.5,5.3,2,8,3A21.805,21.805,0,0,0-13,152a20.021,20.021,0,0,0,.3,6c-1.9.6-5.7,1.8-7.2,2.3-1.9.6-4.8-3.8-3,1.7,1.7,5.5,1.7.3,3.4-.3,1.3-.4,5.2-1.6,7.2-2.3a18.661,18.661,0,0,0,6,9c-1,.8-2.4,1.9-3,2.4-1,.8-3.8-1.2-1.4,1.8,2.4,2.9,1.1-.3,2-1,.6-.5,2.1-1.7,3.2-2.6A13.03,13.03,0,0,0-4,170c-.9,2.1-2.1,5-2.6,6.3-.8,1.9-6.3,1.3-.7,3.6s1.4-1.2,2.1-2.9c.5-1.1,1.7-4.1,2.6-6.3a21.681,21.681,0,0,0,5.8,1.7,10.283,10.283,0,0,0,1.7.1v5.9c0,2-5,3.4.7,3.4s.8-1.6.8-3.3v-6a23,23,0,0,0,2.6-.3c.2,1.1.5,2.4.7,3.1.2,1-2.2,2.3.7,1.6,2.9-.6.2-.9,0-1.8-.1-.6-.4-2-.7-3.1a17.913,17.913,0,0,0,7.2-3.5c.8.9,1.5,1.6,2,2.2,2.1,2.2-2.1,8.9,4.3,3s-.8-2.5-2.6-4.4c-.5-.5-1.2-1.3-2.1-2.3a18.337,18.337,0,0,0,5.1-10.4c1.7.4,3.6.9,4.5,1.2,1.7.4,1.7,5,3,.2,1.3-4.9-1.2-1-2.6-1.4-.9-.2-3.1-.8-4.8-1.3a19.789,19.789,0,0,0-.5-5.5c1-.2,3-.6,3.8-.7,1-.2,2.2,2.2,1.7-.7-.6-2.9-.9-.2-1.8-.1-.7.1-2.8.5-3.8.7a27.73,27.73,0,0,0-1-2.6c1.9-1.3,7-4.8,8.9-6.2C32.6,138.6,38,143.1,33.6,136.8Z" transform="translate(24.435 -125.94)" fill="#dae1e2" opacity="0.48"/></svg>