<svg xmlns="http://www.w3.org/2000/svg" width="115.571" height="107.529" viewBox="0 0 115.571 107.529"><path d="M76.793,423.664c-8.408-12.077-4.433.611-8.1,3.21-3.21,2.14-12.994,9.019-16.969,11.771a36.536,36.536,0,0,0-11.771-11.924c1.987-2.6,4.128-5.35,5.2-6.726,2.14-2.752,10.854.764,2.752-5.5s-2.752,1.376-4.739,3.822c-1.07,1.376-3.516,4.433-5.656,7.185a34.982,34.982,0,0,0-11.924-3.669h-1.07v-9.172c0-2.293,5.809-3.975-.917-3.975-6.573,0-.917,1.834-.917,3.822v9.172a34.582,34.582,0,0,0-11.924,1.529c-.917-3.822-2.446-11.007-3.21-13.911-.917-3.669,7.949-8.408-2.752-5.962s-.764,3.21,0,6.421c.611,2.6,2.446,10.548,3.21,14.37a27.8,27.8,0,0,0-4.739,2.446c-1.223-1.682-3.363-4.739-4.28-5.962-1.223-1.682,2.14-5.656-2.6-2.293-4.586,3.363.306,1.682,1.376,3.057.764,1.07,2.9,4.128,4.28,5.962a34.329,34.329,0,0,0-12.23,13.758c-4.892-1.834-12.077-4.586-15.287-5.809-4.586-1.834-3.516-14.676-8.561-1.376s2.9,3.21,7.032,4.739c2.752,1.07,10.242,3.822,15.287,5.809a30.894,30.894,0,0,0-2.14,8.408,35.781,35.781,0,0,0,.459,11.465c-3.669,1.223-10.854,3.363-13.911,4.433-3.669,1.223-9.172-7.338-5.809,3.363,3.363,10.548,3.363.459,6.573-.459,2.6-.764,9.937-3.21,13.758-4.433A34.535,34.535,0,0,0-1.171,484.507c-1.987,1.682-4.586,3.669-5.809,4.739-1.987,1.529-7.338-2.14-2.752,3.363,4.586,5.656,2.14-.459,3.822-1.834,1.07-.917,4.128-3.363,6.115-5.045a32.718,32.718,0,0,0,2.9,1.987c-1.682,3.975-3.975,9.631-5.045,12.23-1.529,3.822-12.077,2.446-1.376,6.879s2.6-2.293,3.975-5.656c.917-2.14,3.363-7.949,5.045-12.077a33.885,33.885,0,0,0,11.007,3.21,24.764,24.764,0,0,0,3.363.153v11.312c0,3.822-9.631,6.421,1.376,6.421s1.529-3.057,1.529-6.268V492.456c1.682-.153,3.363-.306,5.045-.611.459,1.987,1.07,4.739,1.223,5.962.459,1.987-4.128,4.433,1.376,3.21,5.656-1.223.459-1.682,0-3.363-.306-1.07-.917-3.975-1.376-5.962a35.085,35.085,0,0,0,13.758-6.726c1.529,1.682,2.9,3.21,3.822,4.128,3.975,4.28-3.975,17.121,8.255,5.809s-1.529-4.892-4.892-8.561c-.917-.917-2.293-2.446-3.975-4.28A35.517,35.517,0,0,0,56,462.035c3.21.917,6.879,1.834,8.714,2.293,3.21.917,3.363,9.631,5.809.306s-2.293-1.987-5.045-2.6c-1.682-.459-5.809-1.529-9.325-2.446a39.908,39.908,0,0,0-.917-10.548c1.987-.459,5.656-1.07,7.185-1.376,1.987-.459,4.28,4.28,3.21-1.376s-1.682-.459-3.363-.153c-1.376.306-5.35,1.07-7.338,1.376A46.256,46.256,0,0,0,53.1,442.62c3.669-2.446,13.3-9.172,17.121-11.771C74.805,427.18,85.048,435.741,76.793,423.664Z" transform="translate(35.662 -402.66)" fill="#08A66D" opacity="0.48"/></svg>