<svg xmlns="http://www.w3.org/2000/svg" width="233.309" height="244.099" viewBox="0 0 233.309 244.099"><g transform="translate(-1091.491 -142.636)"><g transform="translate(1091.491 142.636)"><path d="M164.1,300.5c-26.3-20.3-60.5,2.5-86.2,1.5-38.4-1.5-52.9-53.4-24.1-80.2,21.1-19.6,37.3-41.4,33.5-61s-3.8-70.4,24.8-80.2,51.2-8.3,58.7,22.2,28.6,33.9,47.8,30.5,47.8-.4,52.7,30.1-20.3,50.8-16.9,74.1,21.8,40.6-3.4,67.4C228,329.4,188.3,319.1,164.1,300.5Z" transform="translate(-38.625 -75.218)" fill="#08A66D" opacity="0.89"/></g><path d="M523.723,30.948c-2.645-3.9-1.392.278-2.645.974-.974.7-4.176,2.923-5.428,3.758a12.559,12.559,0,0,0-3.758-3.9,15.249,15.249,0,0,0,1.67-2.227c.7-.974,3.48.278.835-1.809s-.835.418-1.531,1.253c-.278.418-1.114,1.392-1.809,2.366a16,16,0,0,0-3.9-1.253h-.278V27.19c0-.7,1.809-1.253-.278-1.253s-.278.557-.278,1.253v2.923a12.009,12.009,0,0,0-3.9.557c-.278-1.253-.835-3.48-.974-4.454-.278-1.253,2.505-2.784-.835-1.949-3.48.835-.278,1.114,0,2.088.139.835.835,3.48,1.113,4.593a5.4,5.4,0,0,0-1.531.835c-.418-.557-1.113-1.531-1.392-1.949-.418-.557.7-1.809-.835-.7s.139.557.418.974.974,1.392,1.392,1.949a12.435,12.435,0,0,0-4.036,4.454c-1.531-.557-3.9-1.531-5.011-1.949-1.531-.557-1.114-4.732-2.784-.418s.974.974,2.227,1.531c.835.278,3.341,1.253,5.011,1.949a16.277,16.277,0,0,0-.7,2.784,11.375,11.375,0,0,0,.139,3.758c-1.253.418-3.48,1.114-4.454,1.392-1.253.418-2.923-2.366-1.949,1.114,1.113,3.48,1.113.139,2.088-.139.835-.278,3.2-.974,4.454-1.392a11.079,11.079,0,0,0,3.758,5.568c-.7.557-1.531,1.253-1.809,1.531-.7.557-2.366-.7-.835,1.114s.7-.139,1.253-.557c.418-.278,1.253-1.114,1.949-1.67a5.891,5.891,0,0,0,.974.7c-.557,1.253-1.253,3.062-1.67,3.9-.557,1.253-3.9.835-.418,2.227s.835-.7,1.253-1.809c.278-.7,1.114-2.645,1.67-3.9a15.623,15.623,0,0,0,3.619,1.114,3.065,3.065,0,0,1,1.114.139v3.619c0,1.253-3.062,2.088.418,2.088,3.619,0,.418-.974.418-2.088V53.358c.557,0,1.114-.139,1.67-.139.139.7.278,1.531.418,1.949.139.7-1.392,1.392.418.974s.139-.557,0-1.114c-.139-.418-.278-1.253-.418-1.949a10.366,10.366,0,0,0,4.454-2.227,10.158,10.158,0,0,1,1.253,1.392c1.253,1.392-1.253,5.568,2.645,1.949s-.418-1.531-1.531-2.784c-.278-.278-.7-.835-1.253-1.392a11.661,11.661,0,0,0,3.2-6.542c.974.278,2.227.557,2.784.7,1.113.278,1.113,3.062,1.949.139.835-3.062-.7-.557-1.67-.835-.557-.139-1.949-.557-3.062-.835a9.58,9.58,0,0,0-.278-3.48,17.026,17.026,0,0,1,2.366-.418c.7-.139,1.392,1.392.974-.418s-.557-.139-1.113,0c-.418.139-1.67.278-2.366.418-.139-.557-.418-1.114-.557-1.531,1.113-.835,4.315-2.923,5.568-3.9C523.166,32.2,526.507,34.845,523.723,30.948Z" transform="translate(618.287 296.875)" fill="#fff" opacity="0.4"/></g></svg>