<svg xmlns="http://www.w3.org/2000/svg" width="16.728" height="16.752" viewBox="0 0 16.728 16.752"><g transform="translate(-0.344 0)"><g transform="translate(0.344 0)"><path d="M13.572,36.814a1.648,1.648,0,0,0-1.2-.548,1.7,1.7,0,0,0-1.209.544L10.05,37.925c-.092-.049-.184-.1-.272-.141-.127-.064-.247-.124-.35-.187a12.143,12.143,0,0,1-2.91-2.652,7.164,7.164,0,0,1-.955-1.506c.29-.265.559-.541.82-.806.1-.1.2-.2.3-.3a1.622,1.622,0,0,0,0-2.447l-.965-.965c-.11-.11-.223-.223-.329-.336-.212-.219-.435-.445-.665-.658a1.674,1.674,0,0,0-1.184-.52,1.732,1.732,0,0,0-1.2.52l-.007.007-1.2,1.213A2.587,2.587,0,0,0,.359,30.79a6.2,6.2,0,0,0,.453,2.623,15.224,15.224,0,0,0,2.7,4.511,16.639,16.639,0,0,0,5.54,4.338,8.633,8.633,0,0,0,3.111.919c.074,0,.152.007.223.007a2.664,2.664,0,0,0,2.04-.877c0-.007.011-.011.014-.018a8.04,8.04,0,0,1,.619-.64c.152-.145.308-.3.46-.456a1.764,1.764,0,0,0,.534-1.223,1.7,1.7,0,0,0-.544-1.213Zm1.266,3.723s0,0,0,0c-.138.148-.279.283-.431.431a9.3,9.3,0,0,0-.682.707,1.7,1.7,0,0,1-1.329.562c-.053,0-.11,0-.163,0a7.668,7.668,0,0,1-2.758-.827A15.706,15.706,0,0,1,4.255,37.32,14.354,14.354,0,0,1,1.71,33.081a5.048,5.048,0,0,1-.4-2.213,1.623,1.623,0,0,1,.488-1.05l1.206-1.206a.8.8,0,0,1,.537-.251.756.756,0,0,1,.516.247l.011.011c.216.2.421.41.636.633.11.113.223.226.336.343l.965.965a.675.675,0,0,1,0,1.1c-.1.1-.2.205-.3.3-.3.3-.58.587-.887.863-.007.007-.014.011-.018.018a.721.721,0,0,0-.184.8l.011.032a7.749,7.749,0,0,0,1.142,1.863l0,0A12.977,12.977,0,0,0,8.912,38.4a4.829,4.829,0,0,0,.435.237c.127.064.247.124.35.187.014.007.028.018.042.025a.766.766,0,0,0,.35.088.756.756,0,0,0,.537-.244l1.209-1.209a.8.8,0,0,1,.534-.265.72.72,0,0,1,.509.258l.007.007,1.948,1.948A.7.7,0,0,1,14.838,40.537Z" transform="translate(-0.344 -26.437)" fill="#08A66D"/><path d="M245.337,86.872a4.55,4.55,0,0,1,3.705,3.705.474.474,0,0,0,.47.4.631.631,0,0,0,.081-.007.478.478,0,0,0,.392-.552,5.5,5.5,0,0,0-4.483-4.483.48.48,0,0,0-.552.389A.472.472,0,0,0,245.337,86.872Z" transform="translate(-236.296 -82.887)" fill="#08A66D"/><path d="M256.712,7.39A9.06,9.06,0,0,0,249.33.007a.477.477,0,1,0-.156.94,8.092,8.092,0,0,1,6.6,6.6.474.474,0,0,0,.47.4.631.631,0,0,0,.081-.007A.468.468,0,0,0,256.712,7.39Z" transform="translate(-239.992 0)" fill="#08A66D"/></g></g></svg>