<svg xmlns="http://www.w3.org/2000/svg" width="124.781" height="171.95" viewBox="0 0 124.781 171.95"><g transform="translate(-1393.96 -312.109)"><path d="M436.1,231.2c0-.1,0-.1-.1-.1H413.8c-.1,0-.1,0-.1.1l.1,105a11.2,11.2,0,1,0,22.4,0Z" transform="translate(1030.501 136.659)" fill="#dbebee"/><path d="M434.3,335.5l-.1-26.8H415.1l.1,26.8a9.455,9.455,0,0,0,9.6,9.5h0A9.432,9.432,0,0,0,434.3,335.5Z" transform="translate(1030.501 136.659)" fill="#3fb7f5" opacity="0.54"/><path d="M429.4,341.2a10.755,10.755,0,0,1-10.8-10.8l-.1-88.9a26.993,26.993,0,0,1,17.6-2V231H413.7v13.4h0l.1,91.7A11.182,11.182,0,0,0,425,347.3a11.37,11.37,0,0,0,10.8-8.2A10.667,10.667,0,0,1,429.4,341.2Z" transform="translate(1030.501 136.659)" fill="#3fb7f5"/><path d="M438,232.4H411.9a1.685,1.685,0,0,1-1.7-1.7h0a1.685,1.685,0,0,1,1.7-1.7H438a1.685,1.685,0,0,1,1.7,1.7h0A1.752,1.752,0,0,1,438,232.4Z" transform="translate(1030.501 136.659)" fill="#3fb7f5"/><path d="M434.5,292.3c0,22.7-.5,41.1-1.1,41.1s-1.1-18.4-1.2-41.1c0-22.7.5-41.1,1.1-41.1C434,251.2,434.5,269.6,434.5,292.3Z" transform="translate(1030.501 136.659)" fill="#fff"/><path d="M436.1,231.2c0-.1,0-.1-.1-.1H413.8c-.1,0-.1,0-.1.1l.1,105a11.2,11.2,0,1,0,22.4,0Z" transform="translate(983.76 136.659)" fill="#dbebee"/><path d="M434.3,335.5l-.1-26.8H415.1l.1,26.8a9.455,9.455,0,0,0,9.6,9.5h0A9.432,9.432,0,0,0,434.3,335.5Z" transform="translate(983.76 136.659)" fill="#3fb7f5" opacity="0.54"/><path d="M429.4,341.2a10.755,10.755,0,0,1-10.8-10.8l-.1-88.9a26.993,26.993,0,0,1,17.6-2V231H413.7v13.4h0l.1,91.7A11.182,11.182,0,0,0,425,347.3a11.37,11.37,0,0,0,10.8-8.2A10.667,10.667,0,0,1,429.4,341.2Z" transform="translate(983.76 136.659)" fill="#3fb7f5"/><path d="M438,232.4H411.9a1.685,1.685,0,0,1-1.7-1.7h0a1.685,1.685,0,0,1,1.7-1.7H438a1.685,1.685,0,0,1,1.7,1.7h0A1.752,1.752,0,0,1,438,232.4Z" transform="translate(983.76 136.659)" fill="#3fb7f5"/><path d="M436.1,231.2c0-.1,0-.1-.1-.1H413.8c-.1,0-.1,0-.1.1l.1,105a11.2,11.2,0,1,0,22.4,0Z" transform="translate(1077.442 136.659)" fill="#dbebee"/><path d="M434.3,335.5l-.1-26.8H415.1l.1,26.8a9.455,9.455,0,0,0,9.6,9.5h0A9.432,9.432,0,0,0,434.3,335.5Z" transform="translate(1077.442 136.659)" fill="#3fb7f5" opacity="0.54"/><path d="M438,232.4H411.9a1.685,1.685,0,0,1-1.7-1.7h0a1.685,1.685,0,0,1,1.7-1.7H438a1.685,1.685,0,0,1,1.7,1.7h0A1.752,1.752,0,0,1,438,232.4Z" transform="translate(1077.442 136.659)" fill="#3fb7f5"/><path d="M434.5,292.3c0,22.7-.5,41.1-1.1,41.1s-1.1-18.4-1.2-41.1c0-22.7.5-41.1,1.1-41.1C434,251.2,434.5,269.6,434.5,292.3Z" transform="translate(1077.242 136.659)" fill="#fff"/><g transform="matrix(0.999, -0.035, 0.035, 0.999, 1491.143, 313.05)"><rect width="2.877" height="125.405" transform="matrix(-0.994, -0.111, 0.111, -0.994, 7.881, 141.467)" fill="#9bd8f7"/><path d="M313.716,163.318c-.508,3.639.677,12.354,3.469,12.693,2.792.423,6.262-7.7,6.769-11.339s-1.354-6.854-4.231-7.277C316.931,157.056,314.224,159.679,313.716,163.318Z" transform="translate(-297.075 -157.365)" fill="#fff"/><path d="M333.3,332.906c.423-3.639,3.639-11.846,6.431-11.508s4.146,8.969,3.808,12.608c-.423,3.639-3.046,6.346-5.839,6.008C334.9,339.76,332.872,336.629,333.3,332.906Z" transform="translate(-333.24 -182.596)" fill="#fffded" opacity="0.55"/></g><path d="M429.4,341.2a10.755,10.755,0,0,1-10.8-10.8l-.1-88.9a26.993,26.993,0,0,1,17.6-2V231H413.7v13.4h0l.1,91.7A11.182,11.182,0,0,0,425,347.3a11.37,11.37,0,0,0,10.8-8.2A10.667,10.667,0,0,1,429.4,341.2Z" transform="translate(1077.442 136.659)" fill="#3fb7f5"/></g></svg>