<svg xmlns="http://www.w3.org/2000/svg" width="131.763" height="117.581" viewBox="0 0 131.763 117.581"><g transform="translate(-932.294 -138.743)"><path d="M33.6,136.8c-4.4-6.3-2.3.4-4.2,1.7-1.6,1.1-6.8,4.7-8.8,6.1a19.013,19.013,0,0,0-6.1-6.2c1-1.3,2.1-2.8,2.7-3.5,1.1-1.5,5.6.4,1.4-2.9s-1.5.7-2.4,2c-.5.7-1.8,2.3-2.9,3.7a16.6,16.6,0,0,0-6.2-1.9H6.6V131c0-1.2,3-2.1-.4-2-3.5,0-.5.9-.4,2v4.8a18.556,18.556,0,0,0-6.2.8c-.4-2-1.3-5.7-1.6-7.2-.4-1.9,4.1-4.4-1.4-3.1-5.6,1.3-.4,1.7,0,3.4.3,1.4,1.2,5.5,1.7,7.5a19.235,19.235,0,0,0-2.5,1.2c-.6-.9-1.7-2.4-2.2-3.1-.6-.8,1.1-2.9-1.3-1.2s.2.9.7,1.6c.4.6,1.5,2.2,2.2,3.1a18.288,18.288,0,0,0-6.4,7.1c-2.6-1-6.3-2.4-8-3-2.4-.9-1.8-7.6-4.4-.7s1.5,1.6,3.7,2.4c1.4.5,5.3,2,8,3A21.805,21.805,0,0,0-13,152a20.021,20.021,0,0,0,.3,6c-1.9.6-5.7,1.8-7.2,2.3-1.9.6-4.8-3.8-3,1.7,1.7,5.5,1.7.3,3.4-.3,1.3-.4,5.2-1.6,7.2-2.3a18.661,18.661,0,0,0,6,9c-1,.8-2.4,1.9-3,2.4-1,.8-3.8-1.2-1.4,1.8,2.4,2.9,1.1-.3,2-1,.6-.5,2.1-1.7,3.2-2.6A13.03,13.03,0,0,0-4,170c-.9,2.1-2.1,5-2.6,6.3-.8,1.9-6.3,1.3-.7,3.6s1.4-1.2,2.1-2.9c.5-1.1,1.7-4.1,2.6-6.3a21.681,21.681,0,0,0,5.8,1.7,10.283,10.283,0,0,0,1.7.1v5.9c0,2-5,3.4.7,3.4s.8-1.6.8-3.3v-6a23,23,0,0,0,2.6-.3c.2,1.1.5,2.4.7,3.1.2,1-2.2,2.3.7,1.6,2.9-.6.2-.9,0-1.8-.1-.6-.4-2-.7-3.1a17.913,17.913,0,0,0,7.2-3.5c.8.9,1.5,1.6,2,2.2,2.1,2.2-2.1,8.9,4.3,3s-.8-2.5-2.6-4.4c-.5-.5-1.2-1.3-2.1-2.3a18.337,18.337,0,0,0,5.1-10.4c1.7.4,3.6.9,4.5,1.2,1.7.4,1.7,5,3,.2,1.3-4.9-1.2-1-2.6-1.4-.9-.2-3.1-.8-4.8-1.3a19.789,19.789,0,0,0-.5-5.5c1-.2,3-.6,3.8-.7,1-.2,2.2,2.2,1.7-.7-.6-2.9-.9-.2-1.8-.1-.7.1-2.8.5-3.8.7a27.73,27.73,0,0,0-1-2.6c1.9-1.3,7-4.8,8.9-6.2C32.6,138.6,38,143.1,33.6,136.8Z" transform="matrix(0.259, 0.966, -0.966, 0.259, 1121.825, 129.75)" fill="#08A66D" opacity="0.48"/><path d="M61,71.6c-1.5-2.2-.8.1-1.5.6-.6.4-2.4,1.6-3.1,2.1a7.349,7.349,0,0,0-2.1-2.2c.4-.5.8-1,1-1.2.4-.5,2,.1.5-1s-.5.3-.9.7c-.2.2-.6.8-1,1.3a8.083,8.083,0,0,0-2.2-.7h-.2V69.5c0-.4,1.1-.7-.2-.7-1.2,0-.2.3-.2.7v1.7a7.8,7.8,0,0,0-2.2.3c-.2-.7-.4-2-.6-2.5-.2-.7,1.4-1.5-.5-1.1s-.1.6,0,1.2c.1.5.4,1.9.6,2.6-.3.1-.6.3-.9.4a10.474,10.474,0,0,0-.8-1.1c-.2-.3.4-1-.5-.4-.8.6.1.3.2.6a5.939,5.939,0,0,0,.8,1.1A6.654,6.654,0,0,0,45,74.8a27.389,27.389,0,0,1-2.8-1.1c-.8-.3-.6-2.7-1.6-.2-.9,2.4.5.6,1.3.9.5.2,1.9.7,2.8,1.1a8.331,8.331,0,0,0-.4,1.5,7.412,7.412,0,0,0,.1,2.1c-.7.2-2,.6-2.5.8-.7.2-1.7-1.3-1.1.6s.6.1,1.2-.1c.5-.1,1.8-.6,2.5-.8a7.453,7.453,0,0,0,2.1,3.2c-.4.3-.8.7-1.1.9-.4.3-1.3-.4-.5.6s.4-.1.7-.3a13.5,13.5,0,0,1,1.1-.9,1,1,0,0,1,.5.4c-.3.7-.7,1.7-.9,2.2-.3.7-2.2.4-.2,1.3,2,.8.5-.4.7-1,.2-.4.6-1.4.9-2.2a6.637,6.637,0,0,0,2,.6h.6v2c0,.7-1.8,1.2.2,1.2s.3-.5.3-1.1V84.4c.3,0,.6-.1.9-.1a6.529,6.529,0,0,1,.2,1.1c.1.4-.8.8.3.6,1-.2.1-.3,0-.6,0-.2-.2-.7-.2-1.1a5.816,5.816,0,0,0,2.5-1.2c.3.3.5.6.7.8.7.8-.7,3.1,1.5,1.1,2.2-2.1-.3-.9-.9-1.6-.2-.2-.4-.5-.7-.8A6.808,6.808,0,0,0,57,78.9c.6.2,1.3.3,1.6.4.6.2.6,1.8,1.1.1.4-1.7-.4-.3-.9-.5a14.577,14.577,0,0,0-1.7-.4,5.845,5.845,0,0,0-.2-1.9c.4-.1,1-.2,1.3-.3.4-.1.8.8.6-.2s-.3-.1-.6,0a7.894,7.894,0,0,0-1.3.3l-.3-.9c.7-.5,2.4-1.7,3.1-2.2C60.7,72.2,62.5,73.8,61,71.6Z" transform="matrix(0.259, 0.966, -0.966, 0.259, 1113.603, 147.907)" fill="#dae1e2" opacity="0.48"/><path d="M58.7,179.9c-1.7-2.4-.9.1-1.6.6-.6.4-2.6,1.8-3.4,2.4a6.894,6.894,0,0,0-2.4-2.4c.4-.5.8-1.1,1.1-1.4.4-.6,2.2.1.5-1.1-1.6-1.3-.6.3-.9.8-.2.3-.7.9-1.1,1.5a6.114,6.114,0,0,0-2.4-.7h-.2v-1.9c0-.5,1.2-.8-.2-.8-1.3,0-.2.4-.2.8v1.8a9.863,9.863,0,0,0-2.4.3c-.2-.8-.5-2.2-.6-2.8-.2-.8,1.6-1.7-.6-1.2s-.2.7,0,1.3c.1.5.5,2.1.7,2.9a4.672,4.672,0,0,0-1,.5c-.2-.3-.7-.9-.9-1.2s.4-1.1-.5-.5c-.9.7.1.3.3.6.2.2.6.8.9,1.2a7.554,7.554,0,0,0-2.5,2.8c-1-.4-2.4-.9-3.1-1.2-.9-.4-.7-3-1.7-.3s.6.6,1.4.9c.6.2,2.1.8,3.1,1.2a4.711,4.711,0,0,0-.4,1.7,8.684,8.684,0,0,0,.1,2.3c-.7.2-2.2.7-2.8.9-.7.2-1.9-1.5-1.2.7.7,2.1.7.1,1.3-.1.5-.2,2-.6,2.8-.9a6.963,6.963,0,0,0,2.3,3.5c-.4.3-.9.7-1.2.9-.4.3-1.5-.4-.6.7s.4-.1.8-.4c.2-.2.8-.7,1.2-1,.2.1.4.3.6.4-.3.8-.8,1.9-1,2.5-.3.8-2.4.5-.3,1.4,2.2.9.5-.5.8-1.1.2-.4.7-1.6,1-2.4a8.083,8.083,0,0,0,2.2.7h.7v2.3c0,.8-1.9,1.3.3,1.3s.3-.6.3-1.3v-2.3c.3,0,.7-.1,1-.1.1.4.2.9.3,1.2.1.4-.8.9.3.6,1.1-.2.1-.3,0-.7a10.339,10.339,0,0,0-.3-1.2,6.187,6.187,0,0,0,2.8-1.4l.8.8c.8.9-.8,3.5,1.7,1.2s-.3-1-1-1.7a8.175,8.175,0,0,1-.8-.9,7.621,7.621,0,0,0,2-4c.6.2,1.4.4,1.8.5.7.2.7,1.9,1.2.1.5-1.9-.4-.4-1-.5-.3-.1-1.2-.3-1.9-.5a7.145,7.145,0,0,0-.2-2.1c.4-.1,1.1-.2,1.5-.3s.9.9.6-.3c-.2-1.1-.3-.1-.7,0-.3.1-1.1.2-1.5.3a4.179,4.179,0,0,0-.4-1c.7-.5,2.7-1.9,3.5-2.4C58.3,180.6,60.4,182.4,58.7,179.9Z" transform="matrix(0.259, 0.966, -0.966, 0.259, 1113.603, 147.907)" fill="#08A66D" opacity="0.44"/></g></svg>