<svg xmlns="http://www.w3.org/2000/svg" xmlns:xlink="http://www.w3.org/1999/xlink" width="342.802" height="342.802" viewBox="0 0 342.802 342.802"><defs><clipPath id="a"><circle cx="121.2" cy="121.2" r="121.2" transform="translate(-0.994 238.733) rotate(-45)"/></clipPath><clipPath id="c"><circle cx="121.2" cy="121.2" r="121.2" transform="translate(-0.994 238.733) rotate(-45)" fill="#70caff"/></clipPath></defs><g transform="translate(-1001.006 -180.617)"><g transform="translate(1002 113.284)" clip-path="url(#a)"><path d="M146.3,274s-12,7.6-15.8,29c-4,22.5-.9,71.6-4.1,137.5,14.1,8.5,30.2,6.4,48.9,5.7,21-.7,30.4-5.5,30.4-5.5S198,330.3,184.4,300.4c-8.8-19.2-16.5-26.5-16.5-26.5Z" fill="#dae1e2"/><path d="M146.5,296.1c9.7-.4,14.3,10.1,13.8,22.7-.6,16.5-1.8,44.9-2.7,52.7-.8,7.9-17.9,12.2-20.7-1.3-3.2-15.2-4.8-37.2-4.7-50.7C132.5,303.3,136.8,296.5,146.5,296.1Z" fill="#fcfdff"/><path d="M173.1,280.1s-9,2.6-16.3,1.5a37.875,37.875,0,0,1-14.6-5.1l5.4-3.8,21.6,1.8Z" fill="#fcfdff"/><path d="M147.2,272.9l.1-46.3,18.2.8,3.6,47C162.6,279.3,150.8,275.6,147.2,272.9Z" fill="#dae1e2"/><path d="M159.2,429.3c.3,1.1,7.6,10.1,7.6,10.1l7.1,11.8a2,2,0,0,1-.8,2.8l-1.1.5a3.946,3.946,0,0,1-3.5-2l-4.1-6.9,1.7,12.9a1.389,1.389,0,0,1-.2,1.1l-3.8,7.2a1.889,1.889,0,0,1-2.1.9l-.7-.2a1.842,1.842,0,0,1-1.4-2.2l1.7-8.4-2.7,8.3a1.813,1.813,0,0,1-2.5,1.1l-1.1-.4a1.986,1.986,0,0,1-1.2-1.6l-.1-1.8-.8.9a1.973,1.973,0,0,1-2.2.5l-.4-.2a1.848,1.848,0,0,1-1.1-1.7l-.5-30Z" fill="#fff"/><path d="M158.5,376.2l4.2,57.4c-2.4,3.1-12,3.8-16.1,1.4,0,0-7.6-49.5-9.2-58.1s-1.4-18.2,8.5-19.3C155.2,356.6,158.1,365.2,158.5,376.2Z" fill="#fcfdff"/><path d="M147.1,268.4s41.1,2.1,45.3-9.9c.6-1.8-1.7-13.2-3.7-21.3-3.1-11.9-8.9-26.5-16.3-34.3-12.3-12.9-41.1-24.4-52.9-11.4-9.2,10.2-24.6,35.7-1.1,58.9C124.9,256.7,131.5,266,147.1,268.4Z" fill="#fff"/><path d="M173.4,218.8h0l-.4-2.3c6.4,2.3,12.8,3,18.9,4-4.2,13.4-17.4,10.5-21-1.1a6.883,6.883,0,0,1,2.5-.6Z" fill="#fff"/><path d="M161.5,176.4v.2C161.6,176.5,161.6,176.5,161.5,176.4Z" fill="#8d5930"/><path d="M153.5,189.7l2.2.6A3.048,3.048,0,0,1,153.5,189.7Z" fill="#cf8f4b"/><path d="M142.1,243.1c3.4,4.9,6.3,20.2,3.5,26.9-10.4-2.5-22.4-5.3-31.3-11.4-8.7-5.9-22.1-21-16.1-38.3,4.7-18.1,8-22.8,14.2-26.6,4.9-3.1,15.3-8.5,22.9-8.9a39.15,39.15,0,0,1,10.8.9c2,.4,5.6,3,8.1,4.2l-1.1-.3c-2.4,5.6-16.6,4.6-16.9,10.8-.3,7.2,12.8,21.2,13.4,28.3C150.1,234.8,141.9,235.2,142.1,243.1Z" fill="#676767"/><path d="M138.3,240.9c4.2,4,12.2,6.2,14.8,3.5s1.4-8.2-2.8-12.2-11.1-8.1-14.4-4.3C133.5,230.9,134.1,237,138.3,240.9Z" fill="#fff"/><path d="M118.8,190.4c-3.5,1.6-2.8,2.8,1,5.2,2.6,1.6,13.2,8.7,15.5,6.6l1.7,1c4.6-1,10-3.5,14.3-5.6,2.4-1.2,7.2-3.2,9.3-5.1,4.9-4.7,5.5-23.5-1.2-24.8-6.8-1.3-7.8,6.2-7.8,6.2s3.4-9.4-4.5-9.2c-7.9.1-6.7,11-6.7,11s.1-2.1-1.5-1.9,0,2.4-2,4.7C130.5,185.7,124.2,187.8,118.8,190.4Z" fill="#676767"/><path d="M170.9,207.4c1.5,2,6.9,9.3,1.1,13.3s-9.5-6.4-9.5-6.4S168.3,209.3,170.9,207.4Z" fill="#dae1e2" opacity="0.48"/><path d="M169.2,207.7c-6.7,3.6-9.5,9.6-3.6,5.9C171.5,209.8,172.7,205.8,169.2,207.7Z" fill="#c2c2c2"/><path d="M169.7,221.1c-.2-4.5,4.3-5.3,5.9-2.3" fill="none" stroke="#c2c2c2" stroke-miterlimit="10" stroke-width="1.219"/><path d="M169.3,243.1a3.948,3.948,0,0,0,.4,2.1,5.155,5.155,0,0,0,1.3,1.7,5.8,5.8,0,0,0,3.7,1.7,12.57,12.57,0,0,0,4.3-.2,15.987,15.987,0,0,0,2.1-.5,16.554,16.554,0,0,1,2.1-.6c-.6.4-1.3.7-2,1.1a18.026,18.026,0,0,1-2.1.8,11.832,11.832,0,0,1-4.6.4,6.211,6.211,0,0,1-4.1-2.2,8.175,8.175,0,0,1-1.2-2A4.5,4.5,0,0,1,169.3,243.1Z" fill="#c2c2c2"/></g><g transform="translate(1002 113.284)" clip-path="url(#a)"><path d="M0,0H1.1V48.3H0Z" transform="matrix(0.581, -0.814, 0.814, 0.581, 197.046, 233.969)" fill="#3fb7f5"/><path d="M195.3,229.7c1.2.8,3.4,3.4,2.8,4.3s-3.8-.2-5-1a2.339,2.339,0,0,1-1-3.1C192.7,229,194.1,228.9,195.3,229.7Z" fill="#fff"/><path d="M240.9,262.1c-1.1-.8-4.3-2-5-1.1-.6.9,1.5,3.5,2.7,4.3,1.1.8,2.6.8,3.2-.1C242.5,264.3,242.1,263,240.9,262.1Z" fill="#fff"/></g><g transform="translate(1002 113.284)" clip-path="url(#c)"><path d="M295.5,295.5a85.551,85.551,0,0,1-22.1-11.8c-9.8-7.1-14.5-12.8-15.3-18.5-1.4-9.7-1.4-13.4-3.6-15.8a14.175,14.175,0,0,0-10.7-4.7c-3,.1-12.3,2.5-15.8,2.8-2.6.2-3.5.9-3.4,2.5.1,2.2,1.4,4,4.4,4.4a74.866,74.866,0,0,0,10.6,0c3.3-.2,8.5,4.7,4.4,10.8-2.8,4.1-8,4.9-10.4.1-1.9-3.8-2.1-6.5-3.9-8a6.917,6.917,0,0,0-4.8-1.5c-2,.1-4.1,2-2.9,2.9a7.433,7.433,0,0,1,3.5,6.7c-.1,3.3.9,11.3,2.2,14.3,1.7,4.2,10,6.8,19.6,18.1,9.6,11.2,14.6,16.3,17.5,24C282.6,316.5,293.1,303.3,295.5,295.5Z" fill="#3fb7f5"/></g></g></svg>