<svg xmlns="http://www.w3.org/2000/svg" width="240.271" height="170.545" viewBox="0 0 240.271 170.545"><g transform="translate(-1259.817 -138.358)"><path d="M562.4,58.1c-1.5-2.2-.8.1-1.5.6-.6.4-2.4,1.6-3.1,2.1a7.349,7.349,0,0,0-2.1-2.2c.4-.5.8-1,1-1.2.4-.5,2,.1.5-1s-.5.3-.9.7c-.2.2-.6.8-1,1.3a8.084,8.084,0,0,0-2.2-.7h-.2V56c0-.4,1.1-.7-.2-.7-1.2,0-.2.3-.2.7v1.7a7.8,7.8,0,0,0-2.2.3c-.2-.7-.4-2-.6-2.5-.2-.7,1.4-1.5-.5-1.1s-.1.6,0,1.2c.1.5.4,1.9.6,2.6-.3.1-.6.3-.9.4a10.474,10.474,0,0,0-.8-1.1c-.2-.3.4-1-.5-.4-.8.6.1.3.2.6a5.938,5.938,0,0,0,.8,1.1,6.653,6.653,0,0,0-2.2,2.5,27.383,27.383,0,0,1-2.8-1.1c-.8-.3-.6-2.7-1.6-.2-.9,2.4.5.6,1.3.9.5.2,1.9.7,2.8,1.1a8.333,8.333,0,0,0-.4,1.5,7.414,7.414,0,0,0,.1,2.1c-.7.2-2,.6-2.5.8-.7.2-1.7-1.3-1.1.6s.6.1,1.2-.1c.5-.1,1.8-.6,2.5-.8a7.453,7.453,0,0,0,2.1,3.2c-.4.3-.8.7-1.1.9-.4.3-1.3-.4-.5.6s.4-.1.7-.3a13.508,13.508,0,0,1,1.1-.9,1,1,0,0,1,.5.4c-.3.7-.7,1.7-.9,2.2-.3.7-2.2.4-.2,1.3,2,.8.5-.4.7-1,.2-.4.6-1.5.9-2.2a6.637,6.637,0,0,0,2,.6h.6v2c0,.7-1.8,1.2.2,1.2s.3-.5.3-1.1V70.9c.3,0,.6-.1.9-.1a6.532,6.532,0,0,1,.2,1.1c.1.4-.8.8.3.6,1-.2.1-.3,0-.6,0-.2-.2-.7-.2-1.1a5.816,5.816,0,0,0,2.5-1.2c.3.3.5.6.7.8.7.8-.7,3.1,1.5,1.1,2.2-2.1-.3-.9-.9-1.6-.2-.2-.4-.5-.7-.8a6.808,6.808,0,0,0,1.8-3.7c.6.2,1.3.3,1.6.4.6.2.6,1.8,1.1.1.4-1.7-.4-.3-.9-.5a14.574,14.574,0,0,0-1.7-.4,5.845,5.845,0,0,0-.2-1.9c.4-.1,1-.2,1.3-.3.4-.1.8.8.6-.2s-.3-.1-.6,0a7.894,7.894,0,0,0-1.3.3L558,62c.7-.5,2.4-1.7,3.1-2.2C562.1,58.8,563.9,60.4,562.4,58.1Z" transform="translate(797.792 234.803)" fill="#dae1e2" opacity="0.4"/><path d="M656,81.7c-3.6-5.2-1.9.3-3.4,1.4-1.3.9-5.5,3.8-7.2,5a16.22,16.22,0,0,0-5-5.1c.8-1.1,1.8-2.3,2.2-2.9.9-1.2,4.6.3,1.2-2.4-3.5-2.7-1.2.6-2,1.6-.4.6-1.5,1.9-2.4,3.1a15.178,15.178,0,0,0-5.1-1.6h-.4V76.9c0-1,2.5-1.7-.4-1.7-2.8,0-.4.8-.4,1.6v3.9a14.322,14.322,0,0,0-5.1.7c-.4-1.6-1.1-4.7-1.3-5.9-.4-1.6,3.4-3.6-1.2-2.6s-.3,1.4,0,2.8c.3,1.1,1,4.5,1.4,6.1a12.444,12.444,0,0,0-2,1c-.5-.7-1.4-2-1.8-2.5-.5-.7.9-2.4-1.1-1s.1.7.6,1.3c.3.5,1.3,1.8,1.8,2.5a14.588,14.588,0,0,0-5.2,5.8c-2.1-.8-5.2-2-6.5-2.5-2-.8-1.5-6.2-3.6-.6-2.2,5.7,1.3,1.3,3,2,1.2.4,4.4,1.7,6.5,2.5a13.574,13.574,0,0,0-.9,3.6,16.009,16.009,0,0,0,.2,4.9c-1.6.5-4.6,1.5-5.9,1.9-1.6.5-3.9-3.1-2.5,1.4s1.4.2,2.8-.2c1.1-.3,4.2-1.3,5.9-1.9a15.593,15.593,0,0,0,4.9,7.4c-.9.7-1.9,1.6-2.5,2-.8.7-3.1-.9-1.2,1.4,1.9,2.4.9-.2,1.6-.8.5-.4,1.7-1.4,2.6-2.1a5.67,5.67,0,0,0,1.3.8c-.7,1.7-1.7,4.1-2.2,5.2-.7,1.6-5.1,1-.6,2.9,4.6,1.9,1.1-1,1.7-2.4.4-.9,1.4-3.4,2.1-5.1a15.048,15.048,0,0,0,4.7,1.4,6.6,6.6,0,0,0,1.4.1v4.8c0,1.6-4.1,2.8.6,2.8s.6-1.3.6-2.7v-4.9a7.612,7.612,0,0,0,2.1-.3,23.333,23.333,0,0,0,.6,2.5c.2.8-1.8,1.9.6,1.3,2.4-.5.2-.7,0-1.4-.1-.5-.4-1.7-.6-2.6a14.2,14.2,0,0,0,5.9-2.9,20.922,20.922,0,0,1,1.6,1.8c1.7,1.8-1.7,7.3,3.5,2.5s-.6-2.1-2.1-3.6c-.4-.4-1-1.1-1.7-1.8a15.56,15.56,0,0,0,4.2-8.6c1.4.4,2.9.8,3.7,1,1.4.4,1.4,4.1,2.5.1s-.9-.8-2.2-1.1c-.7-.2-2.5-.7-4-1a16.414,16.414,0,0,0-.4-4.5c.9-.2,2.4-.5,3.1-.6.8-.2,1.8,1.8,1.4-.6-.5-2.4-.7-.2-1.4,0-.6.1-2.3.4-3.1.6a18.033,18.033,0,0,0-.8-2.1c1.5-1.1,5.7-3.9,7.3-5C655.2,83.2,659.5,86.8,656,81.7Z" transform="translate(786.996 146.285)" fill="#dae1e2" opacity="0.4"/><path d="M726.3,42.1c-1.5-2.2-.8.1-1.5.6-.6.4-2.4,1.6-3.1,2.1a7.349,7.349,0,0,0-2.1-2.2c.4-.5.8-1,1-1.2.4-.5,2,.1.5-1s-.5.3-.9.7c-.2.2-.6.8-1,1.3a8.084,8.084,0,0,0-2.2-.7h-.2V40c0-.4,1.1-.7-.2-.7-1.2,0-.2.3-.2.7v1.7a7.8,7.8,0,0,0-2.2.3c-.2-.7-.5-2-.6-2.5-.2-.7,1.4-1.5-.5-1.1s-.1.6,0,1.2c.1.5.4,1.9.6,2.6-.3.1-.6.3-.9.4a10.474,10.474,0,0,0-.8-1.1c-.2-.3.4-1-.5-.4-.8.6.1.3.2.6a5.938,5.938,0,0,0,.8,1.1,6.653,6.653,0,0,0-2.2,2.5,27.383,27.383,0,0,1-2.8-1.1c-.8-.3-.6-2.7-1.6-.2-.9,2.4.5.6,1.3.9.5.2,1.9.7,2.8,1.1a8.333,8.333,0,0,0-.4,1.5,7.414,7.414,0,0,0,.1,2.1c-.7.2-2,.6-2.5.8-.7.2-1.7-1.3-1.1.6s.6.1,1.2-.1c.5-.1,1.8-.6,2.5-.8a7.453,7.453,0,0,0,2.1,3.2c-.4.3-.8.7-1.1.9-.4.3-1.3-.4-.5.6s.4-.1.7-.3a13.508,13.508,0,0,1,1.1-.9,1,1,0,0,1,.5.4c-.3.7-.7,1.7-.9,2.2-.3.7-2.2.4-.2,1.3,2,.8.5-.4.7-1,.2-.4.6-1.5.9-2.2a6.637,6.637,0,0,0,2,.6h.6v2c0,.7-1.8,1.2.2,1.2s.3-.5.3-1.1V54.9c.3,0,.6-.1.9-.1a6.532,6.532,0,0,1,.2,1.1c.1.4-.8.8.3.6,1-.2.1-.3,0-.6,0-.2-.2-.7-.2-1.1a5.816,5.816,0,0,0,2.5-1.2c.3.3.5.6.7.8.7.8-.7,3.1,1.5,1.1,2.2-2.1-.3-.9-.9-1.6-.2-.2-.4-.5-.7-.8a6.808,6.808,0,0,0,1.8-3.7c.6.2,1.3.3,1.6.4.6.2.6,1.8,1.1.1.4-1.7-.4-.3-.9-.5a14.575,14.575,0,0,0-1.7-.4,5.845,5.845,0,0,0-.2-1.9c.4-.1,1-.2,1.3-.3.4-.1.8.8.6-.2s-.3-.1-.6,0a7.894,7.894,0,0,0-1.3.3l-.3-.9c.7-.5,2.4-1.7,3.1-2.2C726,42.8,727.8,44.3,726.3,42.1Z" transform="translate(773.214 126.62)" fill="#08A66D" opacity="0.4"/><path d="M513.5,29c-1.9-2.8-1,.2-1.9.7-.7.5-3,2.1-3.9,2.7a9.023,9.023,0,0,0-2.7-2.8,10.955,10.955,0,0,0,1.2-1.6c.5-.7,2.5.2.6-1.3s-.6.3-1.1.9c-.2.3-.8,1-1.3,1.7a11.494,11.494,0,0,0-2.8-.9h-.2V26.3c0-.5,1.3-.9-.2-.9s-.2.4-.2.9v2.1a8.627,8.627,0,0,0-2.8.4c-.2-.9-.6-2.5-.7-3.2-.2-.9,1.8-2-.6-1.4-2.5.6-.2.8,0,1.5.1.6.6,2.5.8,3.3a3.881,3.881,0,0,0-1.1.6c-.3-.4-.8-1.1-1-1.4-.3-.4.5-1.3-.6-.5s.1.4.3.7.7,1,1,1.4a8.934,8.934,0,0,0-2.9,3.2c-1.1-.4-2.8-1.1-3.6-1.4-1.1-.4-.8-3.4-2-.3s.7.7,1.6,1.1c.6.2,2.4.9,3.6,1.4a11.7,11.7,0,0,0-.5,2,8.172,8.172,0,0,0,.1,2.7c-.9.3-2.5.8-3.2,1-.9.3-2.1-1.7-1.4.8.8,2.5.8.1,1.5-.1.6-.2,2.3-.7,3.2-1a7.96,7.96,0,0,0,2.7,4c-.5.4-1.1.9-1.3,1.1-.5.4-1.7-.5-.6.8s.5-.1.9-.4c.3-.2.9-.8,1.4-1.2a4.233,4.233,0,0,0,.7.5c-.4.9-.9,2.2-1.2,2.8-.4.9-2.8.6-.3,1.6s.6-.5.9-1.3c.2-.5.8-1.9,1.2-2.8a11.224,11.224,0,0,0,2.6.8,2.2,2.2,0,0,1,.8.1v2.6c0,.9-2.2,1.5.3,1.5,2.6,0,.3-.7.3-1.5V45.1c.4,0,.8-.1,1.2-.1.1.5.2,1.1.3,1.4.1.5-1,1,.3.7s.1-.4,0-.8c-.1-.3-.2-.9-.3-1.4a7.447,7.447,0,0,0,3.2-1.6,7.3,7.3,0,0,1,.9,1c.9,1-.9,4,1.9,1.4s-.3-1.1-1.1-2c-.2-.2-.5-.6-.9-1a8.378,8.378,0,0,0,2.3-4.7c.7.2,1.6.4,2,.5.8.2.8,2.2,1.4.1.6-2.2-.5-.4-1.2-.6-.4-.1-1.4-.4-2.2-.6a6.883,6.883,0,0,0-.2-2.5,12.232,12.232,0,0,1,1.7-.3c.5-.1,1,1,.7-.3s-.4-.1-.8,0c-.3.1-1.2.2-1.7.3-.1-.4-.3-.8-.4-1.1.8-.6,3.1-2.1,4-2.8C513.1,29.9,515.5,31.8,513.5,29Z" transform="translate(772.403 118.607)" fill="#08A66D" opacity="0.4"/><path d="M602.06,40.7c-1.258-2.013-.755,0-1.258.5a26.536,26.536,0,0,1-2.768,1.762,3.966,3.966,0,0,0-1.762-1.762c.252-.5.755-.755.755-1.007.252-.5,1.762,0,.5-.755-1.258-1.007-.5.252-.755.5s-.5.755-.755,1.007a4.666,4.666,0,0,0-1.762-.5h-.252V38.94c0-.252,1.007-.5-.252-.5-1.007,0-.252.252-.252.5v1.51a3.732,3.732,0,0,0-1.762.252,7.352,7.352,0,0,1-.5-2.265c-.252-.5,1.258-1.258-.5-1.007-1.762.5,0,.5,0,1.007a7.348,7.348,0,0,0,.5,2.265c-.252,0-.5.252-.755.252-.252-.252-.5-.755-.755-1.007s.252-1.007-.5-.252c-.755.5,0,.252.252.5,0,.252.5.755.755,1.007a5.941,5.941,0,0,0-2.013,2.265,26.1,26.1,0,0,1-2.517-1.007c-.755-.252-.5-2.265-1.258-.252s.5.5,1.007.755,1.51.5,2.517,1.007a2.27,2.27,0,0,0-.252,1.258v1.762c-.5.252-1.762.5-2.265.755s-1.51-1.258-1.007.5.5,0,1.007,0a11.851,11.851,0,0,0,2.265-.755,6.516,6.516,0,0,0,1.762,2.769c-.252.252-.755.5-1.007.755s-1.258-.252-.5.5.252,0,.5-.252.755-.5,1.007-.755c.252,0,.252.252.5.252-.252.5-.5,1.51-.755,2.013s-1.762.5-.252,1.007c1.762.755.5-.252.5-.755a8.521,8.521,0,0,0,.755-2.013,3.638,3.638,0,0,0,1.762.5h.5v1.762c0,.5-1.51,1.007.252,1.007s.252-.5.252-1.007V51.524h.755c0,.252.252.755.252,1.007s-.755.755.252.5c.755-.252,0-.252,0-.5s-.252-.5-.252-1.007a8.942,8.942,0,0,0,2.265-1.007c.252.252.5.5.5.755.5.755-.5,2.769,1.258,1.007,2.013-1.762-.252-.755-.755-1.258-.252-.252-.252-.5-.5-.755a6.858,6.858,0,0,0,1.51-3.02,2.737,2.737,0,0,0,1.258.252c.5.252.5,1.51,1.007,0s-.252-.252-.755-.5a5.216,5.216,0,0,1-1.51-.5,4.913,4.913,0,0,0-.252-1.762,5.71,5.71,0,0,0,1.007-.252c.252,0,.755.755.5-.252-.252-.755-.252,0-.5,0a10.894,10.894,0,0,1-1.258.252c0-.252-.252-.5-.252-.755A10.394,10.394,0,0,1,600.3,41.96C601.556,41.205,603.318,42.715,602.06,40.7Z" transform="translate(794.967 100.978)" fill="#08A66D" opacity="0.4"/><path d="M562.4,58.1c-1.5-2.2-.8.1-1.5.6-.6.4-2.4,1.6-3.1,2.1a7.349,7.349,0,0,0-2.1-2.2c.4-.5.8-1,1-1.2.4-.5,2,.1.5-1s-.5.3-.9.7c-.2.2-.6.8-1,1.3a8.084,8.084,0,0,0-2.2-.7h-.2V56c0-.4,1.1-.7-.2-.7-1.2,0-.2.3-.2.7v1.7a7.8,7.8,0,0,0-2.2.3c-.2-.7-.4-2-.6-2.5-.2-.7,1.4-1.5-.5-1.1s-.1.6,0,1.2c.1.5.4,1.9.6,2.6-.3.1-.6.3-.9.4a10.474,10.474,0,0,0-.8-1.1c-.2-.3.4-1-.5-.4-.8.6.1.3.2.6a5.938,5.938,0,0,0,.8,1.1,6.653,6.653,0,0,0-2.2,2.5,27.383,27.383,0,0,1-2.8-1.1c-.8-.3-.6-2.7-1.6-.2-.9,2.4.5.6,1.3.9.5.2,1.9.7,2.8,1.1a8.333,8.333,0,0,0-.4,1.5,7.414,7.414,0,0,0,.1,2.1c-.7.2-2,.6-2.5.8-.7.2-1.7-1.3-1.1.6s.6.1,1.2-.1c.5-.1,1.8-.6,2.5-.8a7.453,7.453,0,0,0,2.1,3.2c-.4.3-.8.7-1.1.9-.4.3-1.3-.4-.5.6s.4-.1.7-.3a13.508,13.508,0,0,1,1.1-.9,1,1,0,0,1,.5.4c-.3.7-.7,1.7-.9,2.2-.3.7-2.2.4-.2,1.3,2,.8.5-.4.7-1,.2-.4.6-1.5.9-2.2a6.637,6.637,0,0,0,2,.6h.6v2c0,.7-1.8,1.2.2,1.2s.3-.5.3-1.1V70.9c.3,0,.6-.1.9-.1a6.532,6.532,0,0,1,.2,1.1c.1.4-.8.8.3.6,1-.2.1-.3,0-.6,0-.2-.2-.7-.2-1.1a5.816,5.816,0,0,0,2.5-1.2c.3.3.5.6.7.8.7.8-.7,3.1,1.5,1.1,2.2-2.1-.3-.9-.9-1.6-.2-.2-.4-.5-.7-.8a6.808,6.808,0,0,0,1.8-3.7c.6.2,1.3.3,1.6.4.6.2.6,1.8,1.1.1.4-1.7-.4-.3-.9-.5a14.574,14.574,0,0,0-1.7-.4,5.845,5.845,0,0,0-.2-1.9c.4-.1,1-.2,1.3-.3.4-.1.8.8.6-.2s-.3-.1-.6,0a7.894,7.894,0,0,0-1.3.3L558,62c.7-.5,2.4-1.7,3.1-2.2C562.1,58.8,563.9,60.4,562.4,58.1Z" transform="translate(787.158 134.061)" fill="#dae1e2" opacity="0.4"/><path d="M513.256,28.954c-1.882-2.774-.991.2-1.882.693-.693.5-2.972,2.08-3.864,2.675a8.938,8.938,0,0,0-2.675-2.774,10.858,10.858,0,0,0,1.189-1.585c.5-.693,2.477.2.594-1.288s-.594.3-1.09.892c-.2.3-.793.991-1.288,1.684a11.386,11.386,0,0,0-2.774-.892h-.2v-2.08c0-.5,1.288-.892-.2-.892s-.2.4-.2.892v2.08a8.547,8.547,0,0,0-2.774.4c-.2-.892-.594-2.477-.693-3.17-.2-.892,1.783-1.981-.594-1.387-2.477.594-.2.793,0,1.486.1.594.594,2.477.792,3.269a3.845,3.845,0,0,0-1.09.594c-.3-.4-.792-1.09-.991-1.387-.3-.4.5-1.288-.594-.5s.1.4.3.693.693.991.991,1.387a8.851,8.851,0,0,0-2.873,3.17c-1.09-.4-2.774-1.09-3.566-1.387-1.09-.4-.793-3.368-1.981-.3s.693.693,1.585,1.09c.594.2,2.378.892,3.566,1.387a11.588,11.588,0,0,0-.5,1.981,8.094,8.094,0,0,0,.1,2.675c-.892.3-2.477.793-3.17.991-.892.3-2.08-1.684-1.387.793.792,2.477.792.1,1.486-.1.594-.2,2.279-.693,3.17-.991a7.885,7.885,0,0,0,2.675,3.963c-.5.4-1.09.892-1.288,1.09-.5.4-1.684-.5-.594.793s.5-.1.892-.4c.3-.2.892-.793,1.387-1.189a4.191,4.191,0,0,0,.693.5c-.4.892-.892,2.179-1.189,2.774-.4.892-2.774.594-.3,1.585s.594-.5.892-1.288c.2-.5.793-1.882,1.189-2.774a11.12,11.12,0,0,0,2.576.793,2.181,2.181,0,0,1,.793.1v2.576c0,.892-2.179,1.486.3,1.486,2.576,0,.3-.693.3-1.486V44.9c.4,0,.793-.1,1.189-.1.1.5.2,1.09.3,1.387.1.5-.991.991.3.693s.1-.4,0-.793c-.1-.3-.2-.892-.3-1.387a7.378,7.378,0,0,0,3.17-1.585,7.229,7.229,0,0,1,.892.991c.892.991-.892,3.963,1.882,1.387s-.3-1.09-1.09-1.981c-.2-.2-.5-.594-.892-.991A8.3,8.3,0,0,0,508.7,37.87c.693.2,1.585.4,1.981.5.792.2.792,2.179,1.387.1.594-2.179-.5-.4-1.189-.594-.4-.1-1.387-.4-2.179-.594a6.818,6.818,0,0,0-.2-2.477,12.117,12.117,0,0,1,1.684-.3c.5-.1.991.991.693-.3s-.4-.1-.792,0c-.3.1-1.189.2-1.684.3-.1-.4-.3-.793-.4-1.09.793-.594,3.071-2.08,3.963-2.774C512.86,29.845,515.238,31.727,513.256,28.954Z" transform="translate(778.157 212.972)" fill="#fff" opacity="0.4"/></g></svg>