<svg xmlns="http://www.w3.org/2000/svg" width="54" height="54" viewBox="0 0 54 54"><path d="M27,0A27,27,0,0,0,4.454,41.852L0,54l12.564-4.188A27,27,0,1,0,27,0Z" fill="#08A66D"/><path d="M144.549,145.89v4.485a2.994,2.994,0,0,1-2.984,3c-.094,0-.188,0-.282-.012a29.673,29.673,0,0,1-12.927-4.59,29.19,29.19,0,0,1-8.988-8.971,29.55,29.55,0,0,1-4.6-12.962,2.992,2.992,0,0,1,2.714-3.247c.089-.007.178-.011.267-.011h4.494a2.994,2.994,0,0,1,3,2.572,19.214,19.214,0,0,0,1.048,4.2,2.986,2.986,0,0,1-.674,3.154l-1.9,1.9a23.945,23.945,0,0,0,8.988,8.971l1.9-1.9a3,3,0,0,1,3.161-.673,19.227,19.227,0,0,0,4.209,1.046A2.992,2.992,0,0,1,144.549,145.89Z" transform="translate(-102.654 -110.549)" fill="#fff"/></svg>