<svg xmlns="http://www.w3.org/2000/svg" width="76.169" height="73.974" viewBox="0 0 76.169 73.974"><path d="M74.321,54.36a1.521,1.521,0,0,0-.151-.024A1.487,1.487,0,0,0,72.554,55.5,29.19,29.19,0,0,1,57.763,75.026l-5.684-5.686a2.628,2.628,0,0,1-.775-1.87V62.994a2.628,2.628,0,0,1,.775-1.87l8.39-8.39a9.094,9.094,0,0,0,2.681-6.473v-5.69A5.821,5.821,0,0,0,57.382,34.8a1.9,1.9,0,0,1-1.9-1.9V31.111a1.9,1.9,0,0,1,1.9-1.9h7.562A29.1,29.1,0,0,1,72.5,43.12a1.488,1.488,0,0,0,1.775,1.129A1.593,1.593,0,0,0,75.4,42.473a32.213,32.213,0,0,0-29.76-24.918,8.429,8.429,0,0,0,.724-3.7l-.086-2.634a3.9,3.9,0,0,0-3.757-3.757l-2.633-.086a8.424,8.424,0,0,0-6.4,2.635l-.025.027-4.628,5.147L10.542,8.577a1.488,1.488,0,0,0-1.558.347L5.368,12.541a1.488,1.488,0,0,0,.2,2.273l14.522,10.1-8.283,9.214a2.682,2.682,0,0,1-2.464.854l-3.64-.628a1.489,1.489,0,0,0-1.3.414L.436,38.732a1.488,1.488,0,0,0,.517,2.44L9.345,44.4,12.5,52.591a32.273,32.273,0,0,0,31.757,28.76,32.208,32.208,0,0,0,31.21-25.225A1.488,1.488,0,0,0,74.321,54.36ZM36.139,27.092,41.5,42.755l-1.689,1.689L31.1,31.622Zm-27.41-13.7L10.42,11.7l16.268,5.882L22.1,22.684Zm2.3,28.478L4.158,39.218l1.8-1.8,2.88.5a5.643,5.643,0,0,0,5.182-1.8l21.64-24.069a5.459,5.459,0,0,1,4.132-1.692l2.634.086a.913.913,0,0,1,.881.881l.086,2.634A5.459,5.459,0,0,1,41.7,18.088L17.633,39.727a5.7,5.7,0,0,0-1.8,5.183l.5,2.88-1.8,1.8-2.647-6.873a1.488,1.488,0,0,0-.854-.854Zm22.2,26.817V76.2A29.1,29.1,0,0,1,18.676,62.982l3.611-3.61a.805.805,0,0,1,.575-.238h8.065a3.767,3.767,0,0,0,2.682-1.111l1.44-1.44a.827.827,0,0,1,1.155,0l3.2,3.2a.817.817,0,0,1,0,1.155L34.337,66A3.767,3.767,0,0,0,33.226,68.682ZM36.2,77.236V68.682a.813.813,0,0,1,.24-.578l5.066-5.064a3.9,3.9,0,0,0,0-5.364l-3.2-3.2a3.828,3.828,0,0,0-5.363,0l-1.44,1.44a.813.813,0,0,1-.579.24H22.863a3.759,3.759,0,0,0-2.681,1.111L17.347,60.1a28.784,28.784,0,0,1-1.834-7.286l3.469-3.468a1.487,1.487,0,0,0,.414-1.3L18.768,44.4a2.711,2.711,0,0,1,.854-2.463l9.244-8.311,9.5,13.975a1.5,1.5,0,0,0,2.282.216L44.263,44.2a1.488,1.488,0,0,0,.356-1.534l-6.075-17.74,4.915-4.419c.262-.007.528-.011.8-.011A29.009,29.009,0,0,1,61.55,26.235H57.383a4.88,4.88,0,0,0-4.874,4.875V32.9a4.879,4.879,0,0,0,4.874,4.874,2.818,2.818,0,0,1,2.792,2.792v5.69a6.138,6.138,0,0,1-1.809,4.369l-8.39,8.39a5.583,5.583,0,0,0-1.647,3.974v4.476a5.583,5.583,0,0,0,1.646,3.974l4.9,4.905a28.954,28.954,0,0,1-18.679.887Z" transform="translate(0 -7.377)" fill="#08a66d"/><path d="M494.955,281.307a1.487,1.487,0,1,0-1.169,1.749A1.5,1.5,0,0,0,494.955,281.307Z" transform="translate(-418.815 -239.537)" fill="#08a66d"/></svg>