<svg xmlns="http://www.w3.org/2000/svg" width="168" height="144" viewBox="0 0 168 144"><g transform="translate(-324 -788)"><path d="M98.62.931C85.5-1.314,56.586,3.8,51.469,25.689c-3.4,14.551-3.3,26.422-11.888,26.645-5.109.132-7.773-10.446-14.826-11.316-9.205-1.136-15.594,6.529-19.581,13.47-8.771,15.27-6.028,41.237,5.506,53.9,27.934,30.668,61.106-1.4,75.289-26.477,9.1-16.081,29.619-29.081,33.893-47.209C123.44,19.525,115.5,3.818,98.62.931Z" transform="translate(347.646 800.455)" fill="#dcdcdc" opacity="0.5"/><g transform="translate(374.859 820.865)" opacity="0.1"><path d="M140.847,85.127H118.736a3.265,3.265,0,0,0,0,6.531h.731v74.32a10.325,10.325,0,0,0,20.649,0V91.658h.731a3.265,3.265,0,0,0,0-6.531Z" transform="translate(-115.471 -85.127)" fill="#08A66D"/><path d="M308.15,85.127H286.039a3.265,3.265,0,0,0,0,6.531h.731v74.32a10.325,10.325,0,0,0,20.649,0V91.658h.731a3.265,3.265,0,0,0,0-6.531Z" transform="translate(-243.332 -85.127)" fill="#08A66D"/></g><g transform="translate(375.041 814.971)"><path d="M142.747,164.263a10.324,10.324,0,0,1-10.325-10.325V77.086h20.649v76.852a10.325,10.325,0,0,1-10.325,10.325Z" transform="translate(-128.426 -73.088)" fill="#fff"/><path d="M153.074,215.463v44.23a10.325,10.325,0,1,1-20.65,0v-44.23Z" transform="translate(-128.427 -178.842)" fill="#04c27e" opacity="0.4"/><path d="M160.861,271.662v30.973a10.261,10.261,0,0,1-.969,4.368,17.678,17.678,0,0,1,.4-35.351c.191,0,.38,0,.568.009Z" transform="translate(-136.215 -221.785)" fill="#fff"/><path d="M199.124,332.079a7.106,7.106,0,0,0,0,14.15Z" transform="translate(-174.478 -267.966)" fill="#04c27e" opacity="0.4"/><path d="M141.427,294.627a5.84,5.84,0,0,1-9,4.908v-9.819a5.84,5.84,0,0,1,9,4.911Z" transform="translate(-128.427 -234.878)" fill="#fff"/><path d="M132.422,270.72a5.387,5.387,0,0,0,0-10.726Z" transform="translate(-128.426 -212.875)" fill="#fff"/><path d="M140.847,66.658H118.736a3.265,3.265,0,0,1,0-6.531h22.111a3.265,3.265,0,1,1,0,6.531Z" transform="translate(-115.471 -60.127)" fill="#fff"/></g><g transform="translate(390.58 836.452)"><path d="M185.292,153.6h-2.729a1.179,1.179,0,1,1,0-2.358h2.729a1.179,1.179,0,1,1,0,2.358Z" transform="translate(-181.385 -151.246)" fill="#08a66d"/></g><g transform="translate(390.58 845.43)"><path d="M185.292,191.682h-2.729a1.179,1.179,0,1,1,0-2.358h2.729a1.179,1.179,0,0,1,0,2.358Z" transform="translate(-181.385 -189.324)" fill="#08a66d"/></g><g transform="translate(390.58 854.406)"><path d="M185.292,229.76h-2.729a1.179,1.179,0,1,1,0-2.358h2.729a1.179,1.179,0,1,1,0,2.358Z" transform="translate(-181.385 -227.403)" fill="#08a66d"/></g><g transform="translate(390.58 863.384)"><path d="M185.292,267.839h-2.729a1.179,1.179,0,1,1,0-2.358h2.729a1.179,1.179,0,1,1,0,2.358Z" transform="translate(-181.385 -265.481)" fill="#08a66d"/></g><g transform="translate(390.58 872.36)"><path d="M185.292,305.918h-2.729a1.179,1.179,0,1,1,0-2.358h2.729a1.179,1.179,0,1,1,0,2.358Z" transform="translate(-181.385 -303.56)" fill="#08a66d"/></g><g transform="translate(390.58 881.338)"><path d="M185.292,344h-2.729a1.179,1.179,0,1,1,0-2.358h2.729a1.179,1.179,0,0,1,0,2.358Z" transform="translate(-181.385 -341.638)" fill="#08a66d"/></g><g transform="translate(390.58 890.314)"><path d="M185.292,382.075h-2.729a1.179,1.179,0,1,1,0-2.358h2.729a1.179,1.179,0,0,1,0,2.358Z" transform="translate(-181.385 -379.717)" fill="#08a66d"/></g><g transform="translate(373.68 813.793)"><path d="M310.05,164.263a10.324,10.324,0,0,1-10.325-10.325V77.086h20.649v76.852a10.325,10.325,0,0,1-10.325,10.325Z" transform="translate(-255.108 -71.909)" fill="#fff"/><path d="M320.38,215.46v44.229a10.325,10.325,0,1,1-20.65,0V215.46Z" transform="translate(-255.112 -177.661)" fill="#04c27e" opacity="0.4"/><path d="M338.469,183.389v7.554H323.4a17.66,17.66,0,0,1,14.5-7.563C338.092,183.38,338.281,183.382,338.469,183.389Z" transform="translate(-273.201 -153.144)" fill="#04c27e" opacity="0.4"/><path d="M328.167,215.46v23.42a10.262,10.262,0,0,1-.969,4.368,17.68,17.68,0,0,1-14.1-27.788Z" transform="translate(-262.899 -177.661)" fill="#fff"/><path d="M369.727,200.98v3.414H364.3A7.094,7.094,0,0,1,369.727,200.98Z" transform="translate(-304.459 -166.595)" fill="#fff"/><path d="M366.425,215.46V226.2a7.108,7.108,0,0,1-6.445-7.075A7.033,7.033,0,0,1,361,215.46Z" transform="translate(-301.157 -177.661)" fill="#04c27e" opacity="0.4"/><g transform="translate(40.621 1.179)"><path d="M308.729,352.319a5.84,5.84,0,0,1-9,4.908v-9.819a5.84,5.84,0,0,1,9,4.911Z" transform="translate(-295.73 -278.969)" fill="#fff"/><path d="M299.724,328.413a5.386,5.386,0,0,0,0-10.726Z" transform="translate(-295.728 -256.967)" fill="#fff"/><path d="M308.15,66.658H286.039a3.265,3.265,0,0,1,0-6.531H308.15a3.265,3.265,0,0,1,0,6.531Z" transform="translate(-282.774 -60.127)" fill="#fff"/></g><g transform="translate(0)"><path d="M137.025,55.127h-11.7a1.179,1.179,0,1,0,0,2.358h11.7a2.087,2.087,0,1,1,0,4.173H114.914a2.087,2.087,0,1,1,0-4.173h3.553a1.179,1.179,0,0,0,0-2.358h-3.553a4.444,4.444,0,0,0-.448,8.866v73.164a11.5,11.5,0,0,0,23.007,0V63.993a4.444,4.444,0,0,0-.448-8.866ZM125.97,146.3a9.156,9.156,0,0,1-9.146-9.146V64.016h18.292v73.141A9.156,9.156,0,0,1,125.97,146.3Z" transform="translate(-110.47 -55.127)" fill="#08a66d"/><path d="M308.772,59.571a4.449,4.449,0,0,0-4.444-4.444H282.217a4.444,4.444,0,1,0,0,8.889h20.2v73.141a9.146,9.146,0,1,1-18.292,0V69.7a1.179,1.179,0,1,0-2.358,0v67.459a11.5,11.5,0,0,0,23.007,0V63.993a4.45,4.45,0,0,0,4-4.422Zm-4.444,2.087H282.217a2.087,2.087,0,1,1,0-4.174h22.111a2.087,2.087,0,1,1,0,4.174Z" transform="translate(-238.331 -55.127)" fill="#08a66d"/></g></g><g transform="translate(429.65 836.453)"><path d="M352.6,153.6h-2.729a1.179,1.179,0,1,1,0-2.358H352.6a1.179,1.179,0,0,1,0,2.358Z" transform="translate(-348.688 -151.246)" fill="#08a66d"/></g><g transform="translate(429.65 845.43)"><path d="M352.6,191.682h-2.729a1.179,1.179,0,1,1,0-2.358H352.6a1.179,1.179,0,0,1,0,2.358Z" transform="translate(-348.688 -189.324)" fill="#08a66d"/></g><g transform="translate(429.65 854.406)"><path d="M352.6,229.76h-2.729a1.179,1.179,0,1,1,0-2.358H352.6a1.179,1.179,0,0,1,0,2.358Z" transform="translate(-348.688 -227.403)" fill="#08a66d"/></g><g transform="translate(429.65 863.384)"><path d="M352.6,267.839h-2.729a1.179,1.179,0,1,1,0-2.358H352.6a1.179,1.179,0,0,1,0,2.358Z" transform="translate(-348.688 -265.481)" fill="#08a66d"/></g><g transform="translate(429.65 872.361)"><path d="M352.6,305.918h-2.729a1.179,1.179,0,1,1,0-2.358H352.6a1.179,1.179,0,0,1,0,2.358Z" transform="translate(-348.688 -303.56)" fill="#08a66d"/></g><g transform="translate(429.65 881.338)"><path d="M352.6,344h-2.729a1.179,1.179,0,0,1,0-2.358H352.6a1.179,1.179,0,0,1,0,2.358Z" transform="translate(-348.688 -341.638)" fill="#08a66d"/></g><g transform="translate(429.65 890.315)"><path d="M352.6,382.075h-2.729a1.179,1.179,0,0,1,0-2.358H352.6a1.179,1.179,0,0,1,0,2.358Z" transform="translate(-348.688 -379.717)" fill="#08a66d"/></g><g transform="translate(447.004 873.22)" opacity="0.4"><g transform="translate(2.852)"><path d="M436.256,309.594a1.179,1.179,0,0,1-1.179-1.179v-.035a1.179,1.179,0,0,1,2.358,0v.035A1.179,1.179,0,0,1,436.256,309.594Z" transform="translate(-435.077 -307.201)" fill="#08a66d"/><path d="M436.256,337.378a1.179,1.179,0,0,1-1.179-1.179v-.035a1.179,1.179,0,0,1,2.358,0v.035A1.179,1.179,0,0,1,436.256,337.378Z" transform="translate(-435.077 -328.435)" fill="#08a66d"/></g><g transform="translate(0 1.646)"><path d="M424.189,316.56a1.172,1.172,0,0,1-.589-.159l-.031-.018a1.179,1.179,0,1,1,1.181-2.04l.031.018a1.179,1.179,0,0,1-.592,2.2Z" transform="translate(-422.98 -314.184)" fill="#08a66d"/><path d="M448.25,330.451a1.173,1.173,0,0,1-.59-.159l-.031-.018a1.179,1.179,0,0,1,1.181-2.04l.031.018a1.179,1.179,0,0,1-.592,2.2Z" transform="translate(-441.369 -324.801)" fill="#08a66d"/></g><g transform="translate(0 1.646)"><path d="M424.16,330.452a1.179,1.179,0,0,1-.592-2.2l.031-.018a1.179,1.179,0,0,1,1.181,2.04l-.031.018A1.176,1.176,0,0,1,424.16,330.452Z" transform="translate(-422.98 -324.801)" fill="#08a66d"/><path d="M448.222,316.559a1.179,1.179,0,0,1-.592-2.2l.031-.018a1.179,1.179,0,0,1,1.181,2.04l-.031.018A1.174,1.174,0,0,1,448.222,316.559Z" transform="translate(-441.369 -314.183)" fill="#08a66d"/></g></g><path d="M416.262,261.06a1.179,1.179,0,0,1-1.179-1.179,1.5,1.5,0,0,0-1.493-1.493,1.179,1.179,0,1,1,0-2.358,1.5,1.5,0,0,0,1.493-1.493,1.179,1.179,0,1,1,2.358,0,1.5,1.5,0,0,0,1.493,1.493,1.179,1.179,0,0,1,0,2.358,1.5,1.5,0,0,0-1.493,1.493A1.179,1.179,0,0,1,416.262,261.06Z" transform="translate(32.125 607.167)" fill="#08a66d" opacity="0.4"/><path d="M82.87,123.92a1.179,1.179,0,0,1-1.179-1.179,1.5,1.5,0,0,0-1.493-1.493,1.179,1.179,0,1,1,0-2.358,1.5,1.5,0,0,0,1.493-1.493,1.179,1.179,0,0,1,2.358,0,1.5,1.5,0,0,0,1.493,1.493,1.179,1.179,0,0,1,0,2.358,1.5,1.5,0,0,0-1.493,1.493A1.179,1.179,0,0,1,82.87,123.92Z" transform="translate(287.572 711.977)" fill="#08a66d" opacity="0.4"/><path d="M254.069,397.591a1.179,1.179,0,0,1-1.179-1.179,1.5,1.5,0,0,0-1.493-1.493,1.179,1.179,0,1,1,0-2.358,1.5,1.5,0,0,0,1.493-1.493,1.179,1.179,0,0,1,2.358,0,1.5,1.5,0,0,0,1.493,1.493,1.179,1.179,0,1,1,0,2.358,1.5,1.5,0,0,0-1.493,1.493A1.179,1.179,0,0,1,254.069,397.591Z" transform="translate(156.398 502.824)" fill="#08a66d" opacity="0.4"/><g transform="translate(360.934 836.969)" opacity="0.4"><g transform="translate(2.852)"><path d="M68.1,155.828a1.179,1.179,0,0,1-1.179-1.179v-.035a1.179,1.179,0,0,1,2.358,0v.035A1.179,1.179,0,0,1,68.1,155.828Z" transform="translate(-66.923 -153.435)" fill="#08a66d"/><path d="M68.1,183.613a1.179,1.179,0,0,1-1.179-1.179V182.4a1.179,1.179,0,0,1,2.358,0v.035A1.179,1.179,0,0,1,68.1,183.613Z" transform="translate(-66.923 -174.67)" fill="#08a66d"/></g><g transform="translate(0 1.646)"><path d="M56.035,162.793a1.172,1.172,0,0,1-.589-.159l-.031-.018a1.179,1.179,0,0,1,1.181-2.04l.031.018a1.179,1.179,0,0,1-.592,2.2Z" transform="translate(-54.826 -160.417)" fill="#08a66d"/><path d="M80.1,176.685a1.173,1.173,0,0,1-.589-.159l-.031-.018a1.179,1.179,0,0,1,1.181-2.04l.031.018a1.179,1.179,0,0,1-.592,2.2Z" transform="translate(-73.215 -171.034)" fill="#08a66d"/></g><g transform="translate(0 1.646)"><path d="M56.006,176.685a1.179,1.179,0,0,1-.592-2.2l.031-.018a1.179,1.179,0,0,1,1.181,2.04l-.031.018A1.172,1.172,0,0,1,56.006,176.685Z" transform="translate(-54.826 -171.034)" fill="#08a66d"/><path d="M80.068,162.793a1.179,1.179,0,0,1-.592-2.2l.031-.018a1.179,1.179,0,0,1,1.181,2.04l-.031.018A1.172,1.172,0,0,1,80.068,162.793Z" transform="translate(-73.215 -160.417)" fill="#08a66d"/></g></g><rect width="168" height="144" transform="translate(324 788)" fill="none"/></g></svg>