<svg xmlns="http://www.w3.org/2000/svg" width="28.8" height="28.735" viewBox="0 0 28.8 28.735"><g transform="translate(-10 -9.9)"><g transform="translate(10 9.9)"><path d="M5.8-438.32H-17.133A2.892,2.892,0,0,1-20-441.187v-21.046a2.656,2.656,0,0,1,2.411-2.867h1.433v1.89h-1.433c-.2,0-.456.391-.456.977v21.046a1,1,0,0,0,.977.977H5.868a1,1,0,0,0,.977-.977v-21.046c0-.586-.326-.977-.456-.977H4.956v-1.89H6.389A2.7,2.7,0,0,1,8.8-462.233v21.046a3.1,3.1,0,0,1-3,2.867" transform="translate(20 467.055)" fill="#c2c2c2"/><path d="M-10.223-462.3a1,1,0,0,1-.977-.977v-3.844a1,1,0,0,1,.977-.977,1,1,0,0,1,.977.977v3.844a1.051,1.051,0,0,1-.977.977" transform="translate(16.934 468.1)" fill="#c2c2c2"/><path d="M13.177-462.3a1,1,0,0,1-.977-.977v-3.844a1,1,0,0,1,.977-.977,1,1,0,0,1,.977.977v3.844a1,1,0,0,1-.977.977" transform="translate(8.781 468.1)" fill="#c2c2c2"/><path d="M-5.3-465.1H4.213v1.955H-5.3Z" transform="translate(14.878 467.055)" fill="#c2c2c2"/><path d="M-17.1-456.3H7.79v1.955H-17.1Z" transform="translate(18.99 463.989)" fill="#c2c2c2"/><path d="M15.2-450.4h1.89v1.89H15.2Z" transform="translate(7.736 461.933)" fill="#c2c2c2"/><path d="M9.3-450.4h1.955v1.89H9.3Z" transform="translate(9.791 461.933)" fill="#c2c2c2"/><path d="M3.5-450.4H5.39v1.89H3.5Z" transform="translate(11.812 461.933)" fill="#c2c2c2"/><path d="M-2.4-450.4H-.51v1.89H-2.4Z" transform="translate(13.868 461.933)" fill="#c2c2c2"/><path d="M-8.3-450.4h1.955v1.89H-8.3Z" transform="translate(15.924 461.933)" fill="#c2c2c2"/><path d="M15.2-444.5h1.89v1.89H15.2Z" transform="translate(7.736 459.877)" fill="#c2c2c2"/><path d="M9.3-444.5h1.955v1.89H9.3Z" transform="translate(9.791 459.877)" fill="#c2c2c2"/><path d="M3.5-444.5H5.39v1.89H3.5Z" transform="translate(11.812 459.877)" fill="#c2c2c2"/><path d="M-2.4-444.5H-.51v1.89H-2.4Z" transform="translate(13.868 459.877)" fill="#c2c2c2"/><path d="M-8.3-444.5h1.955v1.89H-8.3Z" transform="translate(15.924 459.877)" fill="#c2c2c2"/><path d="M-14.1-444.5h1.89v1.89H-14.1Z" transform="translate(17.944 459.877)" fill="#c2c2c2"/><path d="M15.2-438.7h1.89v1.955H15.2Z" transform="translate(7.736 457.857)" fill="#c2c2c2"/><path d="M9.3-438.7h1.955v1.955H9.3Z" transform="translate(9.791 457.857)" fill="#c2c2c2"/><path d="M3.5-438.7H5.39v1.955H3.5Z" transform="translate(11.812 457.857)" fill="#c2c2c2"/><path d="M-2.4-438.7H-.51v1.955H-2.4Z" transform="translate(13.868 457.857)" fill="#c2c2c2"/><path d="M-8.3-438.7h1.955v1.955H-8.3Z" transform="translate(15.924 457.857)" fill="#c2c2c2"/><path d="M-14.1-438.7h1.89v1.955H-14.1Z" transform="translate(17.944 457.857)" fill="#c2c2c2"/><path d="M9.3-432.8h1.955v1.89H9.3Z" transform="translate(9.791 455.801)" fill="#c2c2c2"/><path d="M3.5-432.8H5.39v1.89H3.5Z" transform="translate(11.812 455.801)" fill="#c2c2c2"/><path d="M-2.4-432.8H-.51v1.89H-2.4Z" transform="translate(13.868 455.801)" fill="#c2c2c2"/><path d="M-8.3-432.8h1.955v1.89H-8.3Z" transform="translate(15.924 455.801)" fill="#c2c2c2"/><path d="M-14.1-432.8h1.89v1.89H-14.1Z" transform="translate(17.944 455.801)" fill="#c2c2c2"/></g></g></svg>