<svg xmlns="http://www.w3.org/2000/svg" width="168" height="144" viewBox="0 0 168 144"><g transform="translate(-1152 -788)"><g transform="translate(1.18 0.862)"><path d="M14.589,6.8C11.16,17.618,2.231,23.532.578,28.745S-1.032,45.715,27.094,52.2s36.923-7.292,38.74-13.027C74.349,12.324,20.664-12.358,14.589,6.8Z" transform="translate(1251.326 879.056) rotate(-82)" fill="#dcdcdc" opacity="0.5"/><g transform="translate(1224.961 846.853) rotate(-31)"><path d="M41.216,25.185c0,13.909-8.156,25.185-19.125,25.185S0,32.667,0,18.758,11.122,0,22.091,0,41.216,11.276,41.216,25.185Z" transform="translate(0 0)" fill="none" stroke="#08a66d" stroke-width="1.5"/></g><g transform="translate(1178.538 869.218) rotate(-31)" opacity="0.38"><path d="M46.757,42.471c-8.872,12.828-28.247,14.8-39.3,7.157s-8.79-21.453.081-34.281S28.532-4.471,39.585,3.174,55.629,29.643,46.757,42.471Z" transform="translate(0 0)" fill="#04c27e"/></g><g transform="translate(1209.754 874.419) rotate(-31)"><path d="M11.115,10.1a7.069,7.069,0,0,1-9.342,1.7C-.855,9.98-.317,6.7,1.792,3.648S6.782-1.063,9.41.754A7.069,7.069,0,0,1,11.115,10.1Z" transform="translate(0 0)" fill="#fff"/></g><g transform="translate(1246.713 853.07) rotate(-31)"><path d="M11.163,6.821c0,3.767-2.209,6.821-5.18,6.821S0,8.847,0,5.08,3.012,0,5.983,0,11.163,3.054,11.163,6.821Z" transform="translate(0 0)" fill="#fff" stroke="#08a66d" stroke-width="1"/></g><g transform="translate(1155.652 842.283) rotate(-31)"><g transform="translate(0 0)"><path d="M40.856,8.86c12.011,9.951,17.374,23.3,8.476,34.037s-27.209,13.024-39.22,3.073S-3.062,17.6,5.836,6.863s23.009-7.954,35.02,2Z" fill="none" stroke="#08a66d" stroke-width="1.5"/></g><g transform="translate(17.129 18.425)"><path d="M11.786,2.556c3.465,2.871,5.012,6.72,2.445,9.819a8.255,8.255,0,0,1-11.314.887A8.255,8.255,0,0,1,1.684,1.98c2.567-3.1,6.637-2.295,10.1.576Z" transform="translate(0 0)" fill="#fff" stroke="#08a66d" stroke-width="1"/></g></g><g transform="translate(1244.496 879.363) rotate(-31)"><path d="M8.174,6.41C16.12-.834,25.045-3.983,36.08,8.122s7.076,20.7-.871,27.946S11.548,45.482,4.083,37.292.227,13.655,8.174,6.41Z" transform="translate(0 0)" fill="rgba(4,194,126,0.23)" stroke="#08a66d" stroke-width="1.5"/></g><g transform="translate(1263.56 885.379) rotate(-31)"><path d="M2.783,2.183c2.706-2.467,5.745-3.539,9.5.583s2.409,7.049-.3,9.516-8.057,3.206-10.6.417S.077,4.65,2.783,2.183Z" transform="translate(0 0)" fill="#fff" stroke="#08a66d" stroke-width="1"/></g><g transform="translate(1233.154 803.14) rotate(68)"><path d="M31.77,6.889C41.109,14.627,45.28,25,38.36,33.357S17.2,43.484,7.863,35.746-2.381,13.689,4.538,5.337,22.43-.848,31.77,6.889Z" transform="translate(0 0)" fill="rgba(4,194,126,0.23)" stroke="#08a66d" stroke-width="1.5"/></g><g transform="translate(1224.861 820.857) rotate(68)"><path d="M9.165,1.987c2.694,2.232,3.9,5.226,1.9,7.635a6.419,6.419,0,0,1-8.8.689A6.419,6.419,0,0,1,1.309,1.54C3.305-.87,6.47-.245,9.165,1.987Z" transform="translate(0 0)" fill="#fff" stroke="#08a66d" stroke-width="1"/></g><g transform="translate(1217.918 889.649) rotate(-31)"><g transform="translate(0 0)"><path d="M23.429,5.081c6.888,5.706,9.963,13.36,4.86,19.519S12.686,32.068,5.8,26.362-1.756,10.1,3.347,3.936,16.541-.625,23.429,5.081Z" fill="none" stroke="#08a66d" stroke-width="1.5"/></g><g transform="translate(9.822 10.566)"><path d="M6.758,1.466C8.745,3.112,9.633,5.32,8.161,7.1A4.734,4.734,0,0,1,1.673,7.6,4.734,4.734,0,0,1,.965,1.135C2.437-.641,4.772-.18,6.758,1.466Z" transform="translate(0 0)" fill="#fff" stroke="#08a66d" stroke-width="1"/></g></g><g transform="translate(1273.89 832.279) rotate(174)"><path d="M25.266,5.479c7.428,6.154,10.745,14.407,5.241,21.049s-16.827,8.054-24.255,1.9S-1.894,10.887,3.609,4.244,17.838-.674,25.266,5.479Z" transform="translate(0 0)" fill="rgba(4,194,126,0.23)" stroke="#08a66d" stroke-width="1.5"/></g><g transform="translate(1262.165 822.056) rotate(174)"><path d="M7.289,1.581c2.143,1.775,3.1,4.156,1.512,6.072a5.105,5.105,0,0,1-7,.548,5.1,5.1,0,0,1-.763-6.976C2.629-.692,5.146-.195,7.289,1.581Z" transform="translate(0 0)" fill="#fff" stroke="#08a66d" stroke-width="1"/></g><g transform="translate(1288.027 836.435)" opacity="0.4"><g transform="translate(2.81)"><path d="M436.238,309.559a1.162,1.162,0,0,1-1.161-1.161v-.035a1.161,1.161,0,0,1,2.323,0v.035A1.162,1.162,0,0,1,436.238,309.559Z" transform="translate(-435.077 -307.201)" fill="#08a66d"/><path d="M436.238,337.343a1.162,1.162,0,0,1-1.161-1.161v-.035a1.161,1.161,0,1,1,2.323,0v.035A1.162,1.162,0,0,1,436.238,337.343Z" transform="translate(-435.077 -328.531)" fill="#08a66d"/></g><g transform="translate(0 1.622)"><path d="M424.171,316.525a1.155,1.155,0,0,1-.581-.157l-.03-.017a1.161,1.161,0,1,1,1.164-2.01l.03.017a1.162,1.162,0,0,1-.583,2.167Z" transform="translate(-422.98 -314.184)" fill="#08a66d"/><path d="M448.232,330.417a1.156,1.156,0,0,1-.581-.157l-.03-.017a1.162,1.162,0,1,1,1.164-2.01l.03.017a1.162,1.162,0,0,1-.583,2.167Z" transform="translate(-441.452 -324.849)" fill="#08a66d"/></g><g transform="translate(0 1.622)"><path d="M424.143,330.417a1.162,1.162,0,0,1-.583-2.167l.03-.017a1.162,1.162,0,0,1,1.164,2.01l-.03.017A1.159,1.159,0,0,1,424.143,330.417Z" transform="translate(-422.98 -324.849)" fill="#08a66d"/><path d="M448.2,316.524a1.162,1.162,0,0,1-.583-2.167l.03-.017a1.161,1.161,0,0,1,1.164,2.01l-.03.017A1.157,1.157,0,0,1,448.2,316.524Z" transform="translate(-441.453 -314.183)" fill="#08a66d"/></g></g></g><rect width="168" height="144" transform="translate(1152 788)" fill="none"/></g></svg>