<svg xmlns="http://www.w3.org/2000/svg" width="168" height="144" viewBox="0 0 168 144"><g transform="translate(-876 -788)"><path d="M15.013,8.591C11.586,20.083,2.665,26.365,1.013,31.9S-.595,49.932,27.507,56.82,64.4,49.073,66.215,42.98c8.507-28.522-45.132-54.743-51.2-34.389Z" transform="translate(982.801 867.306) rotate(157)" fill="#dcdcdc" opacity="0.5"/><path d="M31.431,276.687c-18.539-.188-24.037.521-30.064,6.548a4.663,4.663,0,0,0,6.595,6.595c3.467-3.467,7.065-3.981,23.6-3.812C31.526,282.761,31.479,279.835,31.431,276.687Z" transform="translate(899.225 599.973)" fill="none" stroke="#08a66d" stroke-width="1"/><path d="M96.414,276.7c-1.627-.014-3.259-.029-4.7-.028l.007.411c.053,3.043.093,5.672.118,8.019,1.432,0,3.02.011,4.7.026C96.508,282.077,96.463,279.612,96.414,276.7Z" transform="translate(834.242 600.384)" fill="#04c27e" opacity="0.62"/><path d="M59.684,301.62,47.639,289.575a4.663,4.663,0,1,0-6.595,6.595l17.443,17.443C59.3,311.165,59.62,307.629,59.684,301.62Z" transform="translate(871.113 591.791)" fill="#08a66d"/><path d="M90.725,332.661l-.08-.08c-1.108-1.108-3.482-.529-5.3,1.292s-2.4,4.2-1.292,5.3l5.478,5.478C90.345,342.206,90.66,338.67,90.725,332.661Z" transform="translate(840.072 560.75)" fill="#e6e6e6" opacity="0.5"/><path d="M308.866,105.021c16.309.151,24.1-.58,30.07-6.55a4.663,4.663,0,0,0-6.595-6.595c-3.4,3.4-8.681,3.952-23.6,3.813Q308.774,99.823,308.866,105.021Z" transform="translate(680.473 731.87)" fill="none" stroke="#08a66d" stroke-width="1"/><path d="M111.737,123.761c7.963-7.963,22.3-7.041,33.169-6.871-.06-3.394-.11-6.5-.135-9.329-11.549-.182-28.74-1.284-39.627,9.6-18.844,18.844-2.689,61.972-13.269,72.552a4.663,4.663,0,0,0,6.595,6.595C113.424,181.357,96.29,139.209,111.737,123.761Z" transform="translate(835.098 719.871)" fill="rgba(4,194,126,0.32)" stroke="#08a66d" stroke-width="1"/><path d="M308.783,53.313l11.981,11.981a4.663,4.663,0,0,0,6.595-6.595L310.116,41.456C309.244,44.076,308.884,47.733,308.783,53.313Z" transform="translate(680.439 766.627)" fill="#08a66d"/><path d="M208.728,158.189a37.531,37.531,0,0,0,2.717-11.019l-21-20.762a5.046,5.046,0,0,0-7.081,0,4.91,4.91,0,0,0,0,7l24.467,24.19A4.787,4.787,0,0,0,208.728,158.189Z" transform="translate(768.314 705.532)" fill="#08a66d"/><path d="M316.005,47.345l-5.889-5.889c-.872,2.62-1.232,6.277-1.333,11.857l.627.628c-1.108-1.108-.529-3.482,1.292-5.3S314.9,46.238,316.005,47.345Z" transform="translate(680.439 766.627)" fill="#e6e6e6" opacity="0.5"/><path d="M189.32,48.305c-.448-28.332-.9-35.877,3.569-40.344a4.663,4.663,0,0,0-6.595-6.595c-7.63,7.63-6.755,18.056-6.3,47.067C180.166,60.891,177.946,69,173,73.941c-7.925,7.925-22.216,7.014-33.158,6.849.048,3.2.1,5.96.13,9.328,11.6.177,28.766,1.274,39.625-9.585C186.441,73.693,189.529,63.45,189.32,48.305Z" transform="translate(800.139 796)" fill="#fff" stroke="#08a66d" stroke-width="1"/><path d="M140.815,194.837l21.5,21.62a4.969,4.969,0,0,0,7.056,0,5.034,5.034,0,0,0,0-7.094l-25.715-25.854A37.679,37.679,0,0,0,140.815,194.837Z" transform="translate(799.453 665.976)" fill="#04c27e"/><path d="M139.851,277.195s.037,5.542.05,8.437l4.964.076c-.011-2.551-.029-5.346-.05-8.427C144.2,277.258,140.429,277.215,139.851,277.195Z" transform="translate(800.416 600.014)" fill="#04c27e" opacity="0.62"/><path d="M252.646,202.351l3.88,3.88a35.266,35.266,0,0,0,2.613-10.526c-1.14-1-3.425-.434-5.2,1.343C252.117,198.869,251.538,201.243,252.646,202.351Z" transform="translate(720.613 657.683)" fill="#e6e6e6" opacity="0.5"/><path d="M143.054,189.682c1.821-1.821,4.2-2.4,5.3-1.292l-4.883-4.883a34.86,34.86,0,0,0-2.659,10.531l.947.947C140.654,193.878,141.233,191.5,143.054,189.682Z" transform="translate(799.453 665.978)" fill="#e6e6e6" opacity="0.5"/><g transform="translate(994.816 842.646)" opacity="0.4"><g transform="translate(2.852)"><path d="M436.256,309.594a1.179,1.179,0,0,1-1.179-1.179v-.035a1.179,1.179,0,0,1,2.358,0v.035A1.179,1.179,0,0,1,436.256,309.594Z" transform="translate(-435.077 -307.201)" fill="#08a66d"/><path d="M436.256,337.378a1.179,1.179,0,0,1-1.179-1.179v-.035a1.179,1.179,0,0,1,2.358,0v.035A1.179,1.179,0,0,1,436.256,337.378Z" transform="translate(-435.077 -328.435)" fill="#08a66d"/></g><g transform="translate(0 1.646)"><path d="M424.189,316.56a1.172,1.172,0,0,1-.589-.159l-.031-.018a1.179,1.179,0,1,1,1.181-2.04l.031.018a1.179,1.179,0,0,1-.592,2.2Z" transform="translate(-422.98 -314.184)" fill="#08a66d"/><path d="M448.25,330.451a1.173,1.173,0,0,1-.59-.159l-.031-.018a1.179,1.179,0,0,1,1.181-2.04l.031.018a1.179,1.179,0,0,1-.592,2.2Z" transform="translate(-441.369 -324.801)" fill="#08a66d"/></g><g transform="translate(0 1.646)"><path d="M424.16,330.452a1.179,1.179,0,0,1-.592-2.2l.031-.018a1.179,1.179,0,0,1,1.181,2.04l-.031.018A1.176,1.176,0,0,1,424.16,330.452Z" transform="translate(-422.98 -324.801)" fill="#08a66d"/><path d="M448.222,316.559a1.179,1.179,0,0,1-.592-2.2l.031-.018a1.179,1.179,0,0,1,1.181,2.04l-.031.018A1.174,1.174,0,0,1,448.222,316.559Z" transform="translate(-441.369 -314.183)" fill="#08a66d"/></g></g><path d="M416.262,261.06a1.179,1.179,0,0,1-1.179-1.179,1.5,1.5,0,0,0-1.493-1.493,1.179,1.179,0,1,1,0-2.358,1.5,1.5,0,0,0,1.493-1.493,1.179,1.179,0,1,1,2.358,0,1.5,1.5,0,0,0,1.493,1.493,1.179,1.179,0,0,1,0,2.358,1.5,1.5,0,0,0-1.493,1.493A1.179,1.179,0,0,1,416.262,261.06Z" transform="translate(496.5 610.555)" fill="#08a66d" opacity="0.4"/><rect width="168" height="144" transform="translate(876 788)" fill="none"/></g></svg>