<svg xmlns="http://www.w3.org/2000/svg" width="23.009" height="23.01" viewBox="0 0 23.009 23.01"><g transform="translate(-96.402 -96.4)" opacity="0.7"><g transform="translate(101.092 96.4)"><g transform="translate(0)"><path d="M174.783,105.129a1.081,1.081,0,0,0-1.529,0l-3.887,3.887V97.481a1.081,1.081,0,0,0-2.163,0v11.535l-3.887-3.887a1.081,1.081,0,0,0-1.529,1.529l5.733,5.733a1.081,1.081,0,0,0,1.529,0l5.733-5.733A1.081,1.081,0,0,0,174.783,105.129Z" transform="translate(-161.471 -96.4)" fill="#212121"/></g></g><g transform="translate(96.402 117.247)"><g transform="translate(0)"><path d="M118.33,385.6H97.483a1.081,1.081,0,1,0,0,2.163H118.33a1.081,1.081,0,1,0,0-2.163Z" transform="translate(-96.402 -385.601)" fill="#212121"/></g></g></g></svg>