<svg xmlns="http://www.w3.org/2000/svg" width="32.055" height="16.904" viewBox="0 0 32.055 16.904"><g transform="translate(0 -121)"><g transform="translate(-0.001 121)"><g transform="translate(0 0)"><path d="M31.815,128.826c-.286-.319-7.168-7.826-15.788-7.826S.525,128.506.239,128.826a.939.939,0,0,0,0,1.253c.286.319,7.168,7.826,15.788,7.826s15.5-7.506,15.788-7.826A.939.939,0,0,0,31.815,128.826Zm-15.788,7.2a6.574,6.574,0,1,1,6.574-6.574A6.582,6.582,0,0,1,16.027,136.026Z" transform="translate(0.001 -121)" fill="#08A66D"/></g></g><g transform="translate(11.331 124.756)"><g transform="translate(0 0)"><path d="M186.635,183.817a2.808,2.808,0,0,1,1.182-2.287A4.635,4.635,0,0,0,185.7,181a4.7,4.7,0,1,0,4.616,5.487A2.8,2.8,0,0,1,186.635,183.817Z" transform="translate(-181 -181)" fill="#08A66D"/></g></g></g></svg>