<svg xmlns="http://www.w3.org/2000/svg" width="81.105" height="61.102" viewBox="0 0 81.105 61.102"><g transform="translate(0.25 0.25)"><path d="M32.553,136.572H45.005a1.181,1.181,0,1,0,0-2.361H32.553a1.181,1.181,0,1,0,0,2.361Z" transform="translate(-26.433 -123.083)" fill="#08a66d" stroke="#08a66d" stroke-width="0.5"/><path d="M82.612,185.317H77.693a1.181,1.181,0,1,0,0,2.361h4.919a1.181,1.181,0,1,0,0-2.361Z" transform="translate(-64.467 -166.144)" fill="#08a66d" stroke="#08a66d" stroke-width="0.5"/><path d="M1.181,224.689H13.226a1.181,1.181,0,0,0,0-2.362H1.181a1.181,1.181,0,0,0,0,2.362Z" transform="translate(0 -197.327)" fill="#08a66d" stroke="#08a66d" stroke-width="0.5"/><path d="M46.186,363.97a1.181,1.181,0,0,0-1.181-1.181H32.553a1.181,1.181,0,1,0,0,2.361H45.005A1.181,1.181,0,0,0,46.186,363.97Z" transform="translate(-26.433 -315.676)" fill="#08a66d" stroke="#08a66d" stroke-width="0.5"/><path d="M82.612,311.683H77.693a1.181,1.181,0,0,0,0,2.362h4.919a1.181,1.181,0,1,0,0-2.362Z" transform="translate(-64.467 -272.615)" fill="#08a66d" stroke="#08a66d" stroke-width="0.5"/><path d="M14.407,275.854a1.181,1.181,0,0,0-1.181-1.181H1.181a1.181,1.181,0,0,0,0,2.362H13.226A1.181,1.181,0,0,0,14.407,275.854Z" transform="translate(0 -241.432)" fill="#08a66d" stroke="#08a66d" stroke-width="0.5"/><path d="M313.21,143.546a1.181,1.181,0,0,0,1.181-1.181v-1.8a1.181,1.181,0,1,0-2.361,0v1.8A1.181,1.181,0,0,0,313.21,143.546Z" transform="translate(-262.906 -127.44)" fill="#08a66d" stroke="#08a66d" stroke-width="0.5"/><path d="M384.381,171.688a1.181,1.181,0,0,0-1.67,0l-1.274,1.274a1.181,1.181,0,1,0,1.67,1.67l1.275-1.274A1.181,1.181,0,0,0,384.381,171.688Z" transform="translate(-321.095 -154.369)" fill="#08a66d" stroke="#08a66d" stroke-width="0.5"/><path d="M410.88,248.5a1.181,1.181,0,1,0,0,2.362h1.8a1.181,1.181,0,1,0,0-2.362Z" transform="translate(-345.199 -219.38)" fill="#08a66d" stroke="#08a66d" stroke-width="0.5"/><path d="M383.107,317.909a1.181,1.181,0,1,0-1.67,1.67l1.274,1.274a1.181,1.181,0,0,0,1.67-1.67Z" transform="translate(-321.095 -277.57)" fill="#08a66d" stroke="#08a66d" stroke-width="0.5"/><path d="M312.029,347.351v1.8a1.181,1.181,0,1,0,2.361,0v-1.8a1.181,1.181,0,1,0-2.361,0Z" transform="translate(-262.906 -301.673)" fill="#08a66d" stroke="#08a66d" stroke-width="0.5"/><path d="M236.491,317.909l-1.274,1.274a1.181,1.181,0,0,0,1.67,1.67l1.274-1.274a1.181,1.181,0,1,0-1.67-1.67Z" transform="translate(-197.894 -277.57)" fill="#08a66d" stroke="#08a66d" stroke-width="0.5"/><path d="M204.092,248.5a1.181,1.181,0,0,0,0,2.362h1.8a1.181,1.181,0,1,0,0-2.362Z" transform="translate(-170.966 -219.38)" fill="#08a66d" stroke="#08a66d" stroke-width="0.5"/><path d="M238.161,172.962l-1.274-1.274a1.181,1.181,0,1,0-1.67,1.67l1.274,1.274a1.181,1.181,0,1,0,1.67-1.67Z" transform="translate(-197.895 -154.369)" fill="#08a66d" stroke="#08a66d" stroke-width="0.5"/><path d="M319.559,196.444a1.181,1.181,0,0,0-1.181-1.181H314.39V186.5a1.181,1.181,0,1,0-2.361,0v9.947a1.181,1.181,0,0,0,1.181,1.181h5.169A1.181,1.181,0,0,0,319.559,196.444Z" transform="translate(-262.905 -166.143)" fill="#08a66d" stroke="#08a66d" stroke-width="0.5"/><path d="M215.926,129.814a1.181,1.181,0,0,0,1.107-1.25,23.524,23.524,0,1,0-.217,4.968,1.181,1.181,0,0,0-2.335-.35,21.2,21.2,0,1,1,.2-4.474A1.181,1.181,0,0,0,215.926,129.814Z" transform="translate(-143.233 -99.708)" fill="#08a66d" stroke="#08a66d" stroke-width="0.5"/><path d="M137.662,63.529A30.289,30.289,0,0,0,125.695,66H104.862a1.181,1.181,0,1,0,0,2.361h16.391A30.269,30.269,0,0,0,115.2,73.5a1.181,1.181,0,0,0,1.75,1.585,27.883,27.883,0,1,1-2.769,3.606,1.181,1.181,0,0,0-1.984-1.281A30.293,30.293,0,0,0,121.26,119.3h-16.4a1.181,1.181,0,0,0,0,2.361h20.817a30.3,30.3,0,1,0,11.984-58.129Z" transform="translate(-87.358 -63.529)" fill="#08a66d" stroke="#08a66d" stroke-width="0.5"/></g></svg>