<svg xmlns="http://www.w3.org/2000/svg" width="168" height="144" viewBox="0 0 168 144"><g transform="translate(-1428 -788)"><g transform="translate(1.805 4.127)"><line y1="48.557" x2="59.922" transform="translate(1434.475 799.971)" fill="none" stroke="#08a66d" stroke-linecap="round" stroke-width="8"/><line x1="59.922" y1="48.557" transform="translate(1494.267 799.971)" fill="none" stroke="#08a66d" stroke-linecap="round" stroke-width="8"/><path d="M7,112.188a7,7,0,0,1-7-7V38.557a7,7,0,0,1,7-7H5.458L46.11,0l44,31.559H88.63a7,7,0,0,1,7,7v66.631a7,7,0,0,1-7,7Z" transform="translate(1447.297 800.319)" fill="rgba(8,166,109,0.32)"/><path d="M15.523,7.694C11.874,19.932,2.374,26.621.615,32.519S-1.1,51.718,28.829,59.053,68.116,50.8,70.049,44.315C79.108,13.942,21.987-13.981,15.523,7.694Z" transform="matrix(-0.616, 0.788, -0.788, -0.616, 1549.436, 867.959)" fill="#fff" opacity="0.92"/><g transform="translate(1486.709 822.036)"><g transform="translate(2.674)"><path d="M436.182,309.445a1.105,1.105,0,0,1-1.105-1.105v-.033a1.105,1.105,0,0,1,2.21,0v.033A1.105,1.105,0,0,1,436.182,309.445Z" transform="translate(-435.077 -307.201)" fill="#fff"/><path d="M436.182,337.228a1.105,1.105,0,0,1-1.105-1.105v-.033a1.105,1.105,0,0,1,2.21,0v.033A1.105,1.105,0,0,1,436.182,337.228Z" transform="translate(-435.077 -328.844)" fill="#fff"/></g><g transform="translate(0 1.544)"><path d="M424.113,316.412a1.1,1.1,0,0,1-.553-.149l-.029-.017a1.105,1.105,0,1,1,1.108-1.913l.029.017a1.105,1.105,0,0,1-.555,2.062Z" transform="translate(-422.98 -314.184)" fill="#fff"/><path d="M448.174,330.3a1.1,1.1,0,0,1-.553-.149l-.029-.017a1.105,1.105,0,1,1,1.108-1.913l.029.017a1.105,1.105,0,0,1-.555,2.062Z" transform="translate(-441.723 -325.005)" fill="#fff"/></g><g transform="translate(0 1.543)"><path d="M424.087,330.3a1.105,1.105,0,0,1-.555-2.062l.029-.017a1.105,1.105,0,0,1,1.107,1.913l-.029.017A1.1,1.1,0,0,1,424.087,330.3Z" transform="translate(-422.98 -325.006)" fill="#fff"/><path d="M448.149,316.411a1.105,1.105,0,0,1-.555-2.062l.029-.017a1.105,1.105,0,0,1,1.108,1.913l-.029.017A1.1,1.1,0,0,1,448.149,316.411Z" transform="translate(-441.724 -314.183)" fill="#fff"/></g></g><path d="M416.021,260.579a1.105,1.105,0,0,1-1.105-1.105,1.4,1.4,0,0,0-1.4-1.4,1.105,1.105,0,1,1,0-2.21,1.4,1.4,0,0,0,1.4-1.4,1.105,1.105,0,1,1,2.21,0,1.4,1.4,0,0,0,1.4,1.4,1.105,1.105,0,0,1,0,2.21,1.4,1.4,0,0,0-1.4,1.4A1.105,1.105,0,0,1,416.021,260.579Z" transform="translate(1091.139 577.061)" fill="#08a66d" opacity="0.4"/><path d="M416.021,260.579a1.105,1.105,0,0,1-1.105-1.105,1.4,1.4,0,0,0-1.4-1.4,1.105,1.105,0,1,1,0-2.21,1.4,1.4,0,0,0,1.4-1.4,1.105,1.105,0,1,1,2.21,0,1.4,1.4,0,0,0,1.4,1.4,1.105,1.105,0,0,1,0,2.21,1.4,1.4,0,0,0-1.4,1.4A1.105,1.105,0,0,1,416.021,260.579Z" transform="translate(1042.887 644.615)" fill="#fff"/><g transform="translate(1507.16 854.452)"><path d="M5.753,27.05a1.293,1.293,0,0,1,.424-.27l5.916-8.875a7.891,7.891,0,0,1,6.578-3.554H26.78A7.877,7.877,0,0,1,34.669,6.54h15.56l.8-5.443A1.277,1.277,0,0,1,52.289,0h5.42A1.278,1.278,0,0,1,58.971,1.1l.8,5.443H77.532a1.222,1.222,0,0,1,1.221,1.267V48.445a1.249,1.249,0,0,1-1.221,1.3H71.676a9.54,9.54,0,0,1-18.922,0H28.086a9.54,9.54,0,0,1-18.923,0H1.218A1.249,1.249,0,0,1,0,48.445V36.006a7.906,7.906,0,0,1,2.385-5.679ZM18.671,16.9a5.316,5.316,0,0,0-4.454,2.383L9.3,26.627H26.781V16.9ZM56.607,2.554H53.391L52.807,6.54h4.382Zm5.609,52.93a6.992,6.992,0,1,0-6.992-6.992A6.992,6.992,0,0,0,62.216,55.485Zm-43.591,0a6.992,6.992,0,1,0-6.992-6.992A6.992,6.992,0,0,0,18.624,55.485ZM2.549,47.192H9.176a9.541,9.541,0,0,1,18.9,0H52.767a9.541,9.541,0,0,1,18.9,0H76.2V9.091H34.669a5.336,5.336,0,0,0-5.338,5.332V27.968a1.222,1.222,0,0,1-1.277,1.209H7.153l-3,2.952a5.415,5.415,0,0,0-1.605,3.877Zm0,0" transform="translate(0.002 -0.004)" fill="#04c27e"/><path d="M42.794,85.43a9.9,9.9,0,0,1,6.185,2.2h5.646a.9.9,0,0,1,0,1.8H50.687a9.863,9.863,0,0,1,1.753,4.163h9.029a.9.9,0,0,1,0,1.8H52.581A10.086,10.086,0,0,1,51.3,100.12h5.4a.9.9,0,1,1,0,1.8H49.979a9.8,9.8,0,1,1-7.186-16.49Zm0,17.784a7.989,7.989,0,1,0-7.99-7.99A7.99,7.99,0,0,0,42.794,103.214Zm0,0" transform="translate(7.939 -67.878)" fill="#04c27e"/><path d="M178.836,141.14h-2.128V138.9a.9.9,0,0,0-1.792,0v2.24H172.9a.9.9,0,0,0,0,1.792h2.016v1.9a.9.9,0,0,0,1.792,0v-1.9h2.128a.9.9,0,0,0,0-1.792Zm0,0" transform="translate(-125.045 -114.511)" fill="#04c27e"/></g></g><rect width="168" height="144" transform="translate(1428 788)" fill="none"/></g></svg>