<svg xmlns="http://www.w3.org/2000/svg" width="19.197" height="13.498" viewBox="0 0 19.197 13.498"><g transform="translate(0 -76)"><g transform="translate(0 76)"><path d="M17.51,76H1.687A1.69,1.69,0,0,0,0,77.687V87.811A1.69,1.69,0,0,0,1.687,89.5H17.51A1.689,1.689,0,0,0,19.2,87.811V77.687A1.689,1.689,0,0,0,17.51,76Zm-.236,1.125-6.482,6.448a1.687,1.687,0,0,1-2.387,0L1.924,77.125ZM1.125,87.582V77.917l4.861,4.835Zm.8.791,4.859-4.828.827.823a2.812,2.812,0,0,0,3.976,0l.828-.824,4.859,4.828Zm16.148-.791-4.861-4.83,4.861-4.835Z" transform="translate(0 -76)" fill="#08a66d"/></g></g></svg>