<svg xmlns="http://www.w3.org/2000/svg" width="27.604" height="27.604" viewBox="0 0 27.604 27.604"><path d="M23.56,6.955h-.755V4.043A4.048,4.048,0,0,0,18.762,0H8.842A4.048,4.048,0,0,0,4.8,4.043V6.955H4.043A4.048,4.048,0,0,0,0,11v6.47a4.048,4.048,0,0,0,4.043,4.043H4.8v3.666A2.429,2.429,0,0,0,7.224,27.6H20.379a2.429,2.429,0,0,0,2.426-2.426V21.511h.755A4.048,4.048,0,0,0,27.6,17.468V11A4.048,4.048,0,0,0,23.56,6.955ZM6.416,4.043A2.429,2.429,0,0,1,8.842,1.617h9.92a2.429,2.429,0,0,1,2.426,2.426V6.955H6.416ZM21.188,25.177a.81.81,0,0,1-.809.809H7.224a.81.81,0,0,1-.809-.809V17.2H21.188Zm4.8-7.71a2.429,2.429,0,0,1-2.426,2.426h-.755V17.2h.485a.809.809,0,0,0,0-1.617H4.313a.809.809,0,0,0,0,1.617H4.8v2.7H4.043a2.429,2.429,0,0,1-2.426-2.426V11A2.429,2.429,0,0,1,4.043,8.572H23.56A2.429,2.429,0,0,1,25.986,11Z" transform="translate(0 0)" fill="#fff"/><path d="M206.122,353h-4.313a.809.809,0,0,0,0,1.617h4.313a.809.809,0,0,0,0-1.617Z" transform="translate(-190.163 -333.969)" fill="#fff"/><path d="M206.122,417h-4.313a.809.809,0,1,0,0,1.617h4.313a.809.809,0,0,0,0-1.617Z" transform="translate(-190.163 -394.518)" fill="#fff"/><path d="M68.4,193H65.809a.809.809,0,0,0,0,1.617H68.4a.809.809,0,0,0,0-1.617Z" transform="translate(-61.496 -182.595)" fill="#fff"/></svg>