<svg xmlns="http://www.w3.org/2000/svg" width="28.806" height="28.806" viewBox="0 0 28.806 28.806"><path d="M24.587,7.258H23.8V4.22A4.224,4.224,0,0,0,19.579,0H9.227a4.224,4.224,0,0,0-4.22,4.22V7.258H4.22A4.224,4.224,0,0,0,0,11.478v6.751a4.224,4.224,0,0,0,4.22,4.22h.788v3.826a2.535,2.535,0,0,0,2.532,2.532H21.267A2.535,2.535,0,0,0,23.8,26.275V22.449h.788a4.224,4.224,0,0,0,4.22-4.22V11.478A4.224,4.224,0,0,0,24.587,7.258ZM6.7,4.22A2.535,2.535,0,0,1,9.227,1.688H19.579A2.535,2.535,0,0,1,22.111,4.22V7.258H6.7ZM22.111,26.275a.845.845,0,0,1-.844.844H7.539a.845.845,0,0,1-.844-.844V17.948H22.111Zm5.007-8.046a2.535,2.535,0,0,1-2.532,2.532H23.8V17.948h.506a.844.844,0,0,0,0-1.688H4.5a.844.844,0,0,0,0,1.688h.506v2.813H4.22a2.535,2.535,0,0,1-2.532-2.532V11.478A2.535,2.535,0,0,1,4.22,8.946H24.587a2.535,2.535,0,0,1,2.532,2.532Z"/><path d="M206.345,353h-4.5a.844.844,0,1,0,0,1.688h4.5a.844.844,0,0,0,0-1.688Z" transform="translate(-189.691 -333.139)"/><path d="M206.345,417h-4.5a.844.844,0,1,0,0,1.688h4.5a.844.844,0,0,0,0-1.688Z" transform="translate(-189.691 -393.539)"/><path d="M68.545,193h-2.7a.844.844,0,1,0,0,1.688h2.7a.844.844,0,0,0,0-1.688Z" transform="translate(-61.343 -182.141)"/></svg>