<svg xmlns="http://www.w3.org/2000/svg" width="28.519" height="28.519" viewBox="0 0 28.519 28.519"><path d="M9.469,0H0V9.469H9.469ZM7.241,7.241H2.228V2.228H7.241ZM5.849,5.849H3.621V3.621H5.849ZM19.05,0V9.469h9.469V0Zm7.241,7.241H21.278V2.228h5.013ZM24.9,5.849H22.67V3.621H24.9ZM0,28.519H9.469V19.05H0Zm2.228-7.241H7.241v5.013H2.228ZM3.621,22.67H5.849V24.9H3.621Zm.836-11.7V13.2H2.228V10.973Zm0,2.228H6.684v2.228H8.856v2.228H6.628V15.429H4.456ZM17.824,6.517H15.6V4.289h2.228ZM13.368,2.228V6.517H11.14V2.228Zm2.228,0H13.368V0H15.6Zm0,4.289v4.456H11.14V8.745h2.228V6.517ZM11.14,17.657V13.2h2.228v4.4H15.6v2.172h4.456V22H15.6V19.829H13.368V17.657Zm6.684-6.684v4.456H15.6V10.973Zm8.466,0H22.224V13.2H20.052v2.228H22.28V17.6h6.238V13.145H26.291Zm0,4.4H22.28V13.2h4.01Zm2.228,8.856H26.291V19.774h2.228Zm-10.694-8.8h2.228v2.228H17.824Zm2.228,8.8V22H22.28V24.23ZM24.508,22H22.28V19.774h2.228ZM22.28,28.519V24.23h4.01v2.228H24.508v2.061ZM11.14,19.829h2.228v4.233H11.14Zm2.228,8.689V24.063h4.456v2.228H20v2.228H17.768V26.291H15.6v2.228ZM6.684,10.973H11.14V13.2H6.684ZM0,13.2H2.228v4.456H0Z" fill="#fff"/></svg>