<svg xmlns="http://www.w3.org/2000/svg" width="63.589" height="63.589" viewBox="0 0 63.589 63.589"><path d="M21.113,0H0V21.113H21.113ZM16.146,16.146H4.968V4.968H16.146Zm-3.1-3.1H8.073V8.073h4.968ZM42.475,0V21.113H63.589V0ZM58.621,16.146H47.443V4.968H58.621Zm-3.1-3.1H50.548V8.073h4.968ZM0,63.589H21.113V42.475H0ZM4.968,47.443H16.146V58.621H4.968Zm3.1,3.1h4.968v4.968H8.073ZM9.936,24.467v4.968H4.968V24.467Zm0,4.968H14.9V34.4h4.844V39.37H14.779V34.4H9.936Zm29.807-14.9H34.775V9.563h4.968ZM29.807,4.968v9.563H24.839V4.968Zm4.968,0H29.807V0h4.968Zm0,9.563v9.936H24.839V19.5h4.968V14.531ZM24.839,39.37V29.435h4.968v9.812h4.968V44.09h9.936v4.968H34.775V44.214H29.807V39.37Zm14.9-14.9V34.4H34.775V24.467Zm18.878,0H49.555v4.968H44.711V34.4h4.968v4.844h13.91V29.31H58.621Zm0,9.812H49.679V29.435h8.942Zm4.968,19.747H58.621V44.09h4.968ZM39.743,34.4h4.968V39.37H39.743Zm4.968,19.623V49.058h4.968v4.968Zm9.936-4.968H49.679V44.09h4.968ZM49.679,63.589V54.026h8.942v4.968H54.647v4.6ZM24.839,44.214h4.968v9.439H24.839Zm4.968,19.375V53.653h9.936v4.968h4.844v4.968H39.619V58.621H34.775v4.968ZM14.9,24.467h9.936v4.968H14.9ZM0,29.435H4.968V39.37H0Z" fill="#08a66d"/></svg>