<svg xmlns="http://www.w3.org/2000/svg" width="73.055" height="73.054" viewBox="0 0 73.055 73.054"><g transform="translate(0 0)"><path d="M67.062,25.683H46.994c.064-.7.1-1.417.1-2.137a23.552,23.552,0,0,0-35.311-20.4,1.427,1.427,0,1,0,1.428,2.471A20.694,20.694,0,1,1,23.546,44.238,20.461,20.461,0,0,1,10.57,39.663a1.428,1.428,0,0,0-1.315-.252l-3.787.99L6.952,37.14a1.426,1.426,0,0,0-.145-1.431A20.7,20.7,0,0,1,5.631,13.183a1.427,1.427,0,1,0-2.469-1.431A23.561,23.561,0,0,0,4.017,36.7L1.628,41.949a1.427,1.427,0,0,0,1.659,1.971l6.068-1.586a23.541,23.541,0,0,0,17.469,4.527V59.356a6,6,0,0,0,5.992,5.993H53l9.023,7.382a1.427,1.427,0,0,0,2.33-1.1V65.349h2.711a6,6,0,0,0,5.993-5.993V31.676a6,6,0,0,0-5.993-5.993ZM70.2,59.356A3.143,3.143,0,0,1,67.062,62.5H62.924A1.427,1.427,0,0,0,61.5,63.922v4.694L54.45,62.85c-.388-.354-.728-.354-1.493-.354H32.817a3.142,3.142,0,0,1-3.139-3.139V46.28A23.625,23.625,0,0,0,46.558,28.536h20.5A3.142,3.142,0,0,1,70.2,31.676Zm0,0" fill="#08a66d"/><path d="M303.42,264.139a1.426,1.426,0,0,0-.608-2.717h-.584l-4.6-10.487a1.427,1.427,0,0,0-2.613,0l-4.6,10.487h-.584a1.426,1.426,0,0,0-.607,2.717l-1.714,3.906a1.427,1.427,0,1,0,2.613,1.146l2.157-4.915h8.088l2.157,4.915a1.427,1.427,0,1,0,2.613-1.146Zm-9.892-2.717,2.792-6.363,2.792,6.363Zm0,0" transform="translate(-246.38 -214.399)" fill="#08a66d"/><path d="M46.829,48.252a1.427,1.427,0,1,0-1.009-.418,1.439,1.439,0,0,0,1.009.418Zm0,0" transform="translate(-38.924 -38.921)" fill="#08a66d"/><path d="M100.874,105.44a1.427,1.427,0,1,0,1.372,2.5,16.34,16.34,0,0,0,7.062-7.66,16.343,16.343,0,0,0,7.062,7.66,1.427,1.427,0,0,0,1.372-2.5,13.494,13.494,0,0,1-6.854-9.818h6.335a1.427,1.427,0,1,0,0-2.854h-6.488V86.821a1.427,1.427,0,1,0-2.854,0v5.946h-5.154a1.427,1.427,0,1,0,0,2.854h5a13.493,13.493,0,0,1-6.854,9.818Zm0,0" transform="translate(-85.846 -73.211)" fill="#08a66d"/></g></svg>