<svg xmlns="http://www.w3.org/2000/svg" width="168.451" height="144" viewBox="0 0 168.451 144"><g transform="translate(-600 -788)"><path d="M118.716,1.07c-16.885-2.888-54.082,3.7-60.666,31.854-4.377,18.722,56.02,110.032,88,11.6C150.65,24.994,140.434,4.784,118.716,1.07Z" transform="matrix(0.602, 0.799, -0.799, 0.602, 680.262, 741.909)" fill="#dcdcdc" opacity="0.5"/><path d="M12.742,196.635a9.134,9.134,0,0,1,0-12.918l28.052-28.052a2.056,2.056,0,0,1,2.908,0l10.01,10.01a2.056,2.056,0,0,1,0,2.908L25.66,196.635A9.134,9.134,0,0,1,12.742,196.635Z" transform="translate(607.902 719.265)" fill="#04c27e" opacity="0.3"/><circle cx="40.168" cy="40.168" r="40.168" transform="translate(652.484 803.723)" fill="#04c27e" opacity="0.3"/><ellipse cx="30.123" cy="30.122" rx="30.123" ry="30.122" transform="translate(656.406 821.479) rotate(-13.3)" fill="#fff"/><path d="M116.745,59.4l-4.429,16.528a5.289,5.289,0,0,0,3.739,6.477l.3.08a5.289,5.289,0,0,0,6.477-3.739l4.429-16.528a5.289,5.289,0,0,0-3.739-6.477l-.3-.08A5.288,5.288,0,0,0,116.745,59.4Z" transform="translate(555.537 770.357)" fill="#dcdcdc"/><path d="M168.421,80.411A1.219,1.219,0,0,0,169.4,79l-.983-5.405h1.562a7.515,7.515,0,0,0,4.053-1.186l2.732,2.732a1.217,1.217,0,1,0,1.722-1.721l-2.632-2.632a7.525,7.525,0,0,0,1.684-4.753V64.575h4.61a1.217,1.217,0,1,0,0-2.435h-4.61V60.454a7.357,7.357,0,0,0-1.613-4.594l2.56-2.56a1.217,1.217,0,1,0-1.722-1.721l-2.653,2.653a7.334,7.334,0,0,0-1.484-.723l-2.036-.72,2.565-5.378a1.217,1.217,0,1,0-2.2-1.048l-2.375,4.979a3.889,3.889,0,0,1-.645-1.419,3.89,3.89,0,0,0-4.37-2.989l-.554-3.043a1.217,1.217,0,0,0-2.415.217,1.2,1.2,0,0,0,.02.219l.55,3.024-.244.043a3.892,3.892,0,0,0-2.972,2.47l-.822,2.2-3.875-3.875a1.218,1.218,0,0,0-1.722,1.722l4.66,4.66a16.9,16.9,0,0,0-.976,7.574h-3.952a1.217,1.217,0,1,0,0,2.435h4.374c.058.234.108.469.176.7a11.57,11.57,0,0,0,2.638,4.612l-3.527,3.527a1.218,1.218,0,0,0,1.722,1.722l3.648-3.648a11.572,11.572,0,0,0,5.638,2.056l1.071,5.886A1.218,1.218,0,0,0,168.421,80.411Z" transform="translate(536.086 776.813)" fill="#08a66d" opacity="0.5"/><circle cx="6.033" cy="6.033" r="6.033" transform="translate(689.967 856.855)" fill="#04c27e" opacity="0.5"/><circle cx="3.56" cy="3.56" r="3.56" transform="translate(680.23 853.897)" fill="#04c27e" opacity="0.5"/><path d="M169.973,70.026a11.722,11.722,0,0,1,.743-4.105l1.258-3.363a1.612,1.612,0,0,1,1.233-1.024,1.632,1.632,0,0,1,1.776.992,6.96,6.96,0,0,0,4.1,3.829l1.97.7A3.124,3.124,0,0,1,183.135,70v5.019a3.3,3.3,0,0,1-3.3,3.3H177.1a6.894,6.894,0,0,1-6.6-4.795A11.7,11.7,0,0,1,169.973,70.026Z" transform="translate(525.863 767.261)" fill="#fff"/><circle cx="3.926" cy="3.926" r="3.926" transform="translate(700.045 835.945)" fill="#dcdcdc"/><circle cx="2.566" cy="2.566" r="2.566" transform="translate(674.797 829.253)" fill="#fff"/><g transform="translate(617 802.749)"><path d="M112.823,20.122A41.14,41.14,0,0,0,50.379,73.3l-6.636,6.637-.372-.372a3.028,3.028,0,0,0-4.284,0L11.035,107.616a10.108,10.108,0,1,0,14.3,14.295L53.383,93.859a3.034,3.034,0,0,0,0-4.285l-.372-.372,6.634-6.634a41.142,41.142,0,0,0,53.178-62.446ZM52,92.482,23.952,120.534a8.161,8.161,0,1,1-11.541-11.54L40.463,80.942a1.082,1.082,0,0,1,1.531,0L52,90.952a1.084,1.084,0,0,1,0,1.531Zm-.371-4.657L45.12,81.313l6.449-6.45.009.011a43.709,43.709,0,0,0,3.061,3.432,43.253,43.253,0,0,0,3.442,3.07Zm59.813-10.9A39.194,39.194,0,0,1,56.017,21.5a39.194,39.194,0,0,1,55.429,55.429Z" transform="translate(-8.078 -8.072)" fill="#08a66d"/><path d="M152.678,37.824a31.13,31.13,0,1,0,9.094,21.988,30.884,30.884,0,0,0-9.094-21.988Zm-1.377,42.6a29.183,29.183,0,1,1,8.523-20.611A28.95,28.95,0,0,1,151.3,80.424Z" transform="translate(-55.037 -18.67)" fill="#08a66d"/></g><g transform="translate(742.701 841.104)" opacity="0.4"><g transform="translate(2.852)"><path d="M436.256,309.594a1.179,1.179,0,0,1-1.179-1.179v-.035a1.179,1.179,0,0,1,2.358,0v.035A1.179,1.179,0,0,1,436.256,309.594Z" transform="translate(-435.077 -307.201)" fill="#08a66d"/><path d="M436.256,337.378a1.179,1.179,0,0,1-1.179-1.179v-.035a1.179,1.179,0,0,1,2.358,0v.035A1.179,1.179,0,0,1,436.256,337.378Z" transform="translate(-435.077 -328.435)" fill="#08a66d"/></g><g transform="translate(0 1.646)"><path d="M424.189,316.56a1.172,1.172,0,0,1-.589-.159l-.031-.018a1.179,1.179,0,1,1,1.181-2.04l.031.018a1.179,1.179,0,0,1-.592,2.2Z" transform="translate(-422.98 -314.184)" fill="#08a66d"/><path d="M448.25,330.451a1.173,1.173,0,0,1-.59-.159l-.031-.018a1.179,1.179,0,0,1,1.181-2.04l.031.018a1.179,1.179,0,0,1-.592,2.2Z" transform="translate(-441.369 -324.801)" fill="#08a66d"/></g><g transform="translate(0 1.646)"><path d="M424.16,330.452a1.179,1.179,0,0,1-.592-2.2l.031-.018a1.179,1.179,0,0,1,1.181,2.04l-.031.018A1.176,1.176,0,0,1,424.16,330.452Z" transform="translate(-422.98 -324.801)" fill="#08a66d"/><path d="M448.222,316.559a1.179,1.179,0,0,1-.592-2.2l.031-.018a1.179,1.179,0,0,1,1.181,2.04l-.031.018A1.174,1.174,0,0,1,448.222,316.559Z" transform="translate(-441.369 -314.183)" fill="#08a66d"/></g></g><path d="M416.262,261.06a1.179,1.179,0,0,1-1.179-1.179,1.5,1.5,0,0,0-1.493-1.493,1.179,1.179,0,1,1,0-2.358,1.5,1.5,0,0,0,1.493-1.493,1.179,1.179,0,1,1,2.358,0,1.5,1.5,0,0,0,1.493,1.493,1.179,1.179,0,0,1,0,2.358,1.5,1.5,0,0,0-1.493,1.493A1.179,1.179,0,0,1,416.262,261.06Z" transform="translate(321.385 600.539)" fill="#08a66d" opacity="0.4"/><rect width="168" height="144" transform="translate(600 788)" fill="none"/></g></svg>