<svg xmlns="http://www.w3.org/2000/svg" xmlns:xlink="http://www.w3.org/1999/xlink" width="310.706" height="165.832" viewBox="0 0 310.706 165.832"><defs><clipPath id="a"><circle cx="53.59" cy="53.59" r="53.59" transform="translate(0 75.786) rotate(-45)"/></clipPath><clipPath id="c"><circle cx="53.59" cy="53.59" r="53.59" transform="translate(0 75.786) rotate(-45)" fill="#70caff"/></clipPath></defs><g transform="translate(-433 -98.193)"><g transform="translate(503.39 104.842)"><path d="M94.105,174.828c-11.629-8.976-26.751,1.105-38.114.663-16.979-.663-23.39-23.611-10.656-35.461,9.33-8.666,16.492-18.305,14.812-26.972S58.467,81.931,71.113,77.6s22.638-3.67,25.955,9.816S109.713,102.4,118.2,100.9s21.135-.177,23.3,13.309-8.976,22.462-7.472,32.764,9.639,17.952-1.5,29.8C122.359,187.607,104.805,183.053,94.105,174.828Z" transform="translate(-38.626 -75.218)" fill="#08A66D" opacity="0.89"/></g><g transform="translate(696.939 115.528)"><path d="M209.5-20.724c-2.743-4.133-1.435.22-2.659,1.1-1.055.747-4.263,3.078-5.529,4a11.911,11.911,0,0,0-3.841-4.045c.633-.879,1.351-1.8,1.73-2.286.717-.967,3.545.264.886-1.891s-.928.484-1.519,1.319c-.338.44-1.14,1.495-1.815,2.462a10.646,10.646,0,0,0-3.925-1.275.894.894,0,0,1-.338-.044c0-.7,0-2.462-.042-3.122,0-.791,1.9-1.363-.3-1.319-2.152,0-.3.616-.3,1.319,0,.572,0,2.374.042,3.122a11.389,11.389,0,0,0-3.883.528c-.3-1.275-.8-3.737-1.013-4.748-.3-1.275,2.574-2.858-.886-2.066-3.5.835-.253,1.1,0,2.2.211.923.8,3.605,1.055,4.88a10.746,10.746,0,0,0-1.562.835c-.38-.572-1.1-1.583-1.393-2.022-.38-.572.675-1.935-.844-.791s.084.572.422,1.055c.253.352.971,1.407,1.393,2.022a12.046,12.046,0,0,0-4.009,4.66c-1.6-.616-3.967-1.583-5.022-1.979-1.519-.616-1.139-5.012-2.785-.44-1.646,4.529.971,1.055,2.279,1.583.928.352,3.334,1.319,5.022,1.979A10.829,10.829,0,0,0,180-10.831a12.153,12.153,0,0,0,.169,3.913c-1.224.4-3.545,1.187-4.516,1.495-1.224.4-3-2.462-1.9,1.143s1.1.176,2.152-.176c.844-.264,3.25-1.055,4.516-1.495A12.3,12.3,0,0,0,184.182-.06c-.675.572-1.477,1.275-1.9,1.583-.633.528-2.363-.747-.886,1.143s.675-.176,1.266-.66c.38-.308,1.308-1.1,2.026-1.715.3.22.633.44.971.66-.549,1.363-1.308,3.254-1.646,4.133-.506,1.275-3.925.835-.422,2.374s.844-.791,1.308-1.891c.3-.747,1.1-2.726,1.646-4.089a10.978,10.978,0,0,0,3.63,1.1,9.225,9.225,0,0,0,1.1.088V6.491c0,1.319-3.123,2.2.464,2.2s.464-1.011.464-2.154V2.622a10.562,10.562,0,0,0,1.646-.22c.127.7.338,1.583.422,2.022.127.66-1.351,1.495.464,1.055,1.815-.4.127-.572,0-1.143-.084-.352-.3-1.319-.422-2.066a12.3,12.3,0,0,0,4.516-2.286c.506.572.971,1.055,1.266,1.407,1.308,1.451-1.308,5.848,2.7,1.979s-.464-1.627-1.6-2.9c-.3-.308-.76-.835-1.308-1.495a12.139,12.139,0,0,0,3.208-6.815c1.055.308,2.237.616,2.87.791,1.055.308,1.1,3.3,1.9.088.8-3.166-.717-.66-1.646-.923-.549-.132-1.9-.528-3.039-.835a11.383,11.383,0,0,0-.338-3.605c.675-.132,1.857-.4,2.363-.484.633-.132,1.393,1.451,1.055-.44-.338-1.935-.549-.132-1.1-.044-.464.088-1.73.352-2.406.484a11.275,11.275,0,0,0-.633-1.671c1.182-.835,4.389-3.166,5.613-4.045C208.872-19.537,212.206-16.591,209.5-20.724Z" transform="translate(-172.851 27.883)" fill="#08A66D" opacity="0.48"/></g><g transform="translate(433.963 202.221)"><path d="M14.061,411.947c-3.718-5.34-1.96.27-3.582,1.419-1.419.946-5.745,3.988-7.5,5.2a16.155,16.155,0,0,0-5.2-5.272c.879-1.149,1.825-2.366,2.3-2.974.946-1.217,4.8.338,1.217-2.433s-1.217.608-2.1,1.69c-.473.608-1.555,1.96-2.5,3.177a15.469,15.469,0,0,0-5.272-1.622h-.473v-4.056c0-1.014,2.569-1.757-.406-1.757-2.906,0-.406.811-.406,1.69v4.056a15.291,15.291,0,0,0-5.272.676c-.406-1.69-1.081-4.867-1.419-6.151-.406-1.622,3.515-3.718-1.217-2.636s-.338,1.419,0,2.839c.27,1.149,1.081,4.664,1.419,6.354a12.287,12.287,0,0,0-2.1,1.081c-.541-.744-1.487-2.1-1.893-2.636-.541-.744.946-2.5-1.149-1.014-2.028,1.487.135.743.608,1.352.338.473,1.284,1.825,1.893,2.636a15.179,15.179,0,0,0-5.407,6.083c-2.163-.811-5.34-2.028-6.759-2.569-2.028-.811-1.555-6.489-3.785-.608s1.284,1.419,3.109,2.1c1.217.473,4.529,1.69,6.759,2.569a13.66,13.66,0,0,0-.946,3.718,15.821,15.821,0,0,0,.2,5.069c-1.622.541-4.8,1.487-6.151,1.96-1.622.541-4.056-3.244-2.569,1.487,1.487,4.664,1.487.2,2.906-.2,1.149-.338,4.394-1.419,6.083-1.96a15.27,15.27,0,0,0,5.137,7.638c-.879.743-2.028,1.622-2.569,2.1-.879.676-3.244-.946-1.217,1.487,2.028,2.5.946-.2,1.69-.811.473-.406,1.825-1.487,2.7-2.231a14.467,14.467,0,0,0,1.284.879c-.744,1.757-1.757,4.258-2.231,5.407-.676,1.69-5.34,1.082-.608,3.042s1.149-1.014,1.757-2.5c.406-.946,1.487-3.515,2.231-5.34A14.982,14.982,0,0,0-12.5,442.3a10.951,10.951,0,0,0,1.487.068v5c0,1.69-4.258,2.839.608,2.839s.676-1.352.676-2.771v-5.069c.744-.068,1.487-.135,2.231-.27.2.879.473,2.1.541,2.636.2.879-1.825,1.96.608,1.419,2.5-.541.2-.743,0-1.487-.135-.473-.406-1.757-.608-2.636a15.514,15.514,0,0,0,6.083-2.974c.676.743,1.284,1.419,1.69,1.825,1.757,1.893-1.757,7.57,3.65,2.568s-.676-2.163-2.163-3.785c-.406-.406-1.014-1.081-1.757-1.893a15.7,15.7,0,0,0,4.326-8.855c1.419.406,3.042.811,3.853,1.014,1.419.406,1.487,4.258,2.569.135s-1.014-.879-2.231-1.149c-.744-.2-2.569-.676-4.123-1.082a17.646,17.646,0,0,0-.406-4.664c.879-.2,2.5-.473,3.177-.608.879-.2,1.893,1.893,1.419-.608s-.744-.2-1.487-.068c-.608.135-2.366.473-3.244.608a20.453,20.453,0,0,0-.811-2.163c1.622-1.081,5.881-4.056,7.57-5.2C13.182,413.5,17.711,417.287,14.061,411.947Z" transform="translate(35.662 -402.66)" fill="#08A66D" opacity="0.48"/></g><path d="M25.661,4.8c-1.945-2.786-1.017.177-1.857.752-.707.486-3.007,2.078-3.891,2.7a8.407,8.407,0,0,0-2.7-2.741c.442-.575.929-1.238,1.194-1.548.486-.663,2.476.177.619-1.282s-.663.31-1.061.884c-.221.31-.8,1.017-1.282,1.636a7.338,7.338,0,0,0-2.741-.84h-.221V2.237c0-.531,1.326-.929-.177-.884-1.548,0-.221.4-.177.884,0,.4,0,1.592,0,2.122a8.2,8.2,0,0,0-2.741.354c-.177-.884-.575-2.52-.707-3.184C9.743.69,11.733-.416,9.3.159c-2.476.575-.177.752,0,1.5.133.619.531,2.432.752,3.316a8.5,8.5,0,0,0-1.105.531c-.265-.4-.752-1.061-.973-1.371-.265-.354.486-1.282-.575-.531s.088.4.31.707c.177.265.663.973.973,1.371a8.086,8.086,0,0,0-2.83,3.139C4.7,8.383,3.067,7.764,2.315,7.5c-1.061-.4-.8-3.36-1.945-.31s.663.707,1.636,1.061c.619.221,2.343.884,3.537,1.326a9.641,9.641,0,0,0-.486,1.945,8.852,8.852,0,0,0,.133,2.653c-.84.265-2.52.8-3.184,1.017-.84.265-2.122-1.68-1.326.752.752,2.432.752.133,1.5-.133.575-.177,2.3-.707,3.184-1.017a8.251,8.251,0,0,0,2.653,3.979c-.442.354-1.061.84-1.326,1.061-.442.354-1.68-.531-.619.8,1.061,1.282.486-.133.884-.442.265-.221.929-.752,1.415-1.15a5.761,5.761,0,0,0,.663.442c-.4.929-.929,2.211-1.15,2.786-.354.84-2.786.575-.31,1.592s.619-.531.929-1.282c.221-.486.752-1.813,1.15-2.786a9.586,9.586,0,0,0,2.565.752,4.547,4.547,0,0,0,.752.044V23.2c0,.884-2.211,1.5.31,1.5s.354-.707.354-1.459V20.587a10.17,10.17,0,0,0,1.15-.133c.088.486.221,1.061.31,1.371.088.442-.973,1.017.31.707,1.282-.265.088-.4,0-.8-.044-.265-.177-.884-.31-1.371a7.92,7.92,0,0,0,3.184-1.548c.354.4.663.707.884.973.929.973-.929,3.935,1.9,1.326s-.354-1.105-1.15-1.945c-.221-.221-.531-.575-.929-1.017a8.108,8.108,0,0,0,2.255-4.6c.752.177,1.592.4,1.99.531.752.177.752,2.211,1.326.088.575-2.167-.531-.442-1.15-.619-.4-.088-1.371-.354-2.122-.575a8.75,8.75,0,0,0-.221-2.432c.442-.088,1.326-.265,1.68-.31.442-.088.973.973.752-.31-.265-1.282-.4-.088-.8-.044-.31.044-1.238.221-1.68.31a12.262,12.262,0,0,0-.442-1.15c.84-.575,3.1-2.122,3.935-2.741C25.219,5.6,27.606,7.587,25.661,4.8Z" transform="matrix(0.259, 0.966, -0.966, 0.259, 460.218, 103.12)" fill="#08A66D" opacity="0.48"/><path d="M9.149,1.683c-.663-.973-.354.044-.663.265-.265.177-1.061.707-1.371.929A3.249,3.249,0,0,0,6.186,1.9c.177-.221.354-.442.442-.531.177-.221.884.044.221-.442s-.221.133-.4.31c-.088.088-.265.354-.442.575a3.574,3.574,0,0,0-.973-.31H4.948c0-.177,0-.575,0-.752s.486-.31-.088-.31c-.531,0-.088.133-.088.31,0,.133,0,.575,0,.752a3.448,3.448,0,0,0-.973.133C3.71,1.33,3.622.755,3.533.534c-.088-.31.619-.663-.221-.486s-.044.265,0,.531c.044.221.177.84.265,1.15-.133.044-.265.133-.4.177a4.631,4.631,0,0,0-.354-.486C2.738,1.285,3,.976,2.6,1.241c-.354.265.044.133.088.265a2.626,2.626,0,0,0,.354.486A2.942,2.942,0,0,0,2.074,3.1,12.11,12.11,0,0,1,.836,2.612C.483,2.479.571,1.418.129,2.523c-.4,1.061.221.265.575.4.221.088.84.31,1.238.486a3.684,3.684,0,0,0-.177.663A3.278,3.278,0,0,0,1.809,5C1.5,5.088.925,5.265.7,5.353c-.31.088-.752-.575-.486.265s.265.044.531-.044c.221-.044.8-.265,1.105-.354a3.3,3.3,0,0,0,.929,1.415c-.177.133-.354.31-.486.4-.177.133-.575-.177-.221.265s.177-.044.31-.133a5.97,5.97,0,0,1,.486-.4.441.441,0,0,1,.221.177c-.133.31-.31.752-.4.973-.133.31-.973.177-.088.575.884.354.221-.177.31-.442.088-.177.265-.619.4-.973a2.935,2.935,0,0,0,.884.265h.265v.884c0,.31-.8.531.088.531s.133-.221.133-.486V7.343c.133,0,.265-.044.4-.044a2.887,2.887,0,0,1,.088.486c.044.177-.354.354.133.265.442-.088.044-.133,0-.265,0-.088-.088-.31-.088-.486a2.572,2.572,0,0,0,1.105-.531c.133.133.221.265.31.354.31.354-.31,1.371.663.486.973-.929-.133-.4-.4-.707-.088-.088-.177-.221-.31-.354a3.01,3.01,0,0,0,.8-1.636c.265.088.575.133.707.177.265.088.265.8.486.044.177-.752-.177-.133-.4-.221a6.446,6.446,0,0,0-.752-.177,2.584,2.584,0,0,0-.088-.84c.177-.044.442-.088.575-.133.177-.044.354.354.265-.088s-.133-.044-.265,0a3.49,3.49,0,0,0-.575.133l-.133-.4c.31-.221,1.061-.752,1.371-.973C9.016,1.949,9.812,2.656,9.149,1.683Z" transform="matrix(0.259, 0.966, -0.966, 0.259, 488.826, 132.146)" fill="#dae1e2" opacity="0.48"/><g transform="translate(479.184 98.193)"><g transform="translate(0 0)" clip-path="url(#a)"><path d="M135.2,273.944s-5.306,3.36-6.986,12.823c-1.769,9.949-.4,31.659-1.813,60.8,6.234,3.758,13.353,2.83,21.622,2.52,9.285-.31,13.442-2.432,13.442-2.432s-3.4-48.814-9.418-62.035c-3.891-8.489-7.3-11.717-7.3-11.717Z" transform="translate(-70.072 -182.564)" fill="#dae1e2"/><path d="M138.52,296.094c4.289-.177,6.323,4.466,6.1,10.037-.265,7.3-.8,19.853-1.194,23.3-.354,3.493-7.915,5.394-9.153-.575A122.272,122.272,0,0,1,132.2,306.44C132.33,299.277,134.231,296.271,138.52,296.094Z" transform="translate(-73.305 -194.942)" fill="#fcfdff"/><path d="M155.863,275.972a20.149,20.149,0,0,1-7.207.663,16.746,16.746,0,0,1-6.455-2.255l2.388-1.68,9.551.8Z" transform="translate(-78.886 -181.895)" fill="#fcfdff"/><path d="M147.2,247.072l.044-20.472,8.047.354,1.592,20.781C154.009,249.9,148.792,248.266,147.2,247.072Z" transform="translate(-81.675 -156.178)" fill="#dae1e2"/><path d="M152.394,429.3a55.651,55.651,0,0,0,3.36,4.466l3.139,5.217a.885.885,0,0,1-.354,1.238l-.486.221a1.745,1.745,0,0,1-1.548-.884l-1.813-3.051.752,5.7a.614.614,0,0,1-.088.486l-1.68,3.184a.835.835,0,0,1-.929.4l-.31-.088a.815.815,0,0,1-.619-.973l.752-3.714-1.194,3.67a.8.8,0,0,1-1.105.486l-.486-.177a.878.878,0,0,1-.531-.707l-.044-.8-.354.4a.872.872,0,0,1-.973.221l-.177-.088a.817.817,0,0,1-.486-.752L147,430.494Z" transform="translate(-81.563 -269.253)" fill="#fff"/><path d="M146.313,365.78l1.857,25.38c-1.061,1.371-5.306,1.68-7.119.619,0,0-3.36-21.887-4.068-25.689s-.619-8.047,3.758-8.534C144.854,357.114,146.136,360.916,146.313,365.78Z" transform="translate(-75.791 -229.212)" fill="#fcfdff"/><g transform="translate(43.197 43.051)"><path d="M124.161,222.314s18.173.929,20.03-4.377c.265-.8-.752-5.837-1.636-9.418-1.371-5.262-3.935-11.717-7.207-15.166-5.439-5.7-18.173-10.789-23.39-5.041-4.068,4.51-10.877,15.785-.486,26.043C114.346,217.141,117.264,221.253,124.161,222.314Z" transform="translate(-101.878 -176.461)" fill="#fff"/><path d="M172.005,217.517h0l-.177-1.017a45.55,45.55,0,0,0,8.357,1.769c-1.857,5.925-7.694,4.643-9.285-.486a3.043,3.043,0,0,1,1.105-.265Z" transform="translate(-138.093 -193.595)" fill="#fff"/><path d="M161.5,176.4v.088C161.544,176.444,161.544,176.444,161.5,176.4Z" transform="translate(-132.85 -171.225)" fill="#8d5930"/><path d="M153.5,189.7l.973.265A1.348,1.348,0,0,1,153.5,189.7Z" transform="translate(-128.387 -178.645)" fill="#cf8f4b"/><path d="M116.776,210.544c1.5,2.167,2.786,8.932,1.548,11.894-4.6-1.105-9.9-2.343-13.84-5.041-3.847-2.609-9.772-9.285-7.119-16.935,2.078-8,3.537-10.081,6.279-11.761,2.167-1.371,6.765-3.758,10.125-3.935a17.311,17.311,0,0,1,4.775.4,25.489,25.489,0,0,1,3.581,1.857l-.486-.133c-1.061,2.476-7.34,2.034-7.472,4.775-.133,3.184,5.66,9.374,5.925,12.513C120.313,206.874,116.687,207.051,116.776,210.544Z" transform="translate(-96.703 -175.878)" fill="#676767"/><path d="M136.178,232.806c1.857,1.769,5.394,2.741,6.544,1.548s.619-3.626-1.238-5.394-4.908-3.581-6.367-1.9C134.056,228.384,134.321,231.082,136.178,232.806Z" transform="translate(-117.786 -199.112)" fill="#fff"/><path d="M117.531,176.062c-1.548.707-1.238,1.238.442,2.3,1.15.707,5.836,3.847,6.853,2.918l.752.442a30.755,30.755,0,0,0,6.323-2.476,21.936,21.936,0,0,0,4.112-2.255c2.167-2.078,2.432-10.391-.531-10.965-3.007-.575-3.449,2.741-3.449,2.741s1.5-4.156-1.99-4.068c-3.493.044-2.962,4.864-2.962,4.864s.044-.929-.663-.84,0,1.061-.884,2.078C122.7,173.984,119.919,174.912,117.531,176.062Z" transform="translate(-107.761 -164.697)" fill="#676767"/><g transform="translate(29.039 18.798)"><path d="M166.214,207.4c.663.884,3.051,4.112.486,5.881s-4.2-2.83-4.2-2.83S165.065,208.24,166.214,207.4Z" transform="translate(-162.447 -207.317)" fill="#dae1e2" opacity="0.48"/><path d="M165.4,207.428c-2.962,1.592-4.2,4.245-1.592,2.609C166.412,208.356,166.943,206.588,165.4,207.428Z" transform="translate(-162.379 -207.212)" fill="#c2c2c2"/><path d="M169.7,218.823c-.088-1.99,1.9-2.343,2.609-1.017" transform="translate(-166.46 -212.682)" fill="none" stroke="#c2c2c2" stroke-miterlimit="10" stroke-width="1.219"/></g><g transform="translate(32.011 34.667)"><path d="M169.188,243.1a1.746,1.746,0,0,0,.177.929,2.28,2.28,0,0,0,.575.752,2.563,2.563,0,0,0,1.636.752,5.558,5.558,0,0,0,1.9-.088,7.07,7.07,0,0,0,.929-.221,7.321,7.321,0,0,1,.929-.265c-.265.177-.575.31-.884.486a7.97,7.97,0,0,1-.929.354,5.232,5.232,0,0,1-2.034.177,2.746,2.746,0,0,1-1.813-.973,3.615,3.615,0,0,1-.531-.884A1.988,1.988,0,0,1,169.188,243.1Z" transform="translate(-169.1 -243.1)" fill="#c2c2c2"/></g></g></g><g transform="translate(0 0)" clip-path="url(#a)"><path d="M0,0H.486V21.356H0Z" transform="matrix(0.581, -0.814, 0.814, 0.581, 87.565, 73.68)" fill="#3fb7f5"/><path d="M193.361,229.4c.531.354,1.5,1.5,1.238,1.9s-1.68-.088-2.211-.442a1.034,1.034,0,0,1-.442-1.371A1.009,1.009,0,0,1,193.361,229.4Z" transform="translate(-106.568 -157.605)" fill="#fff"/><path d="M238.052,261.308c-.486-.354-1.9-.884-2.211-.486-.265.4.663,1.548,1.194,1.9a1.016,1.016,0,0,0,1.415-.044C238.759,262.28,238.582,261.706,238.052,261.308Z" transform="translate(-131.097 -175.19)" fill="#fff"/></g><g transform="translate(0 0)" clip-path="url(#c)"><path d="M254.3,267.159a37.828,37.828,0,0,1-9.772-5.217c-4.333-3.139-6.411-5.66-6.765-8.18-.619-4.289-.619-5.925-1.592-6.986a6.268,6.268,0,0,0-4.731-2.078c-1.326.044-5.439,1.105-6.986,1.238-1.15.088-1.548.4-1.5,1.105a1.982,1.982,0,0,0,1.945,1.945,33.1,33.1,0,0,0,4.687,0c1.459-.088,3.758,2.078,1.945,4.775-1.238,1.813-3.537,2.167-4.6.044-.84-1.68-.929-2.874-1.724-3.537a3.058,3.058,0,0,0-2.122-.663c-.884.044-1.813.884-1.282,1.282a3.286,3.286,0,0,1,1.548,2.962,21.7,21.7,0,0,0,.973,6.323c.752,1.857,4.422,3.007,8.666,8,4.245,4.952,6.456,7.207,7.738,10.612C248.6,276.445,253.241,270.608,254.3,267.159Z" transform="translate(-123.206 -166.273)" fill="#3fb7f5"/></g></g><path d="M629.444,76.641c-1.592-2.3-.84.133-1.5.619-.575.4-2.432,1.68-3.184,2.211a7.172,7.172,0,0,0-2.211-2.255c.354-.486.8-1.017.973-1.282.4-.531,2.034.133.531-1.061-1.547-1.194-.531.265-.884.707-.177.265-.663.84-1.061,1.371a6.712,6.712,0,0,0-2.255-.707h-.177V74.519c0-.442,1.105-.752-.177-.752-1.238,0-.177.354-.177.707V76.2a6.333,6.333,0,0,0-2.255.31c-.177-.707-.486-2.078-.575-2.609-.177-.707,1.5-1.592-.531-1.15s-.133.619,0,1.238c.133.486.442,1.99.619,2.7a5.5,5.5,0,0,0-.884.442c-.221-.31-.619-.884-.8-1.105-.221-.31.4-1.061-.486-.442s.044.31.265.575c.133.221.575.8.8,1.105a6.45,6.45,0,0,0-2.3,2.565c-.928-.354-2.3-.884-2.874-1.105-.884-.354-.663-2.741-1.592-.265-.973,2.52.575.575,1.326.884.531.177,1.945.752,2.874,1.105a6,6,0,0,0-.4,1.592A7.077,7.077,0,0,0,612.6,84.2c-.708.221-2.034.663-2.609.84-.707.221-1.724-1.371-1.105.619s.619.088,1.238-.088c.486-.133,1.857-.575,2.609-.84A6.9,6.9,0,0,0,614.9,88c-.4.31-.84.707-1.105.884-.354.31-1.371-.4-.531.619.84,1.061.4-.088.707-.354.221-.177.752-.619,1.15-.929a2.506,2.506,0,0,0,.575.354c-.31.752-.752,1.813-.973,2.3-.309.707-2.255.442-.265,1.282,2.034.84.486-.442.752-1.061.177-.4.619-1.5.929-2.255a6.653,6.653,0,0,0,2.078.619,2.919,2.919,0,0,0,.619.044V91.63c0,.707-1.813,1.238.265,1.238s.265-.575.265-1.194V89.508a3.365,3.365,0,0,0,.929-.133,10.341,10.341,0,0,0,.265,1.105c.089.354-.8.84.265.575,1.061-.221.088-.31,0-.619-.044-.221-.177-.752-.265-1.15A6.28,6.28,0,0,0,623.165,88a9.235,9.235,0,0,1,.707.8c.752.8-.752,3.228,1.548,1.105s-.265-.929-.929-1.592c-.177-.177-.442-.486-.752-.8a6.88,6.88,0,0,0,1.857-3.8c.619.177,1.282.354,1.636.442.619.177.619,1.813,1.105.044s-.4-.354-.973-.486c-.31-.088-1.105-.31-1.769-.442a7.257,7.257,0,0,0-.177-1.99c.4-.088,1.061-.221,1.371-.265.354-.088.8.8.619-.265-.221-1.061-.31-.088-.619,0-.265.044-1.017.177-1.371.265a7.965,7.965,0,0,0-.354-.929c.663-.486,2.52-1.724,3.228-2.211C629.09,77.3,630.992,78.9,629.444,76.641Z" transform="translate(29.366 65.939)" fill="#dae1e2" opacity="0.4"/><path d="M550.858,55.976c-.663-.973-.354.044-.663.265-.265.177-1.061.707-1.371.929a3.25,3.25,0,0,0-.929-.973c.177-.221.354-.442.442-.531.177-.221.884.044.221-.442s-.221.133-.4.31c-.089.088-.265.354-.442.575a3.573,3.573,0,0,0-.973-.31h-.088v-.752c0-.177.486-.31-.088-.31-.531,0-.088.133-.088.31V55.8a3.448,3.448,0,0,0-.973.133c-.088-.31-.177-.884-.265-1.105-.088-.31.619-.663-.221-.486s-.044.265,0,.531c.044.221.177.84.265,1.15-.133.044-.265.133-.4.177a4.658,4.658,0,0,0-.354-.486c-.089-.133.177-.442-.221-.177-.354.265.044.133.088.265a2.622,2.622,0,0,0,.354.486,2.942,2.942,0,0,0-.973,1.105,12.118,12.118,0,0,1-1.238-.486c-.354-.133-.265-1.194-.707-.088-.4,1.061.221.265.575.4.221.088.84.31,1.238.486a3.691,3.691,0,0,0-.177.663,3.277,3.277,0,0,0,.044.929c-.31.088-.884.265-1.105.354-.31.088-.752-.575-.486.265s.265.044.531-.044c.221-.044.8-.265,1.105-.354a3.3,3.3,0,0,0,.929,1.415c-.177.133-.354.31-.486.4-.177.133-.575-.177-.221.265s.177-.044.31-.133a5.967,5.967,0,0,1,.486-.4.441.441,0,0,1,.221.177c-.133.31-.309.752-.4.973-.133.31-.973.177-.088.575.884.354.221-.177.31-.442.088-.177.265-.663.4-.973a2.934,2.934,0,0,0,.884.265h.265v.884c0,.31-.8.531.088.531s.133-.221.133-.486v-.929c.133,0,.265-.044.4-.044a2.9,2.9,0,0,1,.088.486c.044.177-.354.354.133.265.442-.088.044-.133,0-.265,0-.088-.088-.31-.088-.486a2.572,2.572,0,0,0,1.105-.531c.133.133.221.265.31.354.31.354-.31,1.371.663.486.973-.929-.133-.4-.4-.707-.088-.088-.177-.221-.31-.354a3.01,3.01,0,0,0,.8-1.636c.265.088.575.133.708.177.265.088.265.8.486.044.177-.752-.177-.133-.4-.221a6.443,6.443,0,0,0-.752-.177,2.582,2.582,0,0,0-.089-.84c.177-.044.442-.088.575-.133.177-.044.354.354.265-.088s-.133-.044-.265,0a3.491,3.491,0,0,0-.575.133l-.133-.4c.309-.221,1.061-.752,1.371-.973C550.725,56.286,551.521,56.993,550.858,55.976Z" transform="translate(71.34 115.308)" fill="#dae1e2" opacity="0.4"/><path d="M714.758,39.976c-.663-.973-.354.044-.663.265-.265.177-1.061.707-1.371.929a3.25,3.25,0,0,0-.929-.973c.177-.221.354-.442.442-.531.177-.221.884.044.221-.442s-.221.133-.4.31c-.088.088-.265.354-.442.575a3.574,3.574,0,0,0-.973-.31h-.089v-.752c0-.177.486-.31-.088-.31-.531,0-.088.133-.088.31V39.8a3.448,3.448,0,0,0-.973.133c-.088-.31-.221-.884-.265-1.105-.088-.31.619-.663-.221-.486s-.044.265,0,.531c.044.221.177.84.265,1.15-.133.044-.265.133-.4.177a4.623,4.623,0,0,0-.354-.486c-.088-.133.177-.442-.221-.177-.354.265.044.133.089.265a2.628,2.628,0,0,0,.354.486,2.942,2.942,0,0,0-.973,1.105,12.107,12.107,0,0,1-1.238-.486c-.354-.133-.265-1.194-.707-.088-.4,1.061.221.265.575.4.221.088.84.31,1.238.486a3.681,3.681,0,0,0-.177.663,3.279,3.279,0,0,0,.044.929c-.309.088-.884.265-1.105.354-.31.088-.752-.575-.486.265s.265.044.531-.044c.221-.044.8-.265,1.105-.354a3.3,3.3,0,0,0,.929,1.415c-.177.133-.354.31-.486.4-.177.133-.575-.177-.221.265s.177-.044.31-.133a5.968,5.968,0,0,1,.486-.4.441.441,0,0,1,.221.177c-.133.31-.31.752-.4.973-.133.31-.973.177-.088.575.884.354.221-.177.31-.442.088-.177.265-.663.4-.973a2.934,2.934,0,0,0,.884.265h.265v.884c0,.31-.8.531.089.531s.133-.221.133-.486v-.929c.133,0,.265-.044.4-.044a2.89,2.89,0,0,1,.088.486c.044.177-.354.354.133.265.442-.088.044-.133,0-.265,0-.088-.089-.31-.089-.486a2.572,2.572,0,0,0,1.105-.531c.133.133.221.265.31.354.309.354-.31,1.371.663.486.973-.929-.133-.4-.4-.707-.088-.088-.177-.221-.31-.354a3.01,3.01,0,0,0,.8-1.636c.265.088.575.133.707.177.265.088.265.8.486.044.177-.752-.177-.133-.4-.221a6.442,6.442,0,0,0-.752-.177,2.586,2.586,0,0,0-.088-.84c.177-.044.442-.088.575-.133.177-.044.354.354.265-.088s-.133-.044-.265,0a3.489,3.489,0,0,0-.575.133l-.133-.4c.31-.221,1.061-.752,1.371-.973C714.625,40.286,715.421,40.949,714.758,39.976Z" transform="translate(-30.957 76.399)" fill="#08A66D" opacity="0.4"/><path d="M122.257.567C113.988.522,105.676-.45,97.407.257s-16.714,3.272-22.55,9.2c-5.129,5.217-7.694,12.513-12.469,18.084a29.208,29.208,0,0,1-16.537,9.639c-4.51.884-9.2.663-13.8,1.017S22.683,39.521,19.1,42.439a24.238,24.238,0,0,0-5.925,8.047C8.887,58.843,6.013,68.128,0,75.38" transform="matrix(0.899, 0.438, -0.438, 0.899, 624.74, 142.393)" fill="none" stroke="#08A66D" stroke-miterlimit="10" stroke-width="1" stroke-dasharray="8.221"/><path d="M498.948,26.227c-.84-1.238-.442.088-.84.31-.31.221-1.326.929-1.724,1.194a3.989,3.989,0,0,0-1.194-1.238,4.843,4.843,0,0,0,.531-.707c.221-.31,1.105.088.265-.575s-.265.133-.486.4c-.088.133-.354.442-.575.752a5.081,5.081,0,0,0-1.238-.4H493.6v-.929c0-.221.575-.4-.088-.4s-.088.177-.088.4v.929a3.815,3.815,0,0,0-1.238.177c-.088-.4-.265-1.105-.31-1.415-.088-.4.8-.884-.265-.619-1.105.265-.088.354,0,.663.044.265.265,1.105.354,1.459a1.716,1.716,0,0,0-.486.265c-.133-.177-.354-.486-.442-.619-.133-.177.221-.575-.265-.221s.044.177.133.31.31.442.442.619A3.951,3.951,0,0,0,490.061,28c-.486-.177-1.238-.486-1.592-.619-.486-.177-.354-1.5-.884-.133s.31.31.707.486c.265.088,1.061.4,1.592.619a5.177,5.177,0,0,0-.221.884,3.614,3.614,0,0,0,.044,1.194c-.4.133-1.105.354-1.415.442-.4.133-.929-.752-.619.354.354,1.105.354.044.663-.044.265-.088,1.017-.31,1.415-.442a3.519,3.519,0,0,0,1.194,1.769c-.221.177-.486.4-.575.486-.221.177-.752-.221-.265.354s.221-.044.4-.177c.133-.088.4-.354.619-.531a1.87,1.87,0,0,0,.31.221c-.177.4-.4.973-.531,1.238-.177.4-1.238.265-.133.707s.265-.221.4-.575c.088-.221.354-.84.531-1.238a4.962,4.962,0,0,0,1.15.354.973.973,0,0,1,.354.044v1.15c0,.4-.973.663.133.663,1.15,0,.133-.31.133-.663V33.346c.177,0,.354-.044.531-.044.044.221.088.486.133.619.044.221-.442.442.133.31s.044-.177,0-.354c-.044-.133-.088-.4-.133-.619a3.293,3.293,0,0,0,1.415-.707,3.224,3.224,0,0,1,.4.442c.4.442-.4,1.769.84.619s-.133-.486-.486-.884c-.088-.088-.221-.265-.4-.442a3.7,3.7,0,0,0,1.017-2.078c.309.088.707.177.884.221.354.088.354.973.619.044.265-.973-.221-.177-.531-.265-.177-.044-.619-.177-.973-.265a3.043,3.043,0,0,0-.088-1.105,5.408,5.408,0,0,1,.752-.133c.221-.044.442.442.309-.133s-.177-.044-.354,0c-.133.044-.531.088-.752.133-.044-.177-.133-.354-.177-.486.354-.265,1.371-.929,1.769-1.238C498.771,26.625,499.832,27.465,498.948,26.227Z" transform="translate(90.402 80.813)" fill="#08A66D" opacity="0.4"/><path d="M592.1,38.849c-.556-.89-.334,0-.556.223a11.731,11.731,0,0,1-1.224.779,1.753,1.753,0,0,0-.779-.779c.111-.223.334-.334.334-.445.111-.223.779,0,.223-.334-.557-.445-.223.111-.334.223s-.223.334-.334.445a2.064,2.064,0,0,0-.779-.223h-.111V38.07c0-.111.445-.223-.111-.223-.445,0-.111.111-.111.223v.668a1.651,1.651,0,0,0-.779.111,3.251,3.251,0,0,1-.223-1c-.111-.223.556-.556-.223-.445-.779.223,0,.223,0,.445a3.25,3.25,0,0,0,.223,1c-.111,0-.223.111-.334.111-.111-.111-.223-.334-.334-.445s.111-.445-.223-.111c-.334.223,0,.111.111.223,0,.111.223.334.334.445a2.627,2.627,0,0,0-.89,1,11.534,11.534,0,0,1-1.113-.445c-.334-.111-.223-1-.556-.111s.223.223.445.334.668.223,1.113.445a1,1,0,0,0-.111.556v.779c-.223.111-.779.223-1,.334s-.668-.556-.445.223.223,0,.445,0a5.24,5.24,0,0,0,1-.334,2.882,2.882,0,0,0,.779,1.224c-.111.111-.334.223-.445.334s-.556-.111-.223.223.111,0,.223-.111.334-.223.445-.334c.111,0,.111.111.223.111-.111.223-.223.668-.334.89s-.779.223-.111.445c.779.334.223-.111.223-.334a3.77,3.77,0,0,0,.334-.89,1.608,1.608,0,0,0,.779.223h.223v.779c0,.223-.668.445.111.445s.111-.223.111-.445v-.779h.334c0,.111.111.334.111.445s-.334.334.111.223c.334-.111,0-.111,0-.223s-.111-.223-.111-.445a3.953,3.953,0,0,0,1-.445c.111.111.223.223.223.334.222.334-.223,1.224.556.445.89-.779-.111-.334-.334-.556-.111-.111-.111-.223-.222-.334a3.034,3.034,0,0,0,.668-1.335,1.21,1.21,0,0,0,.556.111c.223.111.223.668.445,0s-.111-.111-.334-.223a2.306,2.306,0,0,1-.668-.223,2.173,2.173,0,0,0-.111-.779,2.525,2.525,0,0,0,.445-.111c.111,0,.334.334.223-.111-.111-.334-.111,0-.223,0a4.815,4.815,0,0,1-.556.111c0-.111-.111-.223-.111-.334a4.6,4.6,0,0,1,1.224-.779C591.878,39.072,592.657,39.739,592.1,38.849Z" transform="translate(46.385 65.57)" fill="#08A66D" opacity="0.4"/><g transform="translate(650.173 157.635)"><path d="M304.491,109.917c-10.744,1.238-17.952,8-15.962,22.285,1.769,12.69-.84,15.476-6.146,24.451-6.809,11.5-2.83,22.285,3.007,27.768s17.2,5.748,27.016,3.8c10.523-2.034,14.9-1.194,20.737,7.34,5.483,8,16.183,9.374,22.329-1.415s-6.455-18.747.486-28.387,21.622-27.458,14.459-38.6-19.632-5.969-26.795-.84c-7.163,5.173-14.459,4.643-19.322-2.476C318.287,115.046,314.484,108.723,304.491,109.917Z" transform="translate(-278.803 -109.772)" fill="#dae1e2" opacity="0.89"/></g><g transform="translate(637.129 179.776)"><path d="M423.6,231.144c0-.044,0-.044-.044-.044h-9.816c-.044,0-.044,0-.044.044l.044,46.427a4.952,4.952,0,0,0,9.9,0Z" transform="translate(-391.485 -206.494)" fill="#dbebee"/><path d="M423.589,320.55l-.044-11.85H415.1l.044,11.85a4.18,4.18,0,0,0,4.245,4.2h0A4.171,4.171,0,0,0,423.589,320.55Z" transform="translate(-392.266 -249.783)" fill="#3fb7f5" opacity="0.54"/><path d="M420.642,279.726a4.755,4.755,0,0,1-4.775-4.775l-.044-39.308a11.935,11.935,0,0,1,7.782-.884V231h-9.9v5.925h0l.044,40.546a4.944,4.944,0,0,0,4.952,4.952,5.027,5.027,0,0,0,4.775-3.626A4.717,4.717,0,0,1,420.642,279.726Z" transform="translate(-391.485 -206.438)" fill="#3fb7f5"/><path d="M422.492,230.5h-11.54a.745.745,0,0,1-.752-.752h0a.745.745,0,0,1,.752-.752h11.54a.745.745,0,0,1,.752.752h0A.775.775,0,0,1,422.492,230.5Z" transform="translate(-389.533 -205.323)" fill="#3fb7f5"/><path d="M433.217,269.373c0,10.037-.221,18.173-.486,18.173s-.486-8.136-.531-18.173c0-10.037.221-18.173.486-18.173C433,251.2,433.217,259.336,433.217,269.373Z" transform="translate(-401.806 -217.707)" fill="#fff"/><path d="M423.6,231.144c0-.044,0-.044-.044-.044h-9.816c-.044,0-.044,0-.044.044l.044,46.427a4.952,4.952,0,0,0,9.9,0Z" transform="translate(-412.152 -206.494)" fill="#dbebee"/><path d="M423.589,320.55l-.044-11.85H415.1l.044,11.85a4.18,4.18,0,0,0,4.245,4.2h0A4.171,4.171,0,0,0,423.589,320.55Z" transform="translate(-412.933 -249.783)" fill="#3fb7f5" opacity="0.54"/><path d="M420.642,279.726a4.755,4.755,0,0,1-4.775-4.775l-.044-39.308a11.935,11.935,0,0,1,7.782-.884V231h-9.9v5.925h0l.044,40.546a4.944,4.944,0,0,0,4.952,4.952,5.027,5.027,0,0,0,4.775-3.626A4.717,4.717,0,0,1,420.642,279.726Z" transform="translate(-412.152 -206.438)" fill="#3fb7f5"/><path d="M422.492,230.5h-11.54a.745.745,0,0,1-.752-.752h0a.745.745,0,0,1,.752-.752h11.54a.745.745,0,0,1,.752.752h0A.775.775,0,0,1,422.492,230.5Z" transform="translate(-410.2 -205.323)" fill="#3fb7f5"/><path d="M423.6,231.144c0-.044,0-.044-.044-.044h-9.816c-.044,0-.044,0-.044.044l.044,46.427a4.952,4.952,0,0,0,9.9,0Z" transform="translate(-370.73 -206.494)" fill="#dbebee"/><path d="M423.589,320.55l-.044-11.85H415.1l.044,11.85a4.18,4.18,0,0,0,4.245,4.2h0A4.171,4.171,0,0,0,423.589,320.55Z" transform="translate(-371.511 -249.783)" fill="#3fb7f5" opacity="0.54"/><path d="M422.492,230.5h-11.54a.745.745,0,0,1-.752-.752h0a.745.745,0,0,1,.752-.752h11.54a.745.745,0,0,1,.752.752h0A.775.775,0,0,1,422.492,230.5Z" transform="translate(-368.778 -205.323)" fill="#3fb7f5"/><path d="M433.217,269.373c0,10.037-.221,18.173-.486,18.173s-.486-8.136-.531-18.173c0-10.037.221-18.173.486-18.173C433,251.2,433.217,259.336,433.217,269.373Z" transform="translate(-381.139 -217.707)" fill="#fff"/><g transform="matrix(0.999, -0.035, 0.035, 0.999, 42.97, 0.416)"><rect width="1.272" height="55.449" transform="matrix(-0.994, -0.111, 0.111, -0.994, 3.485, 62.551)" fill="#9bd8f7"/><path d="M.051,2.632c-.225,1.609.3,5.462,1.534,5.612,1.235.187,2.769-3.4,2.993-5.014S3.979.2,2.707.013C1.472-.137.275,1.023.051,2.632Z" transform="translate(7.307 0)" fill="#fff"/><path d="M.025,5.093C.212,3.484,1.634-.145,2.868,0S4.7,3.97,4.552,5.579C4.365,7.188,3.2,8.385,1.97,8.236.736,8.123-.162,6.739.025,5.093Z" transform="translate(0 61.368)" fill="#fffded" opacity="0.55"/></g><path d="M420.642,279.726a4.755,4.755,0,0,1-4.775-4.775l-.044-39.308a11.935,11.935,0,0,1,7.782-.884V231h-9.9v5.925h0l.044,40.546a4.944,4.944,0,0,0,4.952,4.952,5.027,5.027,0,0,0,4.775-3.626A4.717,4.717,0,0,1,420.642,279.726Z" transform="translate(-370.73 -206.438)" fill="#3fb7f5"/></g><path d="M550.858,55.976c-.663-.973-.354.044-.663.265-.265.177-1.061.707-1.371.929a3.25,3.25,0,0,0-.929-.973c.177-.221.354-.442.442-.531.177-.221.884.044.221-.442s-.221.133-.4.31c-.089.088-.265.354-.442.575a3.573,3.573,0,0,0-.973-.31h-.088v-.752c0-.177.486-.31-.088-.31-.531,0-.088.133-.088.31V55.8a3.448,3.448,0,0,0-.973.133c-.088-.31-.177-.884-.265-1.105-.088-.31.619-.663-.221-.486s-.044.265,0,.531c.044.221.177.84.265,1.15-.133.044-.265.133-.4.177a4.658,4.658,0,0,0-.354-.486c-.089-.133.177-.442-.221-.177-.354.265.044.133.088.265a2.622,2.622,0,0,0,.354.486,2.942,2.942,0,0,0-.973,1.105,12.118,12.118,0,0,1-1.238-.486c-.354-.133-.265-1.194-.707-.088-.4,1.061.221.265.575.4.221.088.84.31,1.238.486a3.691,3.691,0,0,0-.177.663,3.277,3.277,0,0,0,.044.929c-.31.088-.884.265-1.105.354-.31.088-.752-.575-.486.265s.265.044.531-.044c.221-.044.8-.265,1.105-.354a3.3,3.3,0,0,0,.929,1.415c-.177.133-.354.31-.486.4-.177.133-.575-.177-.221.265s.177-.044.31-.133a5.967,5.967,0,0,1,.486-.4.441.441,0,0,1,.221.177c-.133.31-.309.752-.4.973-.133.31-.973.177-.088.575.884.354.221-.177.31-.442.088-.177.265-.663.4-.973a2.934,2.934,0,0,0,.884.265h.265v.884c0,.31-.8.531.088.531s.133-.221.133-.486v-.929c.133,0,.265-.044.4-.044a2.9,2.9,0,0,1,.088.486c.044.177-.354.354.133.265.442-.088.044-.133,0-.265,0-.088-.088-.31-.088-.486a2.572,2.572,0,0,0,1.105-.531c.133.133.221.265.31.354.31.354-.31,1.371.663.486.973-.929-.133-.4-.4-.707-.088-.088-.177-.221-.31-.354a3.01,3.01,0,0,0,.8-1.636c.265.088.575.133.708.177.265.088.265.8.486.044.177-.752-.177-.133-.4-.221a6.443,6.443,0,0,0-.752-.177,2.582,2.582,0,0,0-.089-.84c.177-.044.442-.088.575-.133.177-.044.354.354.265-.088s-.133-.044-.265,0a3.491,3.491,0,0,0-.575.133l-.133-.4c.309-.221,1.061-.752,1.371-.973C550.725,56.286,551.521,56.993,550.858,55.976Z" transform="translate(66.639 70.763)" fill="#dae1e2" opacity="0.4"/><path d="M503.468,27.088c-1.169-1.723-.615.123-1.169.431-.431.308-1.846,1.292-2.4,1.662a5.553,5.553,0,0,0-1.662-1.723,6.744,6.744,0,0,0,.739-.985c.308-.431,1.539.123.369-.8s-.369.185-.677.554c-.123.185-.492.615-.8,1.046a7.074,7.074,0,0,0-1.723-.554h-.123V25.427c0-.308.8-.554-.123-.554s-.123.246-.123.554v1.292a5.31,5.31,0,0,0-1.723.246c-.123-.554-.369-1.539-.431-1.969-.123-.554,1.108-1.231-.369-.862-1.539.369-.123.492,0,.923.062.369.369,1.539.492,2.031a2.389,2.389,0,0,0-.677.369c-.185-.246-.492-.677-.615-.862-.185-.246.308-.8-.369-.308s.062.246.185.431.431.615.615.862A5.5,5.5,0,0,0,491.1,29.55c-.677-.246-1.723-.677-2.216-.862-.677-.246-.492-2.092-1.231-.185s.431.431.985.677c.369.123,1.477.554,2.216.862a7.2,7.2,0,0,0-.308,1.231,5.029,5.029,0,0,0,.062,1.662c-.554.185-1.539.492-1.969.615-.554.185-1.292-1.046-.862.492.492,1.539.492.062.923-.062.369-.123,1.415-.431,1.969-.615a4.9,4.9,0,0,0,1.662,2.462c-.308.246-.677.554-.8.677-.308.246-1.046-.308-.369.492s.308-.062.554-.246c.185-.123.554-.492.862-.739a2.6,2.6,0,0,0,.431.308c-.246.554-.554,1.354-.739,1.723-.246.554-1.723.369-.185.985s.369-.308.554-.8c.123-.308.492-1.169.739-1.723a6.908,6.908,0,0,0,1.6.492,1.355,1.355,0,0,1,.492.062v1.6c0,.554-1.354.923.185.923,1.6,0,.185-.431.185-.923V37c.246,0,.492-.062.739-.062.062.308.123.677.185.862.062.308-.615.615.185.431s.062-.246,0-.492c-.062-.185-.123-.554-.185-.862a4.584,4.584,0,0,0,1.969-.985,4.5,4.5,0,0,1,.554.615c.554.615-.554,2.462,1.169.862s-.185-.677-.677-1.231c-.123-.123-.308-.369-.554-.615a5.156,5.156,0,0,0,1.415-2.893c.431.123.985.246,1.231.308.492.123.492,1.354.862.062.369-1.354-.308-.246-.738-.369-.246-.062-.862-.246-1.354-.369a4.235,4.235,0,0,0-.123-1.539,7.529,7.529,0,0,1,1.046-.185c.308-.062.615.615.431-.185s-.246-.062-.492,0c-.185.062-.739.123-1.046.185-.062-.246-.185-.492-.246-.677.492-.369,1.908-1.292,2.462-1.723C503.222,27.642,504.7,28.811,503.468,27.088Z" transform="translate(180.109 144.083)" fill="#fff" opacity="0.4"/><path d="M503.468,27.088c-1.169-1.723-.615.123-1.169.431-.431.308-1.846,1.292-2.4,1.662a5.553,5.553,0,0,0-1.662-1.723,6.744,6.744,0,0,0,.739-.985c.308-.431,1.539.123.369-.8s-.369.185-.677.554c-.123.185-.492.615-.8,1.046a7.074,7.074,0,0,0-1.723-.554h-.123V25.427c0-.308.8-.554-.123-.554s-.123.246-.123.554v1.292a5.31,5.31,0,0,0-1.723.246c-.123-.554-.369-1.539-.431-1.969-.123-.554,1.108-1.231-.369-.862-1.539.369-.123.492,0,.923.062.369.369,1.539.492,2.031a2.389,2.389,0,0,0-.677.369c-.185-.246-.492-.677-.615-.862-.185-.246.308-.8-.369-.308s.062.246.185.431.431.615.615.862A5.5,5.5,0,0,0,491.1,29.55c-.677-.246-1.723-.677-2.216-.862-.677-.246-.492-2.092-1.231-.185s.431.431.985.677c.369.123,1.477.554,2.216.862a7.2,7.2,0,0,0-.308,1.231,5.029,5.029,0,0,0,.062,1.662c-.554.185-1.539.492-1.969.615-.554.185-1.292-1.046-.862.492.492,1.539.492.062.923-.062.369-.123,1.415-.431,1.969-.615a4.9,4.9,0,0,0,1.662,2.462c-.308.246-.677.554-.8.677-.308.246-1.046-.308-.369.492s.308-.062.554-.246c.185-.123.554-.492.862-.739a2.6,2.6,0,0,0,.431.308c-.246.554-.554,1.354-.739,1.723-.246.554-1.723.369-.185.985s.369-.308.554-.8c.123-.308.492-1.169.739-1.723a6.908,6.908,0,0,0,1.6.492,1.355,1.355,0,0,1,.492.062v1.6c0,.554-1.354.923.185.923,1.6,0,.185-.431.185-.923V37c.246,0,.492-.062.739-.062.062.308.123.677.185.862.062.308-.615.615.185.431s.062-.246,0-.492c-.062-.185-.123-.554-.185-.862a4.584,4.584,0,0,0,1.969-.985,4.5,4.5,0,0,1,.554.615c.554.615-.554,2.462,1.169.862s-.185-.677-.677-1.231c-.123-.123-.308-.369-.554-.615a5.156,5.156,0,0,0,1.415-2.893c.431.123.985.246,1.231.308.492.123.492,1.354.862.062.369-1.354-.308-.246-.738-.369-.246-.062-.862-.246-1.354-.369a4.235,4.235,0,0,0-.123-1.539,7.529,7.529,0,0,1,1.046-.185c.308-.062.615.615.431-.185s-.246-.062-.492,0c-.185.062-.739.123-1.046.185-.062-.246-.185-.492-.246-.677.492-.369,1.908-1.292,2.462-1.723C503.222,27.642,504.7,28.811,503.468,27.088Z" transform="translate(22.259 159.635)" fill="#fff" opacity="0.4"/><path d="M498.84,26.206c-.832-1.226-.438.088-.832.307-.307.219-1.314.92-1.708,1.183a3.952,3.952,0,0,0-1.183-1.226,4.8,4.8,0,0,0,.526-.7c.219-.307,1.1.088.263-.569s-.263.131-.482.394c-.088.131-.35.438-.569.745a5.034,5.034,0,0,0-1.227-.394h-.088v-.92c0-.219.569-.394-.088-.394s-.088.175-.088.394v.92a3.779,3.779,0,0,0-1.226.175c-.088-.394-.263-1.1-.307-1.4-.088-.394.788-.876-.263-.613-1.1.263-.088.35,0,.657.044.263.263,1.1.35,1.445a1.7,1.7,0,0,0-.482.263c-.131-.175-.35-.482-.438-.613-.131-.175.219-.569-.263-.219s.044.175.131.307.307.438.438.613a3.913,3.913,0,0,0-1.27,1.4c-.482-.175-1.226-.482-1.577-.613-.482-.175-.35-1.489-.876-.131s.307.307.7.482c.263.088,1.051.394,1.577.613a5.124,5.124,0,0,0-.219.876,3.578,3.578,0,0,0,.044,1.183c-.394.131-1.1.35-1.4.438-.394.131-.92-.745-.613.35.35,1.1.35.044.657-.044.263-.088,1.007-.307,1.4-.438a3.486,3.486,0,0,0,1.183,1.752c-.219.175-.482.394-.569.482-.219.175-.745-.219-.263.35s.219-.044.394-.175c.131-.088.394-.35.613-.526a1.853,1.853,0,0,0,.307.219c-.175.394-.394.964-.526,1.226-.175.394-1.227.263-.131.7s.263-.219.394-.569c.088-.219.35-.832.526-1.226a4.916,4.916,0,0,0,1.139.35.964.964,0,0,1,.35.044v1.139c0,.394-.964.657.131.657,1.139,0,.131-.307.131-.657V33.259c.175,0,.35-.044.526-.044.044.219.088.482.131.613.044.219-.438.438.131.307s.044-.175,0-.35c-.044-.131-.088-.394-.131-.613a3.262,3.262,0,0,0,1.4-.7,3.2,3.2,0,0,1,.394.438c.394.438-.394,1.752.832.613s-.131-.482-.482-.876c-.088-.088-.219-.263-.394-.438a3.67,3.67,0,0,0,1.007-2.059c.307.088.7.175.876.219.35.088.35.964.613.044.263-.964-.219-.175-.526-.263-.175-.044-.613-.175-.964-.263a3.015,3.015,0,0,0-.088-1.1,5.357,5.357,0,0,1,.745-.131c.219-.044.438.438.307-.131s-.175-.044-.35,0c-.131.044-.526.088-.745.131-.044-.175-.131-.35-.175-.482.35-.263,1.358-.92,1.752-1.226C498.665,26.6,499.717,27.433,498.84,26.206Z" transform="translate(92.947 122.537)" fill="#fff" opacity="0.4"/><path d="M9.957,1.877c-.752-1.061-.4.044-.707.265-.265.177-1.15.8-1.5,1.061A3.048,3.048,0,0,0,6.685,2.142c.177-.221.354-.486.486-.619.177-.265.973.044.221-.486-.707-.575-.265.133-.4.354-.088.133-.31.4-.486.663a2.7,2.7,0,0,0-1.061-.31H5.358c0-.177,0-.663,0-.84,0-.221.531-.354-.088-.354C4.7.55,5.182.727,5.182.9c0,.133,0,.619,0,.8a4.361,4.361,0,0,0-1.061.133C4.032,1.479,3.9.86,3.855.594,3.767.241,4.563-.157,3.59.064s-.088.31,0,.575c.044.221.221.929.31,1.282a2.066,2.066,0,0,0-.442.221c-.088-.133-.31-.4-.4-.531s.177-.486-.221-.221c-.4.31.044.133.133.265.088.088.265.354.4.531A3.34,3.34,0,0,0,2.263,3.424c-.442-.177-1.061-.4-1.371-.531-.4-.177-.31-1.326-.752-.133s.265.265.619.4c.265.088.929.354,1.371.531a2.083,2.083,0,0,0-.177.752A3.84,3.84,0,0,0,2,5.458c-.31.088-.973.31-1.238.4-.31.088-.84-.663-.531.31.31.929.31.044.575-.044.221-.088.884-.265,1.238-.4A3.079,3.079,0,0,0,3.059,7.271c-.177.133-.4.31-.531.4-.177.133-.663-.177-.265.31s.177-.044.354-.177c.088-.088.354-.31.531-.442.088.044.177.133.265.177-.133.354-.354.84-.442,1.105-.133.354-1.061.221-.133.619.973.4.221-.221.354-.486.088-.177.31-.707.442-1.061a3.574,3.574,0,0,0,.973.31h.31V9.039c0,.354-.84.575.133.575s.133-.265.133-.575V8.023c.133,0,.31-.044.442-.044.044.177.088.4.133.531.044.177-.354.4.133.265.486-.088.044-.133,0-.31a4.572,4.572,0,0,0-.133-.531,2.736,2.736,0,0,0,1.238-.619l.354.354c.354.4-.354,1.548.752.531s-.133-.442-.442-.752a3.614,3.614,0,0,1-.354-.4,3.37,3.37,0,0,0,.884-1.769c.265.088.619.177.8.221.31.088.31.84.531.044.221-.84-.177-.177-.442-.221-.133-.044-.531-.133-.84-.221a3.159,3.159,0,0,0-.088-.929c.177-.044.486-.088.663-.133s.4.4.265-.133c-.088-.486-.133-.044-.31,0-.133.044-.486.088-.663.133A1.848,1.848,0,0,0,7.923,3.6c.31-.221,1.194-.84,1.548-1.061C9.78,2.186,10.709,2.982,9.957,1.877Z" transform="matrix(0.259, 0.966, -0.966, 0.259, 442.287, 142.727)" fill="#08A66D" opacity="0.44"/></g></svg>