<svg xmlns="http://www.w3.org/2000/svg" width="146.689" height="81.136" viewBox="0 0 146.689 81.136">
  <g id="Group_742" data-name="Group 742" transform="translate(4260.215 12725)">
    <g id="Group_741" data-name="Group 741" transform="translate(-4475.965 -12829.59)">
      <path id="Path_3107" data-name="Path 3107" d="M196.747,440.665a3.576,3.576,0,1,1,0,7.151H194.47v-7.151Zm0,6.641a3.063,3.063,0,1,0,0-6.125h-1.672V447.3Z" transform="translate(21.53 -262.442)" fill="#535352"/>
      <path id="Path_3108" data-name="Path 3108" d="M196.747,440.665a3.576,3.576,0,1,1,0,7.151H194.47v-7.151Zm0,6.641a3.063,3.063,0,1,0,0-6.125h-1.672V447.3Z" transform="translate(21.53 -262.442)" fill="#535352" stroke="#535352" stroke-miterlimit="10" stroke-width="0.5"/>
      <path id="Path_3109" data-name="Path 3109" d="M210.092,447.824l-.809-1.971h-3.7l-.809,1.971h-.639l2.977-7.144h.68l2.977,7.144Zm-1-2.481-1.665-4.011-1.652,4.011Z" transform="translate(18.437 -262.45)" fill="#535352"/>
      <path id="Path_3110" data-name="Path 3110" d="M210.092,447.824l-.809-1.971h-3.7l-.809,1.971h-.639l2.977-7.144h.68l2.977,7.144Zm-1-2.481-1.665-4.011-1.652,4.011Z" transform="translate(18.437 -262.45)" fill="#535352" stroke="#535352" stroke-miterlimit="10" stroke-width="0.5"/>
      <path id="Path_3111" data-name="Path 3111" d="M216.536,447.824l-2.916-7.144h.632l2.59,6.458,2.583-6.458h.639l-2.916,7.144Z" transform="translate(15.398 -262.45)" fill="#535352"/>
      <path id="Path_3112" data-name="Path 3112" d="M216.536,447.824l-2.916-7.144h.632l2.59,6.458,2.583-6.458h.639l-2.916,7.144Z" transform="translate(15.398 -262.45)" fill="#535352" stroke="#535352" stroke-miterlimit="10" stroke-width="0.5"/>
      <rect id="Rectangle_1286" data-name="Rectangle 1286" width="0.605" height="7.151" transform="translate(236.896 178.23)" fill="#535352"/>
      <rect id="Rectangle_1287" data-name="Rectangle 1287" width="0.605" height="7.151" transform="translate(236.896 178.23)" fill="#535352" stroke="#535352" stroke-miterlimit="10" stroke-width="0.5"/>
      <path id="Path_3113" data-name="Path 3113" d="M231.3,440.665a3.576,3.576,0,1,1,0,7.151H229v-7.151Zm0,6.641a3.063,3.063,0,1,0,0-6.125h-1.665V447.3Z" transform="translate(10.472 -262.442)" fill="#535352"/>
      <path id="Path_3114" data-name="Path 3114" d="M231.3,440.665a3.576,3.576,0,1,1,0,7.151H229v-7.151Zm0,6.641a3.063,3.063,0,1,0,0-6.125h-1.665V447.3Z" transform="translate(10.472 -262.442)" fill="#535352" stroke="#535352" stroke-miterlimit="10" stroke-width="0.5"/>
      <path id="Path_3115" data-name="Path 3115" d="M241.985,447.824h-.6v-2.848l-2.78-4.3h.7l2.386,3.732,2.386-3.732h.7l-2.787,4.3Z" transform="translate(7.398 -262.45)" fill="#535352"/>
      <path id="Path_3116" data-name="Path 3116" d="M241.985,447.824h-.6v-2.848l-2.78-4.3h.7l2.386,3.732,2.386-3.732h.7l-2.787,4.3Z" transform="translate(7.398 -262.45)" fill="#535352" stroke="#535352" stroke-miterlimit="10" stroke-width="0.5"/>
      <path id="Path_3117" data-name="Path 3117" d="M253.191,447.824l-.816-1.971h-3.691l-.816,1.971h-.639l2.977-7.144h.646l2.977,7.144Zm-1.006-2.481-1.652-4.011-1.659,4.011Z" transform="translate(4.635 -262.45)" fill="#535352"/>
      <path id="Path_3118" data-name="Path 3118" d="M253.191,447.824l-.816-1.971h-3.691l-.816,1.971h-.639l2.977-7.144h.646l2.977,7.144Zm-1.006-2.481-1.652-4.011-1.659,4.011Z" transform="translate(4.635 -262.45)" fill="#535352" stroke="#535352" stroke-miterlimit="10" stroke-width="0.5"/>
      <path id="Path_3119" data-name="Path 3119" d="M263.767,447.824l-4.276-6.131v6.131h-.612V440.68h.741l4.276,6.138V440.68h.6v7.144Z" transform="translate(0.904 -262.45)" fill="#535352"/>
      <path id="Path_3120" data-name="Path 3120" d="M263.767,447.824l-4.276-6.131v6.131h-.612V440.68h.741l4.276,6.138V440.68h.6v7.144Z" transform="translate(0.904 -262.45)" fill="#535352" stroke="#535352" stroke-miterlimit="10" stroke-width="0.5"/>
      <path id="Path_3121" data-name="Path 3121" d="M272.4,441.183v6.641h-.605v-6.641H269.13v-.5h5.928v.5Z" transform="translate(-2.379 -262.45)" fill="#535352"/>
      <path id="Path_3122" data-name="Path 3122" d="M272.4,441.183v6.641h-.605v-6.641H269.13v-.5h5.928v.5Z" transform="translate(-2.379 -262.45)" fill="#535352" stroke="#535352" stroke-miterlimit="10" stroke-width="0.5"/>
      <path id="Path_3123" data-name="Path 3123" d="M279.3,446.5a3.881,3.881,0,0,0,2.624.877c1.149,0,2.277-.428,2.277-1.461,0-1.217-1.156-1.3-2.549-1.563-1.251-.238-2.42-.557-2.42-1.869s1.448-1.992,2.943-1.992a4.691,4.691,0,0,1,2.359.591l-.36.435a4.011,4.011,0,0,0-2.039-.53c-1.176,0-2.257.476-2.257,1.468s.979,1.2,1.971,1.36c1.543.3,3.018.476,3.018,2.073,0,1.36-1.468,1.971-2.93,1.971a4.493,4.493,0,0,1-2.977-.979Z" transform="translate(-5.527 -262.389)" fill="#535352"/>
      <path id="Path_3124" data-name="Path 3124" d="M279.3,446.5a3.881,3.881,0,0,0,2.624.877c1.149,0,2.277-.428,2.277-1.461,0-1.217-1.156-1.3-2.549-1.563-1.251-.238-2.42-.557-2.42-1.869s1.448-1.992,2.943-1.992a4.691,4.691,0,0,1,2.359.591l-.36.435a4.011,4.011,0,0,0-2.039-.53c-1.176,0-2.257.476-2.257,1.468s.979,1.2,1.971,1.36c1.543.3,3.018.476,3.018,2.073,0,1.36-1.468,1.971-2.93,1.971a4.493,4.493,0,0,1-2.977-.979Z" transform="translate(-5.527 -262.389)" fill="#535352" stroke="#535352" stroke-miterlimit="10" stroke-width="0.5"/>
      <path id="Path_3125" data-name="Path 3125" d="M298.7,447.335v.489h-4.34V440.68h.612v6.655Z" transform="translate(-10.458 -262.45)" fill="#535352"/>
      <path id="Path_3126" data-name="Path 3126" d="M298.7,447.335v.489h-4.34V440.68h.612v6.655Z" transform="translate(-10.458 -262.45)" fill="#535352" stroke="#535352" stroke-miterlimit="10" stroke-width="0.5"/>
      <path id="Path_3127" data-name="Path 3127" d="M307.968,447.824l-.816-1.971h-3.691l-.816,1.971H302l2.977-7.144h.646l2.977,7.144Zm-1.006-2.481-1.652-4.011-1.665,4.011Z" transform="translate(-12.906 -262.45)" fill="#535352"/>
      <path id="Path_3128" data-name="Path 3128" d="M307.968,447.824l-.816-1.971h-3.691l-.816,1.971H302l2.977-7.144h.646l2.977,7.144Zm-1.006-2.481-1.652-4.011-1.665,4.011Z" transform="translate(-12.906 -262.45)" fill="#535352" stroke="#535352" stroke-miterlimit="10" stroke-width="0.5"/>
      <path id="Path_3129" data-name="Path 3129" d="M317.029,440.676a1.727,1.727,0,0,1,1.9,1.8,1.618,1.618,0,0,1-1,1.618,1.72,1.72,0,0,1,1.292,1.8,1.822,1.822,0,0,1-2,1.924h-3.4v-7.144Zm-2.6,3.215h2.637a1.36,1.36,0,1,0-.1-2.719h-2.535Zm2.719,3.4a1.468,1.468,0,0,0,0-2.93h-2.719v2.93Z" transform="translate(-16.691 -262.446)" fill="#535352"/>
      <path id="Path_3130" data-name="Path 3130" d="M317.029,440.676a1.727,1.727,0,0,1,1.9,1.8,1.618,1.618,0,0,1-1,1.618,1.72,1.72,0,0,1,1.292,1.8,1.822,1.822,0,0,1-2,1.924h-3.4v-7.144Zm-2.6,3.215h2.637a1.36,1.36,0,1,0-.1-2.719h-2.535Zm2.719,3.4a1.468,1.468,0,0,0,0-2.93h-2.719v2.93Z" transform="translate(-16.691 -262.446)" fill="#535352" stroke="#535352" stroke-miterlimit="10" stroke-width="0.5"/>
      <path id="Path_3131" data-name="Path 3131" d="M330.972,444.191a3.6,3.6,0,1,1-3.6-3.691,3.415,3.415,0,0,1,3.6,3.691m-3.6-3.181a3.191,3.191,0,1,0,2.991,3.181,2.877,2.877,0,0,0-2.991-3.181" transform="translate(-19.88 -262.393)" fill="#535352"/>
      <path id="Path_3132" data-name="Path 3132" d="M330.972,444.191a3.6,3.6,0,1,1-3.6-3.691,3.415,3.415,0,0,1,3.6,3.691Zm-3.6-3.181a3.191,3.191,0,1,0,2.991,3.181,2.877,2.877,0,0,0-2.994-3.181Z" transform="translate(-19.88 -262.393)" fill="#535352" stroke="#535352" stroke-miterlimit="10" stroke-width="0.5"/>
      <path id="Path_3133" data-name="Path 3133" d="M339.813,440.667a2.1,2.1,0,0,1,2.27,2.23,2.039,2.039,0,0,1-1.774,2.182l2.039,2.719h-.721l-1.951-2.658h-2.2v2.678h-.612v-7.151Zm-2.332,3.97h2.277a1.734,1.734,0,0,0,0-3.467h-2.277Z" transform="translate(-24.072 -262.444)" fill="#535352"/>
      <path id="Path_3134" data-name="Path 3134" d="M339.813,440.667a2.1,2.1,0,0,1,2.27,2.23,2.039,2.039,0,0,1-1.774,2.182l2.039,2.719h-.721l-1.951-2.658h-2.2v2.678h-.612v-7.151Zm-2.332,3.97h2.277a1.734,1.734,0,0,0,0-3.467h-2.277Z" transform="translate(-24.072 -262.444)" fill="#535352" stroke="#535352" stroke-miterlimit="10" stroke-width="0.5"/>
      <path id="Path_3135" data-name="Path 3135" d="M352.5,447.824l-.816-1.971h-3.691l-.816,1.971h-.639l2.977-7.144h.646l2.977,7.144Zm-1-2.481-1.659-4.011-1.659,4.011Z" transform="translate(-27.168 -262.45)" fill="#535352"/>
      <path id="Path_3136" data-name="Path 3136" d="M352.5,447.824l-.816-1.971h-3.691l-.816,1.971h-.639l2.977-7.144h.646l2.977,7.144Zm-1-2.481-1.659-4.011-1.659,4.011Z" transform="translate(-27.168 -262.45)" fill="#535352" stroke="#535352" stroke-miterlimit="10" stroke-width="0.5"/>
      <path id="Path_3137" data-name="Path 3137" d="M359.02,441.183v6.641h-.6v-6.641h-2.67v-.5h5.934v.5Z" transform="translate(-30.118 -262.45)" fill="#535352"/>
      <path id="Path_3138" data-name="Path 3138" d="M359.02,441.183v6.641h-.6v-6.641h-2.67v-.5h5.934v.5Z" transform="translate(-30.118 -262.45)" fill="#535352" stroke="#535352" stroke-miterlimit="10" stroke-width="0.5"/>
      <path id="Path_3139" data-name="Path 3139" d="M372.465,444.191a3.594,3.594,0,1,1-3.6-3.691,3.415,3.415,0,0,1,3.6,3.691m-6.58,0a2.993,2.993,0,1,0,2.977-3.181,2.889,2.889,0,0,0-2.977,3.181" transform="translate(-33.17 -262.393)" fill="#535352"/>
      <path id="Path_3140" data-name="Path 3140" d="M372.465,444.191a3.594,3.594,0,1,1-3.6-3.691,3.415,3.415,0,0,1,3.6,3.691Zm-6.58,0a2.993,2.993,0,1,0,2.977-3.181,2.889,2.889,0,0,0-2.977,3.181Z" transform="translate(-33.17 -262.393)" fill="#535352" stroke="#535352" stroke-miterlimit="10" stroke-width="0.5"/>
      <path id="Path_3141" data-name="Path 3141" d="M381.3,440.668a2.107,2.107,0,0,1,2.25,2.264,2.039,2.039,0,0,1-1.781,2.182l2.039,2.719h-.714l-1.944-2.678h-2.2v2.678h-.612v-7.165Zm-2.332,3.97h2.277a1.734,1.734,0,0,0,0-3.467h-2.277Z" transform="translate(-37.353 -262.444)" fill="#535352"/>
      <path id="Path_3142" data-name="Path 3142" d="M381.3,440.668a2.107,2.107,0,0,1,2.25,2.264,2.039,2.039,0,0,1-1.781,2.182l2.039,2.719h-.714l-1.944-2.678h-2.2v2.678h-.612v-7.165Zm-2.332,3.97h2.277a1.734,1.734,0,0,0,0-3.467h-2.277Z" transform="translate(-37.353 -262.444)" fill="#535352" stroke="#535352" stroke-miterlimit="10" stroke-width="0.5"/>
      <rect id="Rectangle_1288" data-name="Rectangle 1288" width="0.605" height="7.151" transform="translate(348.138 178.23)" fill="#535352"/>
      <rect id="Rectangle_1289" data-name="Rectangle 1289" width="0.605" height="7.151" transform="translate(348.138 178.23)" fill="#535352" stroke="#535352" stroke-miterlimit="10" stroke-width="0.5"/>
      <path id="Path_3143" data-name="Path 3143" d="M393.3,441.183v2.7h3.535v.517H393.3v2.916h3.854v.51H392.7V440.68h4.459v.5Z" transform="translate(-41.951 -262.45)" fill="#535352"/>
      <path id="Path_3144" data-name="Path 3144" d="M393.3,441.183v2.7h3.535v.517H393.3v2.916h3.854v.51H392.7V440.68h4.459v.5Z" transform="translate(-41.951 -262.45)" fill="#535352" stroke="#535352" stroke-miterlimit="10" stroke-width="0.5"/>
      <path id="Path_3145" data-name="Path 3145" d="M401.207,446.5a3.9,3.9,0,0,0,2.624.877c1.156,0,2.27-.428,2.27-1.461,0-1.217-1.149-1.3-2.542-1.563-1.251-.238-2.42-.557-2.42-1.869s1.448-1.992,2.943-1.992a4.691,4.691,0,0,1,2.359.591l-.353.435a4.018,4.018,0,0,0-2.073-.53c-1.169,0-2.257.476-2.257,1.468s.979,1.2,1.978,1.36c1.543.3,3.011.476,3.011,2.073,0,1.36-1.461,1.971-2.923,1.971a4.5,4.5,0,0,1-2.984-.979Z" transform="translate(-44.558 -262.389)" fill="#535352" stroke="#535352" stroke-miterlimit="10" stroke-width="0.5"/>
    </g>
    <path id="Path_3146" data-name="Path 3146" d="M2663.177,2323.354h-62.163a39.8,39.8,0,0,1-7.349-12,39.359,39.359,0,0,1,.562-29.859,39.945,39.945,0,0,1,8.808-12.749,41.045,41.045,0,0,1,13.064-8.6,42.175,42.175,0,0,1,32,0,41.037,41.037,0,0,1,13.064,8.6,39.943,39.943,0,0,1,8.808,12.749,39.358,39.358,0,0,1,.562,29.859,39.8,39.8,0,0,1-7.35,12Z" transform="translate(-6818.965 -14980.146)" fill="#fff"/>
    <path id="Path_3147" data-name="Path 3147" d="M267.774,383.1a14.817,14.817,0,0,1,.816-3.745c1.434-3.745,7.607-7.029,8.008-10.767a16.77,16.77,0,0,1,1.067,3.365,3.983,3.983,0,0,1-.17,2.569c-1.6,3.99-8.837,6.3-8.5,11.964-.415-1.06-.87-2.243-1.21-3.4m-1.217-4.867c.856-7.239,7.2-9.551,7.192-13.378,1.713,2.182,2.916,3.732.741,6.118s-5.948,4.758-6.7,8.966a15.928,15.928,0,0,0-.2,2.617,21.555,21.555,0,0,1-1.026-4.337m9.428,18.9a26.889,26.889,0,0,1-12.949-23.187,26.035,26.035,0,0,1,4.228-14.275,36.61,36.61,0,0,1,3.63,3.025c2.508,2.413,1.8,4.167.217,5.805s-3.4,3.29-4.14,5.934a18.405,18.405,0,0,0-.571,3.086,51.138,51.138,0,0,1,.823-16.131,40.473,40.473,0,0,0-1.461,16.314c.68,5.968,3.535,10.543,6.464,14.452a28.549,28.549,0,0,1-3-5.234c-.544-5.52,8.66-7.579,9.517-13.262,3.236,8.769-4.011,8.9-4.588,14.819-.272,2.209,2.447,5.091,5.166,6.532a19.2,19.2,0,0,0,8.626,2.162h.89a24.227,24.227,0,0,0,19.584-11.223c5.934-9.272,2.719-21.242-5.9-22.765l-8.837,15.3-10.618-6.118,18.551-32.125,2.8,1.618,3.351-5.8a.734.734,0,0,0-.272-1.006l-.156-.1.884-1.516,6.505,3.759-.877,1.523-.163-.1a.748.748,0,0,0-1.013.265l-3.351,5.8,2.9,1.679L306.4,356.471c13.745,13.065,9.265,33.077-6.118,40.7h15.75v4.3H263.7v-4.3Z" transform="translate(-4476.414 -13058.405)" fill="#08a66d" fill-rule="evenodd"/>
    <path id="Path_3148" data-name="Path 3148" d="M305.608,342.169l-.761,1.359a39.521,39.521,0,0,1,9.068,56.916H251.377a39.555,39.555,0,0,1,46.223-60.81l.748-1.36a41.1,41.1,0,0,0-47.719,63.748H314.7a41.091,41.091,0,0,0-9.075-59.819" transform="translate(-4469.528 -13058.956)" fill="#08a66d" fill-rule="evenodd"/>
  </g>
</svg>
