<svg xmlns="http://www.w3.org/2000/svg" width="122.728" height="67.883" viewBox="0 0 122.728 67.883"><g transform="translate(-284.75 -8.807)"><g transform="translate(285 70.256)"><path d="M196.374,440.663a2.99,2.99,0,1,1,0,5.979h-1.9v-5.979Zm0,5.553a2.561,2.561,0,0,0,0-5.121h-1.4v5.115Z" transform="translate(-194.47 -440.56)" fill="none"/><path d="M196.374,440.663a2.99,2.99,0,1,1,0,5.979h-1.9v-5.979Zm0,5.553a2.561,2.561,0,0,0,0-5.121h-1.4v5.115Z" transform="translate(-194.47 -440.56)" fill="none" stroke="#a5a5a5" stroke-miterlimit="10" stroke-width="0.5"/><path d="M209.114,446.653l-.676-1.648h-3.1l-.676,1.648h-.534l2.489-5.973h.568l2.489,5.973Zm-.835-2.074-1.392-3.353-1.381,3.353Z" transform="translate(-198.639 -440.571)" fill="none"/><path d="M209.114,446.653l-.676-1.648h-3.1l-.676,1.648h-.534l2.489-5.973h.568l2.489,5.973Zm-.835-2.074-1.392-3.353-1.381,3.353Z" transform="translate(-198.639 -440.571)" fill="none" stroke="#a5a5a5" stroke-miterlimit="10" stroke-width="0.5"/><path d="M216.058,446.653l-2.438-5.973h.529l2.165,5.4,2.16-5.4h.534l-2.438,5.973Z" transform="translate(-202.736 -440.571)" fill="none"/><path d="M216.058,446.653l-2.438-5.973h.529l2.165,5.4,2.16-5.4h.534l-2.438,5.973Z" transform="translate(-202.736 -440.571)" fill="none" stroke="#a5a5a5" stroke-miterlimit="10" stroke-width="0.5"/><rect width="0.506" height="5.979" transform="translate(17.471 0.109)" fill="none"/><rect width="0.506" height="5.979" transform="translate(17.471 0.109)" fill="none" stroke="#a5a5a5" stroke-miterlimit="10" stroke-width="0.5"/><path d="M230.921,440.663a2.99,2.99,0,1,1,0,5.979H229v-5.979Zm0,5.553a2.561,2.561,0,0,0,0-5.121h-1.392v5.115Z" transform="translate(-209.375 -440.56)" fill="none"/><path d="M230.921,440.663a2.99,2.99,0,1,1,0,5.979H229v-5.979Zm0,5.553a2.561,2.561,0,0,0,0-5.121h-1.392v5.115Z" transform="translate(-209.375 -440.56)" fill="none" stroke="#a5a5a5" stroke-miterlimit="10" stroke-width="0.5"/><path d="M241.43,446.653h-.506v-2.381L238.6,440.68h.585l1.995,3.12,1.995-3.12h.585l-2.33,3.592Z" transform="translate(-213.519 -440.571)" fill="none"/><path d="M241.43,446.653h-.506v-2.381L238.6,440.68h.585l1.995,3.12,1.995-3.12h.585l-2.33,3.592Z" transform="translate(-213.519 -440.571)" fill="none" stroke="#a5a5a5" stroke-miterlimit="10" stroke-width="0.5"/><path d="M252.214,446.653l-.682-1.648h-3.086l-.682,1.648h-.534l2.489-5.973h.54l2.489,5.973Zm-.841-2.074-1.381-3.353-1.387,3.353Z" transform="translate(-217.244 -440.571)" fill="none"/><path d="M252.214,446.653l-.682-1.648h-3.086l-.682,1.648h-.534l2.489-5.973h.54l2.489,5.973Zm-.841-2.074-1.381-3.353-1.387,3.353Z" transform="translate(-217.244 -440.571)" fill="none" stroke="#a5a5a5" stroke-miterlimit="10" stroke-width="0.5"/><path d="M262.966,446.653l-3.575-5.126v5.126h-.512V440.68h.619l3.575,5.132V440.68h.506v5.973Z" transform="translate(-222.273 -440.571)" fill="none"/><path d="M262.966,446.653l-3.575-5.126v5.126h-.512V440.68h.619l3.575,5.132V440.68h.506v5.973Z" transform="translate(-222.273 -440.571)" fill="none" stroke="#a5a5a5" stroke-miterlimit="10" stroke-width="0.5"/><path d="M271.864,441.1v5.553h-.506V441.1H269.13v-.421h4.956v.421Z" transform="translate(-226.698 -440.571)" fill="none"/><path d="M271.864,441.1v5.553h-.506V441.1H269.13v-.421h4.956v.421Z" transform="translate(-226.698 -440.571)" fill="none" stroke="#a5a5a5" stroke-miterlimit="10" stroke-width="0.5"/><path d="M279.244,445.514a3.245,3.245,0,0,0,2.194.733c.96,0,1.9-.358,1.9-1.222,0-1.017-.966-1.091-2.131-1.307-1.046-.2-2.023-.466-2.023-1.563s1.211-1.665,2.461-1.665a3.922,3.922,0,0,1,1.972.495l-.3.364a3.352,3.352,0,0,0-1.705-.443c-.983,0-1.887.4-1.887,1.228s.818,1.006,1.648,1.137c1.29.25,2.523.4,2.523,1.733,0,1.137-1.228,1.648-2.45,1.648a3.757,3.757,0,0,1-2.489-.818Z" transform="translate(-230.94 -440.489)" fill="none"/><path d="M279.244,445.514a3.245,3.245,0,0,0,2.194.733c.96,0,1.9-.358,1.9-1.222,0-1.017-.966-1.091-2.131-1.307-1.046-.2-2.023-.466-2.023-1.563s1.211-1.665,2.461-1.665a3.922,3.922,0,0,1,1.972.495l-.3.364a3.352,3.352,0,0,0-1.705-.443c-.983,0-1.887.4-1.887,1.228s.818,1.006,1.648,1.137c1.29.25,2.523.4,2.523,1.733,0,1.137-1.228,1.648-2.45,1.648a3.757,3.757,0,0,1-2.489-.818Z" transform="translate(-230.94 -440.489)" fill="none" stroke="#a5a5a5" stroke-miterlimit="10" stroke-width="0.5"/><path d="M297.986,446.244v.409H294.36V440.68h.512v5.564Z" transform="translate(-237.588 -440.571)" fill="none"/><path d="M297.986,446.244v.409H294.36V440.68h.512v5.564Z" transform="translate(-237.588 -440.571)" fill="none" stroke="#a5a5a5" stroke-miterlimit="10" stroke-width="0.5"/><path d="M306.99,446.653l-.682-1.648h-3.086l-.682,1.648H302l2.489-5.973h.54l2.489,5.973Zm-.841-2.074-1.381-3.353-1.392,3.353Z" transform="translate(-240.886 -440.571)" fill="none"/><path d="M306.99,446.653l-.682-1.648h-3.086l-.682,1.648H302l2.489-5.973h.54l2.489,5.973Zm-.841-2.074-1.381-3.353-1.392,3.353Z" transform="translate(-240.886 -440.571)" fill="none" stroke="#a5a5a5" stroke-miterlimit="10" stroke-width="0.5"/><path d="M316.5,440.675a1.444,1.444,0,0,1,1.586,1.506,1.353,1.353,0,0,1-.835,1.353,1.438,1.438,0,0,1,1.08,1.506,1.523,1.523,0,0,1-1.671,1.608H313.82v-5.973Zm-2.171,2.688h2.205a1.137,1.137,0,0,0-.085-2.273h-2.12ZM316.6,446.2a1.228,1.228,0,0,0,0-2.45h-2.273v2.45Z" transform="translate(-245.988 -440.566)" fill="none"/><path d="M316.5,440.675a1.444,1.444,0,0,1,1.586,1.506,1.353,1.353,0,0,1-.835,1.353,1.438,1.438,0,0,1,1.08,1.506,1.523,1.523,0,0,1-1.671,1.608H313.82v-5.973Zm-2.171,2.688h2.205a1.137,1.137,0,0,0-.085-2.273h-2.12ZM316.6,446.2a1.228,1.228,0,0,0,0-2.45h-2.273v2.45Z" transform="translate(-245.988 -440.566)" fill="none" stroke="#a5a5a5" stroke-miterlimit="10" stroke-width="0.5"/><path d="M329.793,443.586a3.008,3.008,0,1,1-3.012-3.086,2.855,2.855,0,0,1,3.012,3.086m-3.012-2.66a2.668,2.668,0,1,0,2.5,2.66,2.405,2.405,0,0,0-2.5-2.66" transform="translate(-250.288 -440.494)" fill="none"/><path d="M329.793,443.586a3.008,3.008,0,1,1-3.012-3.086A2.855,2.855,0,0,1,329.793,443.586Zm-3.012-2.66a2.668,2.668,0,1,0,2.5,2.66A2.405,2.405,0,0,0,326.781,440.926Z" transform="translate(-250.288 -440.494)" fill="none" stroke="#a5a5a5" stroke-miterlimit="10" stroke-width="0.5"/><path d="M339.331,440.665a1.756,1.756,0,0,1,1.9,1.864,1.705,1.705,0,0,1-1.483,1.824l1.705,2.273h-.6l-1.631-2.222h-1.836v2.239h-.512v-5.979Zm-1.949,3.319h1.9a1.449,1.449,0,0,0,0-2.9h-1.9Z" transform="translate(-255.938 -440.563)" fill="none"/><path d="M339.331,440.665a1.756,1.756,0,0,1,1.9,1.864,1.705,1.705,0,0,1-1.483,1.824l1.705,2.273h-.6l-1.631-2.222h-1.836v2.239h-.512v-5.979Zm-1.949,3.319h1.9a1.449,1.449,0,0,0,0-2.9h-1.9Z" transform="translate(-255.938 -440.563)" fill="none" stroke="#a5a5a5" stroke-miterlimit="10" stroke-width="0.5"/><path d="M351.524,446.653l-.682-1.648h-3.086l-.682,1.648h-.534l2.489-5.973h.54l2.489,5.973Zm-.835-2.074-1.387-3.353-1.387,3.353Z" transform="translate(-260.112 -440.571)" fill="none"/><path d="M351.524,446.653l-.682-1.648h-3.086l-.682,1.648h-.534l2.489-5.973h.54l2.489,5.973Zm-.835-2.074-1.387-3.353-1.387,3.353Z" transform="translate(-260.112 -440.571)" fill="none" stroke="#a5a5a5" stroke-miterlimit="10" stroke-width="0.5"/><path d="M358.484,441.1v5.553h-.506V441.1H355.75v-.421h4.962v.421Z" transform="translate(-264.088 -440.571)" fill="none"/><path d="M358.484,441.1v5.553h-.506V441.1H355.75v-.421h4.962v.421Z" transform="translate(-264.088 -440.571)" fill="none" stroke="#a5a5a5" stroke-miterlimit="10" stroke-width="0.5"/><path d="M371.287,443.586a3,3,0,1,1-3.012-3.086,2.855,2.855,0,0,1,3.012,3.086m-5.5,0a2.5,2.5,0,1,0,2.489-2.66,2.416,2.416,0,0,0-2.489,2.66" transform="translate(-268.202 -440.494)" fill="none"/><path d="M371.287,443.586a3,3,0,1,1-3.012-3.086A2.855,2.855,0,0,1,371.287,443.586Zm-5.5,0a2.5,2.5,0,1,0,2.489-2.66A2.416,2.416,0,0,0,365.786,443.586Z" transform="translate(-268.202 -440.494)" fill="none" stroke="#a5a5a5" stroke-miterlimit="10" stroke-width="0.5"/><path d="M380.812,440.667a1.762,1.762,0,0,1,1.881,1.893,1.7,1.7,0,0,1-1.489,1.824l1.7,2.273h-.6l-1.625-2.239h-1.836v2.239h-.512v-5.99Zm-1.949,3.319h1.9a1.449,1.449,0,1,0,0-2.9h-1.9Z" transform="translate(-273.839 -440.563)" fill="none"/><path d="M380.812,440.667a1.762,1.762,0,0,1,1.881,1.893,1.7,1.7,0,0,1-1.489,1.824l1.7,2.273h-.6l-1.625-2.239h-1.836v2.239h-.512v-5.99Zm-1.949,3.319h1.9a1.449,1.449,0,1,0,0-2.9h-1.9Z" transform="translate(-273.839 -440.563)" fill="none" stroke="#a5a5a5" stroke-miterlimit="10" stroke-width="0.5"/><rect width="0.506" height="5.979" transform="translate(110.48 0.109)" fill="none"/><rect width="0.506" height="5.979" transform="translate(110.48 0.109)" fill="none" stroke="#a5a5a5" stroke-miterlimit="10" stroke-width="0.5"/><path d="M393.206,441.1v2.256h2.955v.432h-2.955v2.438h3.222v.426H392.7V440.68h3.728v.421Z" transform="translate(-280.038 -440.571)" fill="none"/><path d="M393.206,441.1v2.256h2.955v.432h-2.955v2.438h3.222v.426H392.7V440.68h3.728v.421Z" transform="translate(-280.038 -440.571)" fill="none" stroke="#a5a5a5" stroke-miterlimit="10" stroke-width="0.5"/><path d="M401.147,445.514a3.257,3.257,0,0,0,2.194.733c.966,0,1.9-.358,1.9-1.222,0-1.017-.96-1.091-2.126-1.307-1.046-.2-2.023-.466-2.023-1.563s1.211-1.665,2.461-1.665a3.922,3.922,0,0,1,1.972.495l-.3.364a3.359,3.359,0,0,0-1.733-.443c-.978,0-1.887.4-1.887,1.228s.818,1.006,1.654,1.137c1.29.25,2.518.4,2.518,1.733,0,1.137-1.222,1.648-2.444,1.648a3.763,3.763,0,0,1-2.495-.818Z" transform="translate(-283.551 -440.489)" fill="none" stroke="#a5a5a5" stroke-miterlimit="10" stroke-width="0.5"/></g><path d="M267,374.96a12.389,12.389,0,0,1,.682-3.132c1.2-3.132,6.36-5.877,6.7-9a14.018,14.018,0,0,1,.892,2.813,3.331,3.331,0,0,1-.142,2.148c-1.341,3.336-7.388,5.263-7.1,10-.347-.887-.728-1.875-1.012-2.842m-1.017-4.069c.716-6.053,6.024-7.985,6.013-11.185,1.432,1.824,2.438,3.12.62,5.115s-4.973,3.978-5.6,7.5a13.32,13.32,0,0,0-.17,2.188,18.021,18.021,0,0,1-.858-3.626m7.883,15.806a22.482,22.482,0,0,1-10.827-19.386,21.768,21.768,0,0,1,3.535-11.935,30.618,30.618,0,0,1,3.035,2.529c2.1,2.018,1.506,3.484.182,4.854s-2.842,2.751-3.461,4.962a15.391,15.391,0,0,0-.477,2.58,42.757,42.757,0,0,1,.688-13.487,33.838,33.838,0,0,0-1.222,13.64c.568,4.99,2.955,8.815,5.4,12.083a23.872,23.872,0,0,1-2.512-4.376c-.455-4.615,7.241-6.337,7.957-11.088,2.705,7.332-3.353,7.445-3.836,12.39-.227,1.847,2.046,4.257,4.319,5.462a16.056,16.056,0,0,0,7.212,1.807h.745a20.256,20.256,0,0,0,16.374-9.383c4.962-7.752,2.273-17.761-4.933-19.034l-7.388,12.793-8.878-5.115,15.51-26.86,2.342,1.353,2.8-4.854a.614.614,0,0,0-.227-.841l-.131-.08.739-1.267,5.439,3.143-.733,1.273-.136-.08a.625.625,0,0,0-.847.222l-2.8,4.854,2.427,1.4-4.876,8.457c11.492,10.924,7.747,27.655-5.115,34.027h13.168v3.6H263.59v-3.6Z" transform="translate(60.913 -324.613)" fill="#a5a5a5" fill-rule="evenodd"/><path d="M295.111,341.021l-.637,1.137a33.043,33.043,0,0,1,7.582,47.587H249.768A33.072,33.072,0,0,1,288.415,338.9l.625-1.137a34.368,34.368,0,0,0-39.9,53.3h53.572a34.356,34.356,0,0,0-7.587-50.014" transform="translate(70.192 -325.36)" fill="#a5a5a5" fill-rule="evenodd"/></g></svg>