<svg xmlns="http://www.w3.org/2000/svg" width="136.949" height="75.752" viewBox="0 0 136.949 75.752"><g transform="translate(-284.75 -8.807)"><g transform="translate(285 77.405)"><path d="M196.6,440.664a3.337,3.337,0,1,1,0,6.675H194.47v-6.675Zm0,6.2a2.859,2.859,0,0,0,0-5.717h-1.561v5.71Z" transform="translate(-194.47 -440.549)" fill="none"/><path d="M196.6,440.664a3.337,3.337,0,1,1,0,6.675H194.47v-6.675Zm0,6.2a2.859,2.859,0,0,0,0-5.717h-1.561v5.71Z" transform="translate(-194.47 -440.549)" fill="none" stroke="#a5a5a5" stroke-miterlimit="10" stroke-width="0.5"/><path d="M209.694,447.348l-.755-1.84h-3.458l-.755,1.84h-.6l2.779-6.668h.634l2.779,6.668Zm-.933-2.316-1.554-3.743-1.542,3.743Z" transform="translate(-198 -440.558)" fill="none"/><path d="M209.694,447.348l-.755-1.84h-3.458l-.755,1.84h-.6l2.779-6.668h.634l2.779,6.668Zm-.933-2.316-1.554-3.743-1.542,3.743Z" transform="translate(-198 -440.558)" fill="none" stroke="#a5a5a5" stroke-miterlimit="10" stroke-width="0.5"/><path d="M216.342,447.348l-2.722-6.668h.59l2.417,6.027,2.411-6.027h.6l-2.722,6.668Z" transform="translate(-201.469 -440.558)" fill="none"/><path d="M216.342,447.348l-2.722-6.668h.59l2.417,6.027,2.411-6.027h.6l-2.722,6.668Z" transform="translate(-201.469 -440.558)" fill="none" stroke="#a5a5a5" stroke-miterlimit="10" stroke-width="0.5"/><rect width="0.565" height="6.675" transform="translate(19.504 0.121)" fill="none"/><rect width="0.565" height="6.675" transform="translate(19.504 0.121)" fill="none" stroke="#a5a5a5" stroke-miterlimit="10" stroke-width="0.5"/><path d="M231.144,440.664a3.337,3.337,0,1,1,0,6.675H229v-6.675Zm0,6.2a2.859,2.859,0,0,0,0-5.717H229.59v5.71Z" transform="translate(-207.091 -440.549)" fill="none"/><path d="M231.144,440.664a3.337,3.337,0,1,1,0,6.675H229v-6.675Zm0,6.2a2.859,2.859,0,0,0,0-5.717H229.59v5.71Z" transform="translate(-207.091 -440.549)" fill="none" stroke="#a5a5a5" stroke-miterlimit="10" stroke-width="0.5"/><path d="M241.76,447.348h-.565V444.69l-2.6-4.01h.654l2.227,3.483,2.227-3.483h.653l-2.6,4.01Z" transform="translate(-210.6 -440.558)" fill="none"/><path d="M241.76,447.348h-.565V444.69l-2.6-4.01h.654l2.227,3.483,2.227-3.483h.653l-2.6,4.01Z" transform="translate(-210.6 -440.558)" fill="none" stroke="#a5a5a5" stroke-miterlimit="10" stroke-width="0.5"/><path d="M252.794,447.348l-.761-1.84h-3.445l-.761,1.84h-.6l2.779-6.668h.6l2.779,6.668Zm-.939-2.316-1.542-3.743-1.548,3.743Z" transform="translate(-213.755 -440.558)" fill="none"/><path d="M252.794,447.348l-.761-1.84h-3.445l-.761,1.84h-.6l2.779-6.668h.6l2.779,6.668Zm-.939-2.316-1.542-3.743-1.548,3.743Z" transform="translate(-213.755 -440.558)" fill="none" stroke="#a5a5a5" stroke-miterlimit="10" stroke-width="0.5"/><path d="M263.442,447.348l-3.991-5.723v5.723h-.571V440.68h.692l3.991,5.729V440.68h.565v6.668Z" transform="translate(-218.013 -440.558)" fill="none"/><path d="M263.442,447.348l-3.991-5.723v5.723h-.571V440.68h.692l3.991,5.729V440.68h.565v6.668Z" transform="translate(-218.013 -440.558)" fill="none" stroke="#a5a5a5" stroke-miterlimit="10" stroke-width="0.5"/><path d="M272.182,441.15v6.2h-.565v-6.2H269.13v-.47h5.533v.47Z" transform="translate(-221.761 -440.558)" fill="none"/><path d="M272.182,441.15v6.2h-.565v-6.2H269.13v-.47h5.533v.47Z" transform="translate(-221.761 -440.558)" fill="none" stroke="#a5a5a5" stroke-miterlimit="10" stroke-width="0.5"/><path d="M279.277,446.1a3.623,3.623,0,0,0,2.449.819c1.072,0,2.125-.4,2.125-1.364,0-1.136-1.079-1.218-2.379-1.459-1.167-.222-2.259-.52-2.259-1.745s1.351-1.859,2.747-1.859a4.378,4.378,0,0,1,2.2.552l-.336.406a3.743,3.743,0,0,0-1.9-.495c-1.1,0-2.106.444-2.106,1.37s.914,1.123,1.84,1.269c1.44.279,2.817.444,2.817,1.935,0,1.269-1.37,1.84-2.735,1.84a4.194,4.194,0,0,1-2.779-.914Z" transform="translate(-225.353 -440.489)" fill="none"/><path d="M279.277,446.1a3.623,3.623,0,0,0,2.449.819c1.072,0,2.125-.4,2.125-1.364,0-1.136-1.079-1.218-2.379-1.459-1.167-.222-2.259-.52-2.259-1.745s1.351-1.859,2.747-1.859a4.378,4.378,0,0,1,2.2.552l-.336.406a3.743,3.743,0,0,0-1.9-.495c-1.1,0-2.106.444-2.106,1.37s.914,1.123,1.84,1.269c1.44.279,2.817.444,2.817,1.935,0,1.269-1.37,1.84-2.735,1.84a4.194,4.194,0,0,1-2.779-.914Z" transform="translate(-225.353 -440.489)" fill="none" stroke="#a5a5a5" stroke-miterlimit="10" stroke-width="0.5"/><path d="M298.408,446.891v.457H294.36V440.68h.571v6.211Z" transform="translate(-230.982 -440.558)" fill="none"/><path d="M298.408,446.891v.457H294.36V440.68h.571v6.211Z" transform="translate(-230.982 -440.558)" fill="none" stroke="#a5a5a5" stroke-miterlimit="10" stroke-width="0.5"/><path d="M307.571,447.348l-.761-1.84h-3.445l-.761,1.84H302l2.779-6.668h.6l2.779,6.668Zm-.939-2.316-1.542-3.743-1.554,3.743Z" transform="translate(-233.776 -440.558)" fill="none"/><path d="M307.571,447.348l-.761-1.84h-3.445l-.761,1.84H302l2.779-6.668h.6l2.779,6.668Zm-.939-2.316-1.542-3.743-1.554,3.743Z" transform="translate(-233.776 -440.558)" fill="none" stroke="#a5a5a5" stroke-miterlimit="10" stroke-width="0.5"/><path d="M316.815,440.675a1.612,1.612,0,0,1,1.77,1.681,1.51,1.51,0,0,1-.933,1.51,1.605,1.605,0,0,1,1.205,1.681,1.7,1.7,0,0,1-1.865,1.8H313.82v-6.668Zm-2.424,3h2.462a1.27,1.27,0,0,0-.1-2.538h-2.367Zm2.538,3.172a1.37,1.37,0,0,0,0-2.735h-2.538v2.735Z" transform="translate(-238.096 -440.554)" fill="none"/><path d="M316.815,440.675a1.612,1.612,0,0,1,1.77,1.681,1.51,1.51,0,0,1-.933,1.51,1.605,1.605,0,0,1,1.205,1.681,1.7,1.7,0,0,1-1.865,1.8H313.82v-6.668Zm-2.424,3h2.462a1.27,1.27,0,0,0-.1-2.538h-2.367Zm2.538,3.172a1.37,1.37,0,0,0,0-2.735h-2.538v2.735Z" transform="translate(-238.096 -440.554)" fill="none" stroke="#a5a5a5" stroke-miterlimit="10" stroke-width="0.5"/><path d="M330.493,443.945a3.357,3.357,0,1,1-3.363-3.445,3.187,3.187,0,0,1,3.363,3.445m-3.363-2.969a2.978,2.978,0,1,0,2.792,2.969,2.685,2.685,0,0,0-2.792-2.969" transform="translate(-241.737 -440.493)" fill="none"/><path d="M330.493,443.945a3.357,3.357,0,1,1-3.363-3.445A3.187,3.187,0,0,1,330.493,443.945Zm-3.363-2.969a2.978,2.978,0,1,0,2.792,2.969A2.685,2.685,0,0,0,327.13,440.976Z" transform="translate(-241.737 -440.493)" fill="none" stroke="#a5a5a5" stroke-miterlimit="10" stroke-width="0.5"/><path d="M339.617,440.666a1.96,1.96,0,0,1,2.119,2.081,1.9,1.9,0,0,1-1.656,2.037l1.9,2.538h-.673l-1.821-2.481h-2.049v2.5h-.571v-6.675Zm-2.176,3.705h2.126a1.618,1.618,0,0,0,0-3.236h-2.126Z" transform="translate(-246.521 -440.551)" fill="none"/><path d="M339.617,440.666a1.96,1.96,0,0,1,2.119,2.081,1.9,1.9,0,0,1-1.656,2.037l1.9,2.538h-.673l-1.821-2.481h-2.049v2.5h-.571v-6.675Zm-2.176,3.705h2.126a1.618,1.618,0,0,0,0-3.236h-2.126Z" transform="translate(-246.521 -440.551)" fill="none" stroke="#a5a5a5" stroke-miterlimit="10" stroke-width="0.5"/><path d="M352.1,447.348l-.761-1.84H347.9l-.761,1.84h-.6l2.779-6.668h.6l2.779,6.668Zm-.933-2.316-1.548-3.743-1.548,3.743Z" transform="translate(-250.055 -440.558)" fill="none"/><path d="M352.1,447.348l-.761-1.84H347.9l-.761,1.84h-.6l2.779-6.668h.6l2.779,6.668Zm-.933-2.316-1.548-3.743-1.548,3.743Z" transform="translate(-250.055 -440.558)" fill="none" stroke="#a5a5a5" stroke-miterlimit="10" stroke-width="0.5"/><path d="M358.8,441.15v6.2h-.565v-6.2H355.75v-.47h5.539v.47Z" transform="translate(-253.423 -440.558)" fill="none"/><path d="M358.8,441.15v6.2h-.565v-6.2H355.75v-.47h5.539v.47Z" transform="translate(-253.423 -440.558)" fill="none" stroke="#a5a5a5" stroke-miterlimit="10" stroke-width="0.5"/><path d="M371.986,443.945a3.354,3.354,0,1,1-3.363-3.445,3.187,3.187,0,0,1,3.363,3.445m-6.142,0a2.794,2.794,0,1,0,2.779-2.969,2.7,2.7,0,0,0-2.779,2.969" transform="translate(-256.906 -440.493)" fill="none"/><path d="M371.986,443.945a3.354,3.354,0,1,1-3.363-3.445A3.187,3.187,0,0,1,371.986,443.945Zm-6.142,0a2.794,2.794,0,1,0,2.779-2.969A2.7,2.7,0,0,0,365.845,443.945Z" transform="translate(-256.906 -440.493)" fill="none" stroke="#a5a5a5" stroke-miterlimit="10" stroke-width="0.5"/><path d="M381.1,440.667a1.967,1.967,0,0,1,2.1,2.113,1.9,1.9,0,0,1-1.662,2.037l1.9,2.538h-.666l-1.815-2.5h-2.049v2.5h-.571v-6.687Zm-2.176,3.705h2.125a1.618,1.618,0,1,0,0-3.236h-2.125Z" transform="translate(-261.68 -440.552)" fill="none"/><path d="M381.1,440.667a1.967,1.967,0,0,1,2.1,2.113,1.9,1.9,0,0,1-1.662,2.037l1.9,2.538h-.666l-1.815-2.5h-2.049v2.5h-.571v-6.687Zm-2.176,3.705h2.125a1.618,1.618,0,1,0,0-3.236h-2.125Z" transform="translate(-261.68 -440.552)" fill="none" stroke="#a5a5a5" stroke-miterlimit="10" stroke-width="0.5"/><rect width="0.565" height="6.675" transform="translate(123.335 0.121)" fill="none"/><rect width="0.565" height="6.675" transform="translate(123.335 0.121)" fill="none" stroke="#a5a5a5" stroke-miterlimit="10" stroke-width="0.5"/><path d="M393.265,441.15v2.519h3.3v.482h-3.3v2.722h3.6v.476H392.7V440.68h4.162v.47Z" transform="translate(-266.929 -440.558)" fill="none"/><path d="M393.265,441.15v2.519h3.3v.482h-3.3v2.722h3.6v.476H392.7V440.68h4.162v.47Z" transform="translate(-266.929 -440.558)" fill="none" stroke="#a5a5a5" stroke-miterlimit="10" stroke-width="0.5"/><path d="M401.183,446.1a3.636,3.636,0,0,0,2.449.819c1.079,0,2.119-.4,2.119-1.364,0-1.136-1.072-1.218-2.373-1.459-1.167-.222-2.259-.52-2.259-1.745s1.351-1.859,2.747-1.859a4.379,4.379,0,0,1,2.2.552l-.33.406a3.75,3.75,0,0,0-1.935-.495c-1.091,0-2.106.444-2.106,1.37s.914,1.123,1.846,1.269c1.44.279,2.811.444,2.811,1.935,0,1.269-1.364,1.84-2.728,1.84a4.2,4.2,0,0,1-2.785-.914Z" transform="translate(-269.904 -440.489)" fill="none" stroke="#a5a5a5" stroke-miterlimit="10" stroke-width="0.5"/></g><path d="M267.46,379.793a13.833,13.833,0,0,1,.761-3.5c1.339-3.5,7.1-6.56,7.474-10.05a15.651,15.651,0,0,1,1,3.141,3.718,3.718,0,0,1-.159,2.4c-1.5,3.724-8.248,5.875-7.931,11.167-.387-.99-.812-2.094-1.129-3.172m-1.136-4.543c.8-6.757,6.725-8.914,6.713-12.486,1.6,2.037,2.722,3.483.692,5.71s-5.552,4.441-6.256,8.369a14.87,14.87,0,0,0-.19,2.443,20.117,20.117,0,0,1-.958-4.048m8.8,17.645a25.1,25.1,0,0,1-12.087-21.642A24.3,24.3,0,0,1,267,357.9a34.185,34.185,0,0,1,3.388,2.823c2.341,2.252,1.681,3.889.2,5.418s-3.172,3.071-3.864,5.539a17.175,17.175,0,0,0-.533,2.88,47.732,47.732,0,0,1,.768-15.056,37.775,37.775,0,0,0-1.364,15.227c.634,5.571,3.3,9.841,6.034,13.489a26.652,26.652,0,0,1-2.8-4.885c-.508-5.152,8.083-7.074,8.883-12.379,3.02,8.185-3.743,8.312-4.283,13.831-.254,2.062,2.284,4.752,4.822,6.1a17.924,17.924,0,0,0,8.051,2.018h.831a22.613,22.613,0,0,0,18.279-10.475c5.539-8.654,2.538-19.827-5.507-21.248l-8.248,14.282-9.91-5.71,17.315-29.985,2.614,1.51,3.128-5.418a.685.685,0,0,0-.254-.939l-.146-.089.825-1.415,6.072,3.509-.818,1.421-.152-.089a.7.7,0,0,0-.945.247l-3.128,5.418,2.709,1.567-5.444,9.441c12.829,12.195,8.648,30.873-5.71,37.986h14.7v4.016H263.653v-4.016Z" transform="translate(65.446 -324.613)" fill="#a5a5a5" fill-rule="evenodd"/><path d="M301.341,341.7l-.711,1.269a36.888,36.888,0,0,1,8.464,53.124H250.723a36.92,36.92,0,0,1,43.144-56.76l.7-1.269a38.366,38.366,0,0,0-44.54,59.5H309.83a38.354,38.354,0,0,0-8.47-55.833" transform="translate(73.305 -325.243)" fill="#a5a5a5" fill-rule="evenodd"/></g></svg>