<svg xmlns="http://www.w3.org/2000/svg" width="57.219" height="46.602" viewBox="0 0 57.219 46.602"><g transform="translate(20026 16041.499)"><g transform="translate(-20343.012 -16054.313)"><path d="M266.368,367.444a9.931,9.931,0,0,1,.573-2.565c1.007-2.565,5.342-4.813,5.624-7.374a11.278,11.278,0,0,1,.75,2.3,2.664,2.664,0,0,1-.119,1.76c-1.127,2.733-6.206,4.311-5.967,8.193-.291-.726-.611-1.536-.85-2.328m-.855-3.333c.6-4.958,5.06-6.54,5.051-9.161,1.2,1.494,2.048,2.556.52,4.19s-4.177,3.258-4.707,6.14a10.639,10.639,0,0,0-.143,1.792,14.453,14.453,0,0,1-.721-2.97m6.622,12.946a18.322,18.322,0,0,1-9.094-15.878,17.509,17.509,0,0,1,2.969-9.776,25.571,25.571,0,0,1,2.549,2.072c1.762,1.652,1.265,2.853.153,3.975a9.589,9.589,0,0,0-2.907,4.064,12.324,12.324,0,0,0-.4,2.113,34.165,34.165,0,0,1,.578-11.046,27.056,27.056,0,0,0-1.026,11.172c.477,4.087,2.482,7.22,4.54,9.9a19.431,19.431,0,0,1-2.11-3.584c-.382-3.78,6.082-5.19,6.684-9.082,2.272,6-2.817,6.1-3.222,10.148-.191,1.513,1.719,3.487,3.628,4.473a13.762,13.762,0,0,0,6.058,1.48h.625a17.106,17.106,0,0,0,13.754-7.685c4.168-6.349,1.91-14.547-4.144-15.59l-6.206,10.478-7.457-4.19,13.028-22,1.967,1.108,2.354-3.975a.492.492,0,0,0,.052-.383.5.5,0,0,0-.243-.306l-.11-.065.621-1.038,4.569,2.574-.616,1.043-.115-.065a.533.533,0,0,0-.711.182l-2.354,3.975,2.038,1.15-4.1,6.927c9.653,8.947,6.507,22.651-4.3,27.87h11.061v2.947H263.5v-2.947Z" transform="translate(63.965 -320.606)" fill="#08A66D" fill-rule="evenodd"/><path d="M286.144,339.961l-.53.931a27.024,27.024,0,0,1,11.732,18.144,26.739,26.739,0,0,1-5.419,20.832H248.394a26.74,26.74,0,0,1-.128-32.948,27.813,27.813,0,0,1,32.3-8.7l.521-.931a28.9,28.9,0,0,0-33.82,9.152,27.79,27.79,0,0,0,.6,34.5h44.6a27.81,27.81,0,0,0,5.983-21.846,28.1,28.1,0,0,0-12.3-19.118" transform="translate(75.449 -321.538)" fill="#08A66D" fill-rule="evenodd"/></g></g></svg>